<svg id="Layer_1" data-name="Layer 1" xmlns="http://www.w3.org/2000/svg" viewBox="0 0 230 149.69"><defs><style>.cls-1{fill:#848484;}.cls-2{fill:#4d5ea2;}.cls-3{fill:#6980df;}.cls-4{fill:#524737;}.cls-5{fill:#feafee;}.cls-6{fill:#5e5848;}</style></defs><title>cat-blue</title><path class="cls-1" d="M526,377.28H316V367h19.59V347.13H316V317.18l-.07.07H326V287.18l-.07.07H336V257.18l-.07.07H346V237.18l-.07.07h20.2l-.07-.07v20.07H376.1l-.07-.07c0,3.37,0,6.75.05,10.12v19.63H396v-19.6h10v19.6h30v-19.6h10v19.59h19.92V267.3c0-3.37,0-6.75.05-10.12l-.07.07H476V237.18l-.07.07h20.2l-.07-.07v20.07H506.1l-.07-.07v30.07H516.1l-.07-.07v30.07H526.1l-.07-.07v30.3H506.37v19.87H526Zm-30-60v9.64h9.63v-9.58H496V307.25h9.64v-9.63H496v9.69H486v10l-10.06-.16V297.71H456.36v19.68h9.74V327H486v-9.67Zm-150.06,0,10,0V327H375.9v-9.6h9.75V297.75H366.07v19.39L356,317.3v-10H346v-9.64h-9.63v9.58H346c0,3.35,0,6.7,0,10.05h-9.64v9.63H346Zm60.34,9.59h29.3v-9.31l-9.33-.54c-.2-3.31-.37-6.24-.55-9.27h-9.52l-.48,9.3-9.42.55Z" transform="translate(-306 -227.59)"/><path class="cls-2" d="M306,377.28v-60.1h10v29.95h19.62V367H316v10.28Z" transform="translate(-306 -227.59)"/><path class="cls-2" d="M526,317.18h10v60.1H526v-9.93H506.37V347.48H526Z" transform="translate(-306 -227.59)"/><path class="cls-2" d="M376,257.18H466c0,3.37,0,6.75-.05,10.12l-19.92,0H396l-19.92,0C376.07,263.93,376.05,260.55,376,257.18Z" transform="translate(-306 -227.59)"/><path class="cls-3" d="M406,267.33h30v19.6H406Z" transform="translate(-306 -227.59)"/><path class="cls-3" d="M376.08,267.3l19.92,0v19.6H376.08Z" transform="translate(-306 -227.59)"/><path class="cls-3" d="M446,267.33l19.92,0v19.62H446Z" transform="translate(-306 -227.59)"/><path class="cls-4" d="M366.07,317.14V297.75h19.58v19.64H375.9Z" transform="translate(-306 -227.59)"/><path class="cls-4" d="M466.1,317.39h-9.74V297.71h19.57v19.43Z" transform="translate(-306 -227.59)"/><path class="cls-4" d="M406.31,326.84v-9.27l9.42-.55.48-9.3h9.52c.18,3,.35,6,.55,9.27l9.33.54v9.31Z" transform="translate(-306 -227.59)"/><path class="cls-2" d="M325.9,287.25V257.18H336v30.07Z" transform="translate(-306 -227.59)"/><path class="cls-2" d="M506,257.18H516.1v30.07H506Z" transform="translate(-306 -227.59)"/><path class="cls-2" d="M315.9,317.25V287.18H326v30.07Z" transform="translate(-306 -227.59)"/><path class="cls-2" d="M516,287.18H526.1v30.07H516Z" transform="translate(-306 -227.59)"/><path class="cls-2" d="M345.9,237.25v-9.66h20.2v9.66Z" transform="translate(-306 -227.59)"/><path class="cls-2" d="M475.9,237.25v-9.66h20.2v9.66Z" transform="translate(-306 -227.59)"/><path class="cls-2" d="M335.9,257.25V237.18H346v20.07Z" transform="translate(-306 -227.59)"/><path class="cls-2" d="M366,237.18H376.1v20.07H366Z" transform="translate(-306 -227.59)"/><path class="cls-2" d="M465.9,257.25V237.18H476v20.07Z" transform="translate(-306 -227.59)"/><path class="cls-2" d="M496,237.18H506.1v20.07H496Z" transform="translate(-306 -227.59)"/><path class="cls-5" d="M366.07,317.14l9.83.25V327H356v-9.7h0Z" transform="translate(-306 -227.59)"/><path class="cls-5" d="M466.1,317.39l9.83-.25,10.06.16h0V327H466.1Z" transform="translate(-306 -227.59)"/><path class="cls-6" d="M346,307.26h-9.69v-9.58H346v9.64Z" transform="translate(-306 -227.59)"/><path class="cls-4" d="M496,307.31v-9.69h9.58v9.63H496Z" transform="translate(-306 -227.59)"/><path class="cls-4" d="M346,307.32h10v10h0l-10,0,.06.06c0-3.35,0-6.7,0-10.05Z" transform="translate(-306 -227.59)"/><path class="cls-4" d="M486,317.3v-10h10l-.06-.06v10.06l.06-.06-10,0Z" transform="translate(-306 -227.59)"/><path class="cls-4" d="M346,317.25v9.69h-9.58v-9.63H346Z" transform="translate(-306 -227.59)"/><path class="cls-4" d="M496,317.31h9.69v9.58H496v-9.64Z" transform="translate(-306 -227.59)"/></svg>