<svg id="Layer_1" data-name="Layer 1" xmlns="http://www.w3.org/2000/svg" viewBox="0 0 230 149.67"><defs><style>.cls-1{fill:#848484;}.cls-2{fill:#cb568c;}.cls-3{fill:#c66d9f;}.cls-4{fill:#524737;}.cls-5{fill:#feafee;}.cls-6{fill:#5e5848;}</style></defs><title>cat-pink</title><path class="cls-1" d="M531,377.28H321V367h19.6V347.14H321V317.21l-.06.06H331V287.21l-.06.06H341V257.21l-.06.06H351V237.21l-.06.06h20.14l-.06-.06v20.06h10.06l-.06-.06c0,3.35.05,6.7.08,10.06v19.65h20v-19.6h9.88v19.6h30.12v-19.6h9.88V286.9h20V267.27c0-3.36,0-6.71.08-10.06l-.06.06H481V237.21l-.06.06h20.14l-.06-.06v20.06h10.06l-.06-.06v30.06h10.06l-.06-.06v30.06h10.06l-.06-.06V347.5H511.37v19.85H531Zm-30-60v9.64h9.63v-9.58H501V307.25h9.64v-9.63H501v9.69H491v10l-10.06-.16V297.71H461.36v19.68h9.74V327H491v-9.67Zm-150.06,0,10,0V327H380.9v-9.6h9.75V297.75H371.07v19.39L361,317.3v-10H351v-9.64h-9.63v9.58H351c0,3.35,0,6.7,0,10.05h-9.64v9.63H351Zm60.24,9.69H440.7v-9.35l-9.48-.64c-.18-3.44-.33-6.36-.49-9.33h-9.45c-.2,3.24-.37,6.17-.56,9.35l-9.51.64Z" transform="translate(-311 -227.61)"/><path class="cls-2" d="M311,377.28V317.21h10v29.93H340.6V367H321v10.28Z" transform="translate(-311 -227.61)"/><path class="cls-2" d="M531,317.21h10v60.07H531v-9.93H511.37V347.5H531Z" transform="translate(-311 -227.61)"/><path class="cls-2" d="M381,257.21h90c0,3.35-.05,6.7-.08,10.06l-20,.05H401.06l-20-.05C381.06,263.91,381,260.56,381,257.21Z" transform="translate(-311 -227.61)"/><path class="cls-3" d="M410.94,267.32h30.12v19.6H410.94Z" transform="translate(-311 -227.61)"/><path class="cls-3" d="M381.09,267.27l20,.05v19.6h-20Z" transform="translate(-311 -227.61)"/><path class="cls-3" d="M450.94,267.32l20-.05V286.9h-20Z" transform="translate(-311 -227.61)"/><path class="cls-4" d="M371.07,317.14V297.75h19.58v19.64H380.9Z" transform="translate(-311 -227.61)"/><path class="cls-4" d="M471.1,317.39h-9.74V297.71h19.57v19.43Z" transform="translate(-311 -227.61)"/><path class="cls-4" d="M411.21,326.94v-9.33l9.51-.64c.19-3.18.36-6.11.56-9.35h9.45c.16,3,.31,5.89.49,9.33l9.48.64v9.35Z" transform="translate(-311 -227.61)"/><path class="cls-2" d="M330.93,287.27V257.21H341v30.06Z" transform="translate(-311 -227.61)"/><path class="cls-2" d="M511,257.21h10.06v30.06H511Z" transform="translate(-311 -227.61)"/><path class="cls-2" d="M320.93,317.27V287.21H331v30.06Z" transform="translate(-311 -227.61)"/><path class="cls-2" d="M521,287.21h10.06v30.06H521Z" transform="translate(-311 -227.61)"/><path class="cls-2" d="M350.93,237.27v-9.66h20.14v9.66Z" transform="translate(-311 -227.61)"/><path class="cls-2" d="M480.93,237.27v-9.66h20.14v9.66Z" transform="translate(-311 -227.61)"/><path class="cls-2" d="M340.93,257.27V237.21H351v20.06Z" transform="translate(-311 -227.61)"/><path class="cls-2" d="M371,237.21h10.06v20.06H371Z" transform="translate(-311 -227.61)"/><path class="cls-2" d="M470.93,257.27V237.21H481v20.06Z" transform="translate(-311 -227.61)"/><path class="cls-2" d="M501,237.21h10.06v20.06H501Z" transform="translate(-311 -227.61)"/><path class="cls-5" d="M371.07,317.14l9.83.25V327H361v-9.7h0Z" transform="translate(-311 -227.61)"/><path class="cls-5" d="M471.1,317.39l9.83-.25,10.06.16h0V327H471.1Z" transform="translate(-311 -227.61)"/><path class="cls-6" d="M351,307.26h-9.69v-9.58H351v9.64Z" transform="translate(-311 -227.61)"/><path class="cls-4" d="M501,307.31v-9.69h9.58v9.63H501Z" transform="translate(-311 -227.61)"/><path class="cls-4" d="M351,307.32h10v10h0l-10,0,.06.06c0-3.35,0-6.7,0-10.05Z" transform="translate(-311 -227.61)"/><path class="cls-4" d="M491,317.3v-10h10l-.06-.06v10.06l.06-.06-10,0Z" transform="translate(-311 -227.61)"/><path class="cls-4" d="M351,317.25v9.69h-9.58v-9.63H351Z" transform="translate(-311 -227.61)"/><path class="cls-4" d="M501,317.31h9.69v9.58H501v-9.64Z" transform="translate(-311 -227.61)"/></svg>