<svg xmlns="http://www.w3.org/2000/svg" viewBox="0 0 640 640"><defs><style>.cls-1{fill:#003034;}.cls-2{fill:#042f33;}.cls-3{fill:#5c8286;}.cls-4{fill:#618284;}.cls-5{fill:#032527;}.cls-6{fill:#00272b;}.cls-7{fill:#cbf6ed;}.cls-8{fill:#caf5f0;}.cls-9{fill:#053035;}.cls-10{fill:#4e7673;}.cls-11{fill:#d8fefd;}.cls-12{fill:#002323;}.cls-13{fill:#093333;}.cls-14{fill:#063235;}.cls-15{fill:#063135;}.cls-16{fill:#073233;}.cls-17{fill:#00282b;}.cls-18{fill:#053134;}.cls-19{fill:#073135;}.cls-20{fill:#053232;}.cls-21{fill:#073237;}.cls-22{fill:#032627;}.cls-23{fill:#073334;}.cls-24{fill:#00292a;}.cls-25{fill:#083538;}.cls-26{fill:#01292a;}.cls-27{fill:#d3fef9;}.cls-28{fill:#002b2c;}.cls-29{fill:#042c2f;}.cls-30{fill:#b0d8d6;}.cls-31{fill:#0a3435;}.cls-32{fill:#093234;}.cls-33{fill:#2b5656;}.cls-34{fill:#c8f3ed;}.cls-35{fill:#022;}.cls-36{fill:#2f5656;}.cls-37{fill:#d5fdf8;}.cls-38{fill:#d3fefc;}.cls-39{fill:#012f34;}.cls-40{fill:#022b2d;}.cls-41{fill:#c7f1e9;}.cls-42{fill:#d4fefe;}.cls-43{fill:#d3fefb;}.cls-44{fill:#d4fef8;}</style></defs><title>Asset 1</title><g id="Layer_2" data-name="Layer 2"><g id="Layer_1-2" data-name="Layer 1"><path class="cls-1" d="M.09,635.75Q.09,320.17,0,4.59C0,.84.84,0,4.59,0Q320.77.17,637,.09c2,2.06,1.47,4.68,1.47,7.12q.06,46,0,91.93,0,258.06.06,516.12c0,6.19-1.39,12.24-1.18,18.41a5,5,0,0,1-2.68,4.51,4.86,4.86,0,0,1-3,.32,110.31,110.31,0,0,0-17.32-1.26q-302.58,0-605.16,0C6.14,637.2,2.82,638.14.09,635.75Z"/><path class="cls-2" d="M.09,635.75q307.74,0,615.49-.06c4.46,0,8.9,1,13.38.12a2.33,2.33,0,0,1,3,1.93c-2.22,1.75-4.82,1-7.24,1q-191.94.06-383.9,0-116.71,0-233.44,0c-2.44,0-5,.65-7.28-1Z"/><path class="cls-2" d="M634,637.74c3.74-5.67,1.17-12.37,2.94-18.38.4-1.38.06-3,.06-4.48V.09h1c1.74,2.59,1,5.51,1,8.28q.06,309.56,0,619.12c0,2.67-.08,5.33.09,8a10.33,10.33,0,0,1,.37,2.65c-.5,1.46-1.76,1-2.8,1.09A3.52,3.52,0,0,1,634,637.74Z"/><path class="cls-3" d="M635.89,638.59l3.08.16c.32-.61.65-.62,1,0-.22.3.51,1-.5,1-1.33,0-2.67,0-4,0q-315.44,0-630.86-.06c-1.46,0-3.39,1.16-4.5-.93,1.73-.93,3.6-.48,5.4-.48q312.48,0,625,0C632.26,638.27,634.11,638,635.89,638.59Z"/><path class="cls-4" d="M640,638.75h-1c-.05-.69-.11-1.38-.17-2.07-.64-1.78-.33-3.63-.33-5.44q0-312.89,0-625.75c0-1.8-.46-3.67.47-5.4.31.22,1-.5,1,.5,0,1.33,0,2.67,0,4Z"/><path class="cls-5" d="M639,.09v630.6c0,2-.1,4-.15,6-1.47-2.12-.82-4.53-.82-6.8q0-314.89,0-629.79Z"/><path class="cls-6" d="M635.89,638.59c-2.33,0-4.66.15-7,.15H.09v-1H634Z"/><path class="cls-7" d="M256.05,302c2.8-7.68,5.68-15.33,10-22.35,2.82-8.72,10.28-13.24,16.84-18.57,1.25-1,2.85-.6,4.23-1.06,8-3.67,15.92-7.54,25-7.92q9,0,17.95,0c8.3.29,15.56,3.88,22.92,7.17,3.57-.15,5.83,1.6,7,4.87l1,.86a7.84,7.84,0,0,1,5.89,5.3c7.39,8.77,12.95,18.5,15,29.92.47,2.68,2,2.54,3.88,2.54,7.14,0,14.3.06,21.44,0,2.55,0,3.26.66,2.34,3.16-2.22,6.07-4.27,12.19-6.39,18.29a18.16,18.16,0,0,1-2.66.26q-53.93.08-107.85,0a26.68,26.68,0,0,0-5.44.21,4,4,0,0,0-1.07.75,4.91,4.91,0,0,0-.35,2.4,3.77,3.77,0,0,1-.55,1.12A30.88,30.88,0,0,0,291.92,344c2.63.59,3.64,2.54,4.12,4.92,11.84,13.17,44,13.64,57.87-4.17,1.86-2.39,3.07-2.1,5.17-.7,5.65,3.77,11.3,7.56,17.16,11,2.88,1.68,3.13,3.32,1.32,5.75-2.88,7.9-8.32,13-16.49,15.17-7.94,3.8-16.06,7-24.88,8.12-1.27.15-2,1.06-3,1.49a8.45,8.45,0,0,1-2.82.36,27.32,27.32,0,0,1-3.62-.12,28.12,28.12,0,0,0-9.64,0A3.19,3.19,0,0,1,315,385c-5.13-1.37-10.7-.62-15.57-3.24-5.27.59-8.71-2.82-12.42-5.66l-2.15-1.18A11.14,11.14,0,0,1,277,369c-6-6.75-11.92-13.56-15.79-21.9-2.85-6.16-4.14-12.77-6.2-19.15a1.87,1.87,0,0,1-.31-2c-6-1.6-12.16-.25-18.23-.7-2.47-.18-5,.48-7.42-.43a46,46,0,0,1,.06-21.67.43.43,0,0,0-.18-.47C238,301.12,247,302.28,256.05,302Z"/><path class="cls-7" d="M498,319.91l-30.67-.08c-1.46-1.88-.83-3.89-.38-5.89-.14-20.83-5.57-40.4-14.66-59-12.53-25.56-31.09-45.77-55.23-60.85-1.83-1.14-3.61-2.41-5.92-2.31l.07.07-6-4c-2.35-.29-4.92-.08-6.21-2.75-13.25-6.63-27.49-9.85-42-12.2-2.77-1.15-5.8.2-8.57-.88a2.25,2.25,0,0,1-2.42,0c-1.31-1.49-2.66-.6-4-.06-1.4.36-2.35,0-2.31-1.61.23-9.46-.63-18.93.46-28.37,2.77-.92,5.56-.61,8.34-.11,1.86-.55,3.68-.09,5.51.2,2.09,1.07,4.49-.18,6.59.84,19.49,1.34,37.86,7,55.27,15.47,48.66,23.75,80.61,61.79,96,113.72.37,1.27.8,2.53,1.2,3.79,1.13.79,1.1,1.88.82,3a42.24,42.24,0,0,0,2.14,11c2.24,1.93,1.43,4.52,1.5,6.93s-.45,5,.37,7.38a.41.41,0,0,0,.05.68A43.62,43.62,0,0,1,498,319.91Z"/><path class="cls-7" d="M215,464.87l-2.33-2c-.83-.76-2.39-.56-2.65-2.05l-8.5-7.13c-5-2.4-9.4-5.42-11.37-11v0a5.28,5.28,0,0,1-4-4.32.41.41,0,0,0-.39-.52,3.14,3.14,0,0,1-1.78-2c-16.81-20.54-29.53-43.24-36.41-69-1.58-5.91-3.42-11.79-3.63-18,.77-2-.26-3.93-.42-5.9a64.35,64.35,0,0,1-.52-9.91c0-6,3.64-10.39,9.61-11a119.68,119.68,0,0,1,13.92-.13,4.06,4.06,0,0,1,4.4,3.84c.58,4.38,1.93,8.7,1.19,13.18.16.39.06,1,.42,1.23s.11-.64.59-.55c2.51,12,5,24.06,9.85,35.47,12.54,29.73,32.13,53.42,59.85,70.2,6.42,2.44,13.07,4.44,18.17,9.42A123.71,123.71,0,0,0,301.83,466c2.33,1,4.88-.22,7.21.76l3,0c2.65-.36,5.34-1.26,7.86.49L320,497.7c-7.46.71-14.91,1.85-22.42.53a4.47,4.47,0,0,1-2.53-1.46c-4-.36-8-.64-11.77-2-1.27-.95-3,.26-4.24-1l-.22-.23-.29.15c-2.11-.77-4.9,1-6.49-1.76-2.5.59-4.38-2.06-6.91-1.29l.06.05a2.17,2.17,0,0,0-1.7-1.62c-13.22-4.16-25.43-10.53-37.48-17.22-.53-.6-1.51-.2-2-.92l-3.15-2.07A7.65,7.65,0,0,1,215,464.87Z"/><path class="cls-8" d="M172.05,339.91c-1.8-3.79-.47-8-1.74-12-1-3.05-1.58-4.6-5.16-4.12s-7,.07-10.47.11c-6.88.08-10.62,3.8-10.62,10.53,0,3.16,0,6.32,0,9.48.67,1.47.9,2.92-.18,4.32-2.11-8.4-2.15-17-2.72-25.58-.14-2.09.55-2.95,2.78-2.92q12.68.13,25.34,0c2.17,0,2.87.75,2.93,2.84.17,5.12.52,10.23.8,15.35C172.37,338.42,172.79,339.44,172.05,339.91Z"/><path class="cls-9" d="M287.09,260A85,85,0,0,0,266,279.61c.15-5.62-1.35-12.13,7.65-12.73.52,0,2.84-3.86,3.92-6.15C279.75,256.14,283.89,255.78,287.09,260Z"/><path class="cls-10" d="M284.91,328a3.65,3.65,0,0,1-.79-2.84c1.38-1.65,3.28-1.29,5.08-1.29q53.76,0,107.53,0c2.12,0,4.35-.49,6.26,1a2.64,2.64,0,0,1,0,.93c-2,1.68-4.45,1.05-6.71,1.06q-52,.06-104.09,0C289.7,326.91,287.18,326.71,284.91,328Z"/><path class="cls-11" d="M403,324.9l-113.4,0c-1.82,0-3.65.17-5.47.27,0-.43-.05-.85-.08-1.27,2-1.09,4.23-.5,6.35-.5l108.24,0c1.15,0,2.34.24,3.39-.49l1.1,1.21A.73.73,0,0,1,403,324.9Z"/><path class="cls-12" d="M284.91,328c.7-3.3,3.37-2.06,5.25-2.06q53.67-.12,107.33-.07c1.83,0,3.66-.05,5.49-.08,0,.36,0,.73,0,1.09-1.72.93-3.59.47-5.38.47q-52.86,0-105.71.06c-2,0-4.41-.84-6,1.43h-.37l-.38,0A1,1,0,0,1,284.91,328Z"/><path class="cls-13" d="M286,328.88c1.24-3.09,4-1.91,6.08-1.92q55.49-.09,111,0c-1.88,1.59-4.14,1-6.25,1q-51.72.06-103.45,0C290.81,327.92,288.28,327.67,286,328.88Z"/><path class="cls-14" d="M361.07,375.91c6.26-4.23,12-9,16.49-15.17L380,361.9c-2.3,5.21-6.87,8.6-10.38,12.83a7.87,7.87,0,0,0-1.71,3.5c-.45,2.13-1.07,4.4-3.56,1.31a2.6,2.6,0,0,0-1.13-.82c-1-.32-.66,3.75-2.43.88-.69-1.12,1.38-1.76,1.39-2.94C362.19,376.41,361.46,376.16,361.07,375.91Z"/><path class="cls-15" d="M261.05,454.76a81.83,81.83,0,0,1-18.17-9.42c.74-1.29-2-2.48,0-3.94,1.7-1.23,2.83-.17,4.2.44s2.87,1.11,4.28,1.64c-.73,2.36-2.92.26-3.92,2a15,15,0,0,0,10.09,2.89c2.45-.17,4.14,1.23,5.38,3C264.36,453.5,261.61,453.59,261.05,454.76Z"/><path class="cls-16" d="M190.19,442.72l11.37,11c-1.31.08-2.67.38-3.84-.4-4.09-2.72-7.37-6.79-13.24-6.45l.36-1.3Z"/><path class="cls-17" d="M256.05,302c-9,1.6-18.07.36-27.1.68.6-1.47,1.83-1.7,3.22-1.71,7.54-.07,15.08-.18,22.62-.25C255.55,300.68,255.87,301.3,256.05,302Z"/><path class="cls-18" d="M295,496.77c8.32.19,16.58,2.09,24.95.93-1.9,2-4.39,1-6.59,1.19-5.88.44-11.54,2.53-17.74.75C291.94,498.57,294.38,497.88,295,496.77Z"/><path class="cls-19" d="M360,264.1l-7-4.87c.32-1.46.63-3.3,2.6-2.75,2.42.68,5.13,1.06,6.44,3.87C363.05,262.69,360.83,263,360,264.1Z"/><path class="cls-20" d="M287,376.1l12.42,5.66c-2.86,2.54-7.1,1.69-9.21-1.84-.61-1-1.29-2.06-2.7-1.39-.76.37-1.53,1-2-.15S286.45,376.83,287,376.1Z"/><path class="cls-21" d="M379,185.15a12.17,12.17,0,0,1,6.21,2.75c-7.37,3-7.72,2.91-10.27-1.3Z"/><path class="cls-22" d="M254.72,325.91c.1.68.21,1.36.31,2-.39.39-.43,2.12-.71,1.3-1-3.06-3.32-2.12-5.29-2.32a84.6,84.6,0,0,1-20,0c5-2.09,10.15-.56,15.22-.92C247.73,325.76,251.23,325.93,254.72,325.91Z"/><path class="cls-23" d="M497.89,304.24q-.94-7.15-1.87-14.31c2-2.05,3.09-1.63,2.93,1.21C498.69,295.51,498.25,299.88,497.89,304.24Z"/><path class="cls-24" d="M318.78,144.75v25.72h-.48V144.55Z"/><path class="cls-25" d="M215,464.87a10.45,10.45,0,0,1,5.84,4l-.81.54c-1.44,1-3.42,3-4.53,1.26C214.76,469.47,213.24,466.94,215,464.87Z"/><path class="cls-26" d="M408.41,301.56H383.92V301h24.41Z"/><path class="cls-27" d="M330,252.06a37.83,37.83,0,0,1-17.95,0A47.13,47.13,0,0,1,330,252.06Z"/><path class="cls-20" d="M277,369a27.81,27.81,0,0,1,7.83,5.92c-4.25,3.61-5.3-2.56-8.49-2.9C274.49,371.82,276.84,370.09,277,369Z"/><path class="cls-28" d="M228.14,323.92c-.41-.25-1.16-.49-1.16-.74-.13-6.6-.18-13.19-.21-19.79,0-.21.4-.58.63-.59s.54.3.82.46A119.78,119.78,0,0,1,228.14,323.92Z"/><path class="cls-29" d="M331,384.9c.83-.16,1.72-.57,2.16.62-6.33,2.86-13,.78-19.46,1.19-.47,0-.05-.66.39-.77a6.51,6.51,0,0,1,1-.09c3.63-1.43,7.4-1.05,11.14-.75C327.86,385.23,329.46,385.76,331,384.9Z"/><path class="cls-30" d="M228.14,323.92a173.66,173.66,0,0,0,.08-20.66,3,3,0,0,1,.91-.15l-.06,21.67Z"/><path class="cls-31" d="M296,348.87c-1.58-1.46-3.26-2.85-4.12-4.92,2.61-2.58,4.38.24,5.74,1.41C299.84,347.22,296.55,347.63,296,348.87Z"/><path class="cls-32" d="M229,326.92h20A41.35,41.35,0,0,1,229,326.92Z"/><path class="cls-19" d="M366.88,270.26,361,265C367.13,264.18,367.13,264.18,366.88,270.26Z"/><path class="cls-18" d="M272,491.94l6.49,1.76c-1.84.68-3.44,1.9-5.72,1.45-1.14-.24-2.52,0-2.83-1.26S272.34,493.71,272,491.94Z"/><path class="cls-33" d="M331,384.9c-5.21,2-10.62.5-15.92,1A6,6,0,0,1,315,385l2.07-.29a31.5,31.5,0,0,1,9.93,0Z"/><path class="cls-23" d="M498,319.91q0-7.5,0-15A23.25,23.25,0,0,1,498,319.91Z"/><path class="cls-23" d="M493.88,279a4,4,0,0,1-.82-3c1.56-1.09,0-2.71,1.12-5.09C494.24,274.3,498,276.56,493.88,279Z"/><path class="cls-25" d="M210.06,460.81a4.27,4.27,0,0,1,2.65,2.05c-1.8-.33-.2,3.56-2.53,2.19C208.34,464,209.44,462.25,210.06,460.81Z"/><path class="cls-16" d="M186.2,438.42l4,4.32C186.74,443.27,185.69,441.57,186.2,438.42Z"/><path class="cls-18" d="M290.73,498.07c-1.38,1.16-2.64.69-4.21.19C288.29,495.8,289.42,498.3,290.73,498.07Z"/><path class="cls-34" d="M328.44,172.07c2.86.24,5.87-.92,8.57.88C334.13,172.91,331.2,173.23,328.44,172.07Z"/><path class="cls-35" d="M319.9,467.24l-7.86-.49C314.75,465.57,317.41,465,319.9,467.24Z"/><path class="cls-21" d="M391.09,191.82c.12.87,1.11,2,0,2.56-1,.5-2-.46-2.09-1.37-.08-1.43,1.37-.85,2.17-1.12Z"/><path class="cls-34" d="M328.51,141.91l-8.34.11C322.93,140.66,325.72,141.18,328.51,141.91Z"/><path class="cls-14" d="M380,361.8c2.11,1.44,1.19,2.95,1.16,4.95C379.51,365,380.23,363.34,380,361.8Z"/><path class="cls-36" d="M309,466.72a14.74,14.74,0,0,1-7.21-.76C304.28,465.73,306.76,465.28,309,466.72Z"/><path class="cls-34" d="M340.61,143c-2.15-.64-4.66,1.55-6.59-.84C336.26,142,338.52,141.82,340.61,143Z"/><path class="cls-34" d="M322,172c1.35-.79,2.72-3.42,4,.06Z"/><path class="cls-35" d="M466.9,313.94c.13,2,.26,3.93.38,5.89C465.32,318,465.68,316,466.9,313.94Z"/><path class="cls-37" d="M143.89,348.25l.18-4.32a3.46,3.46,0,0,1-.08,5A.4.4,0,0,1,143.89,348.25Z"/><path class="cls-25" d="M224,470.94c.95-.33,1.46.3,2,.92-1,.27-1.78,1.31-2.94.56Z"/><path class="cls-18" d="M265.12,490.65c.07.7,1.37,1.11.59,1.91a1.69,1.69,0,0,1-1.6-.2c-.5-.94.48-1.24,1.07-1.66Z"/><path class="cls-16" d="M184,435.91c.59.66,1.19,1.32,1.78,2-.6.06-1.36.39-1.76.14C183.18,437.48,183.77,436.63,184,435.91Z"/><path class="cls-18" d="M279,493.78a6.71,6.71,0,0,1,4.24,1C281.89,494.26,279.91,496.46,279,493.78Z"/><path class="cls-38" d="M172.05,339.91l1-2,.16,1.75-.69,1.94Z"/><path class="cls-39" d="M287.17,298c4.95-14,16.92-22.25,32.41-22.29,14.69,0,26.61,7.75,31.06,20.35a10.2,10.2,0,0,1,.3,1.94c.13,3-1.43,4-4.3,4q-27.6-.06-55.22,0C288.58,302,287,301,287.17,298Z"/><path class="cls-40" d="M287.17,298c1,2.16,2.51,3.05,5,3q26.84-.17,53.66,0a5.07,5.07,0,0,0,5.07-3c1.79,3.41,1.24,4.85-3.09,4.82-20.41-.16-40.83,0-61.24,0a10.79,10.79,0,0,1-1.72-.36Z"/><path class="cls-41" d="M402,322.92c-1.87,1.61-4.14,1-6.23,1q-55.87.06-111.75,0c-.4-2.79,1.73-1.25,2.5-1.25Q344.29,322.72,402,322.92Z"/><path class="cls-42" d="M327,384.71h-9.93A13.27,13.27,0,0,1,327,384.71Z"/><path class="cls-43" d="M316.65,274.11h5.8l0,.46h-5.84Z"/><path class="cls-44" d="M294,495a17,17,0,0,1,2.52,0c.45.08.43.54,0,.62A2.24,2.24,0,0,1,294,495Z"/></g></g></svg>