<svg id="Layer_1" data-name="Layer 1" xmlns="http://www.w3.org/2000/svg" viewBox="0 0 577 576"><defs><style>.cls-1{fill:#1e1e1e;}.cls-2{fill:#fefefe;}.cls-3{fill:#303030;}.cls-4{fill:#2f2f2f;}.cls-5{fill:#8d8d8d;}.cls-6{fill:#6d6d6d;}.cls-7{fill:#818181;}.cls-8{fill:#999;}.cls-9{fill:#717171;}.cls-10{fill:#868686;}.cls-11{fill:#a0a0a0;}.cls-12{fill:#141414;}.cls-13{fill:#080808;}.cls-14{fill:#0a0a0a;}.cls-15{fill:#0f0f0f;}.cls-16{fill:#121212;}</style></defs><title>evmos12</title><path class="cls-1" d="M398,9.38h3c.59.65,1.39.47,2.14.51h1.72c.74,0,1.54.14,2.13-.51h5a57.66,57.66,0,0,0,17,0h5c.61.67,1.43.47,2.2.51.94-.1,2,.3,2.79-.51h3c10.53,1.15,21.12,1.53,31.58,3.55A295.75,295.75,0,0,1,558.84,43.2a292.33,292.33,0,0,1,63.47,46.44,282.07,282.07,0,0,1,49.93,64.54A286.05,286.05,0,0,1,707.6,259c.67,5.07.11,10.24,1.3,15.27v4c-.65.59-.47,1.39-.51,2.14v1.72c0,.74-.14,1.54.51,2.13v5a51.11,51.11,0,0,0,0,16v5c-.65.59-.47,1.39-.51,2.14v1.72c0,.74-.14,1.54.51,2.13v5c-1.51,7.15-1,14.49-2.24,21.69A289.27,289.27,0,0,1,560.14,550.6a283.36,283.36,0,0,1-101.88,33.28c-5.4.69-10.89.32-16.27,1.3h-2c-.59-.65-1.39-.47-2.14-.51h-1.72c-.74,0-1.54-.14-2.13.51h-6a51.11,51.11,0,0,0-16,0h-5c-.61-.67-1.43-.47-2.2-.51-.94.1-2-.3-2.79.51h-5c-9.34-1.3-18.78-1.59-28.1-3.3A296.34,296.34,0,0,1,305,562.54a288.57,288.57,0,0,1-75.64-47.87,289.51,289.51,0,0,1-96-179.13c-.62-4.74,0-9.59-1.29-14.27v-5c.65-.59.47-1.39.51-2.14v-1.72c0-.74.14-1.54-.51-2.13v-5a51.11,51.11,0,0,0,0-16v-5c.65-.59.47-1.39.51-2.14v-1.72c0-.74.14-1.54-.51-2.13v-5c1.47-6.49.86-13.18,1.9-19.73q12.5-77.92,62.11-139.28a285.55,285.55,0,0,1,96.2-76.42,279.39,279.39,0,0,1,90.92-27.27C388.14,10,393.13,10.36,398,9.38Z" transform="translate(-132 -9.28)"/><path class="cls-2" d="M708.9,274.29c-2.29-5-1.77-10.55-2.63-15.82Q680.11,98,531.73,31.75C504.53,19.59,475.64,13.2,446,10.42c-1.32-.12-3.05.77-4-1q131.46,0,262.92-.1c3.42,0,4.09.67,4.09,4.09Q708.82,143.84,708.9,274.29Z" transform="translate(-132 -9.28)"/><path class="cls-2" d="M442,585.18c5.77-2.09,11.9-1.83,17.86-2.69,110.12-15.86,199.61-90.22,234.55-195a296.58,296.58,0,0,0,13.31-62.78c.12-1.17-.6-2.77,1.19-3.41q0,130,.1,259.92c0,3.42-.67,4.09-4.09,4.09Q573.45,585.1,442,585.18Z" transform="translate(-132 -9.28)"/><path class="cls-2" d="M398,9.38c-5.37,2.41-11.24,1.85-16.85,2.66C259.83,29.55,165.4,117,138.49,236.88a305.7,305.7,0,0,0-5.23,33.5c-.11,1,.46,2.44-1.16,2.91q0-130-.1-259.92c0-3.42.67-4.09,4.09-4.09Q267.06,9.46,398,9.38Z" transform="translate(-132 -9.28)"/><path class="cls-2" d="M132.1,321.27c2.19,2.25,1.47,5.25,1.75,7.87C147,452.3,241.16,555.34,362.5,579.3c10.46,2.07,21,3.58,31.56,4.76,1,.11,2.43-.45,2.95,1.12H132.1Z" transform="translate(-132 -9.28)"/><path class="cls-3" d="M429,9.38a30.7,30.7,0,0,1-17,0Z" transform="translate(-132 -9.28)"/><path class="cls-3" d="M412,585.18a26.87,26.87,0,0,1,16,0Z" transform="translate(-132 -9.28)"/><path class="cls-4" d="M708.9,305.28a26.94,26.94,0,0,1,0-16Z" transform="translate(-132 -9.28)"/><path class="cls-4" d="M132.1,289.28a26.94,26.94,0,0,1,0,16Z" transform="translate(-132 -9.28)"/><path class="cls-5" d="M402,585.18c.61-1.59,1.88-.81,2.94-.81.36.15.49.33.39.52s-.22.29-.33.29Z" transform="translate(-132 -9.28)"/><path class="cls-5" d="M439,9.38c-.61,1.59-1.88.81-2.94.81-.36-.15-.49-.33-.39-.52s.22-.29.33-.29Z" transform="translate(-132 -9.28)"/><path class="cls-6" d="M708.9,284.28c-.94-.4-1-1.18-.84-2,.3-.39.58-.4.84.05Z" transform="translate(-132 -9.28)"/><path class="cls-6" d="M132.94,282.24c.15.86.1,1.64-.84,2v-2C132.36,281.84,132.64,281.85,132.94,282.24Z" transform="translate(-132 -9.28)"/><path class="cls-6" d="M132.1,310.28c.94.4,1,1.18.84,2-.3.41-.58.38-.84,0Z" transform="translate(-132 -9.28)"/><path class="cls-6" d="M708.06,312.32c-.15-.86-.1-1.64.84-2v2C708.64,312.72,708.36,312.71,708.06,312.32Z" transform="translate(-132 -9.28)"/><path class="cls-7" d="M132.1,312.28l.84,0c0,.66,0,1.33,0,2-.3.41-.58.39-.83,0Z" transform="translate(-132 -9.28)"/><path class="cls-7" d="M708.06,312.32l.84,0v2c-.25.44-.53.45-.83,0C708.07,313.65,708.06,313,708.06,312.32Z" transform="translate(-132 -9.28)"/><path class="cls-8" d="M132.1,314.27c.27,0,.55,0,.83,0,.13.83.38,1.71-.83,2Z" transform="translate(-132 -9.28)"/><path class="cls-8" d="M708.07,314.31a7.56,7.56,0,0,0,.83,0v2C707.69,316,707.94,315.14,708.07,314.31Z" transform="translate(-132 -9.28)"/><path class="cls-7" d="M708.9,282.29l-.84-.05c0-.66,0-1.33,0-2,.3-.41.58-.4.83,0Z" transform="translate(-132 -9.28)"/><path class="cls-7" d="M132.94,282.24c-.28,0-.56,0-.84.05v-2c.25-.43.53-.45.83,0Z" transform="translate(-132 -9.28)"/><path class="cls-8" d="M708.9,280.29c-.27,0-.55,0-.83,0-.13-.83-.38-1.71.83-2Z" transform="translate(-132 -9.28)"/><path class="cls-8" d="M132.93,280.25a7.56,7.56,0,0,0-.83,0v-2C133.31,278.54,133.06,279.42,132.93,280.25Z" transform="translate(-132 -9.28)"/><path class="cls-9" d="M436,9.38l.06.81c-.86.19-1.64.15-2.05-.81Z" transform="translate(-132 -9.28)"/><path class="cls-9" d="M407,9.38c-.4.95-1.18,1-2,.83q-.43-.3-.27-.57c.1-.18.21-.26.32-.26Z" transform="translate(-132 -9.28)"/><path class="cls-10" d="M405,9.38c0,.28,0,.56-.05.83h-2c-.3-.21-.39-.4-.28-.58s.21-.26.32-.26Z" transform="translate(-132 -9.28)"/><path class="cls-9" d="M405,585.18l-.06-.81c.86-.19,1.64-.15,2.05.81Z" transform="translate(-132 -9.28)"/><path class="cls-11" d="M403,9.38c0,.28,0,.56,0,.84-.83.13-1.72.39-2-.84Z" transform="translate(-132 -9.28)"/><path class="cls-9" d="M434,585.18c.4-.95,1.18-1,2-.83q.43.3.27.57c-.1.18-.21.26-.32.26Z" transform="translate(-132 -9.28)"/><path class="cls-10" d="M436,585.18c0-.28,0-.56.05-.83h2c.3.21.39.4.28.58s-.21.26-.32.26Z" transform="translate(-132 -9.28)"/><path class="cls-11" d="M438,585.18c0-.28,0-.56,0-.84.83-.13,1.72-.39,2,.84Z" transform="translate(-132 -9.28)"/><path class="cls-2" d="M499.92,319.29l-.23.28.18.33c-1.46,1.74-3.42.8-5.11.81q-54.06.09-108.12.06c-1.81,0-3.65-.27-5.44.27-1.13.75-1.17,1.94-1.16,3.11.11,24.11-.36,48.21.23,72.32a7.44,7.44,0,0,0,.75,1.68c1.83.06,3.65.17,5.48.17q60.48,0,121-.06c3.25,0,4.64.45,4.56,4.22-.26,13-.21,26,0,39,0,3.2-.94,3.83-3.93,3.83q-87.72-.14-175.43,0c-3.33,0-3.7-1.19-3.7-4q.1-144.18,0-288.38c0-3.48,1.16-4,4.24-4q87.21.12,174.43,0c3.4,0,4.49.72,4.43,4.31-.24,12.82-.07,25.65-.13,38.48,0,1.52.85,3.41-1.13,4.49-1.14,1-2.54.6-3.82.6q-61.77,0-123.54,0c-1.13,0-2.33.27-3.38-.48-1.58,1.09-.73,2.72-.73,4.05-.07,23.14.07,46.28-.16,69.42,0,4,1.28,4.49,4.79,4.48,36.79-.13,73.58,0,110.37-.18,4,0,5.29.79,5.26,5.07-.08,13.12-.67,26.26.29,39.37.37.13.5.29.41.47S500,319.29,499.92,319.29Z" transform="translate(-132 -9.28)"/><path class="cls-12" d="M381,398.15l-1-.13c-.73-1-.48-2.25-.48-3.4q0-35.46,0-70.93c0-1.14-.24-2.34.47-3.39,1.81-.13,3.62-.36,5.43-.36q57.21,0,114.43,0c-1.32,2.34-3.57,1.33-5.4,1.34-35.78.06-71.57.13-107.35-.06-4.65,0-6.27,1-6.21,5.95.28,21.3.23,42.61,0,63.91,0,4.18,1.21,5.31,5.33,5.29,39.78-.14,79.56-.09,119.34-.06,1.77,0,3.62-.47,5.46.48-1.85.93-3.71.47-5.49.47q-59.41,0-118.83.06C384.83,397.28,382.73,396.57,381,398.15Z" transform="translate(-132 -9.28)"/><path class="cls-13" d="M380,196.31A26.68,26.68,0,0,1,383,196q62.66,0,125.32,0c.82,0,1.65.13,2.48.2-.78,2.68-2.91,1-4.21,1q-59.46.17-118.92.09c-6.59,0-6.59,0-6.59,6.35,0,21.15.11,42.3-.1,63.45,0,4.24,1.3,5.27,5.38,5.25,35.47-.14,70.95-.08,106.43-.08h5.45c-1.59,1.49-3,.9-4.25.9-36.14,0-72.29-.05-108.43.14-4.46,0-5.55-1.19-5.51-5.57C380.19,244,380,220.13,380,196.31Z" transform="translate(-132 -9.28)"/><path class="cls-14" d="M327.87,150.64V443.9h-.48V150.45Z" transform="translate(-132 -9.28)"/><path class="cls-15" d="M510.63,447.09H330.36v-.49H510.84Z" transform="translate(-132 -9.28)"/><path d="M510.63,148.05H330.36v-.41H510.84Z" transform="translate(-132 -9.28)"/><path class="cls-16" d="M513.74,399.44v44.7h-.49v-44.6Z" transform="translate(-132 -9.28)"/><path class="cls-16" d="M513.83,150.65V194h-.49V150.46Z" transform="translate(-132 -9.28)"/><path d="M499.92,319.29a.52.52,0,0,1-.09-.77V275.35h1.08q0,21.15,0,42.29C500.86,318.19,500.25,318.74,499.92,319.29Z" transform="translate(-132 -9.28)"/><path class="cls-12" d="M380,320.3q0,38.85,0,77.72c-1.24-.58-.74-1.7-.74-2.59q0-36.29,0-72.58C379.28,322,378.7,320.84,380,320.3Z" transform="translate(-132 -9.28)"/></svg>