<svg id="Layer_1" data-name="Layer 1" xmlns="http://www.w3.org/2000/svg" viewBox="0 0 225 225"><defs><style>.cls-1{fill:#5ccef8;}</style></defs><title>ixo</title><path d="M557,415.28H284.05q0-116.85-.05-233.7c0-1.88.42-2.3,2.3-2.3q134.2.08,268.4,0c1.88,0,2.3.42,2.3,2.3Q556.93,298.43,557,415.28Z" transform="translate(-284 -179.28)"/><path class="cls-1" d="M370.27,357.34c-3.92,0-7.83-.06-11.74,0-2.24.05-3.3-1-3.31-3.12q0-12.57.11-25.15a6.05,6.05,0,0,1,2.12-4.13l24.22-24.15c3.22-3.21,3.22-4.17,0-7.35-7.41-7.31-14.75-14.7-22.26-21.9a12.75,12.75,0,0,1-4.26-10.39c.25-6.49.06-13,0-19.49,0-4,.63-4.56,4.66-4.54,5.56,0,11.09.21,16.67-.64,6.26-1,11.35,2.27,15.51,6.56,6.67,6.87,13.26,13.82,20.09,20.54,3.24,3.19,3.54,3.21,6.8-.07,7.63-7.68,15.29-15.33,22.88-23.06a9.8,9.8,0,0,1,7.45-3.34c7.66.09,15.32,0,23,0,2.74,0,3.54.84,3.56,3.66.05,7.83,0,15.66,0,23.49a7.22,7.22,0,0,1-2.43,5.28Q462,280.93,450.55,292.31c-.65.64-1.32,1.27-2,1.93-2.3,2.4-2.32,3.53,0,5.87,7.79,7.76,15.55,15.56,23.45,23.2a11.48,11.48,0,0,1,3.77,9.33c-.32,6.74-.16,13.49,0,20.24.07,3.81-.73,4.54-4.48,4.53-7.33,0-14.66-.09-22,0a8.56,8.56,0,0,1-6.65-2.76c-7.83-7.95-15.72-15.84-23.58-23.76-3.23-3.24-4-3.24-7.27.08-7.26,7.34-14.6,14.61-21.74,22.07-3,3.11-6.21,4.77-10.59,4.37-3.06-.28-6.16-.06-9.24-.06Z" transform="translate(-302 -182.28)"/></svg>