<svg id="Layer_1" data-name="Layer 1" xmlns="http://www.w3.org/2000/svg" viewBox="0 0 507.39 495.12"><defs><style>.cls-1{fill:#030202;}.cls-2{fill:#eb7f7a;}</style></defs><title>juno-3</title><path class="cls-1" d="M420.68,544.65C319,540.15,241.18,496.27,192.9,404.93c-20.77-39.29-28.07-81.85-24.87-126.18,6.82-94.34,69-175.69,157-210.7,102.34-40.72,218-12.94,290.3,70.06a236.51,236.51,0,0,1,57,124.86c16.91,120.45-56.45,228-164,266.32A267.57,267.57,0,0,1,420.68,544.65ZM183.34,287.79c.26,49,9,85,27.21,118.6,48.77,90.22,149.86,138.45,252.06,120.8,56.57-9.76,104.32-36.26,141.21-80.33,49.41-59,65.92-126.88,48.33-201.84C629.22,147.3,541.82,73.36,435.45,67.2c-46.6-2.7-90.91,6.48-131.44,29.86C226.58,141.72,186.74,209.36,183.34,287.79Z" transform="translate(-167.31 -49.53)"/><path class="cls-2" d="M183.34,287.79c3.4-78.43,43.24-146.07,120.67-190.73C344.54,73.68,388.85,64.5,435.45,67.2,541.82,73.36,629.22,147.3,652.15,245c17.59,75,1.08,142.82-48.33,201.84-36.89,44.07-84.64,70.57-141.21,80.33-102.2,17.65-203.29-30.58-252.06-120.8C192.38,372.79,183.6,336.76,183.34,287.79Zm11.22-.94c0,43.91,7.1,75.52,20.81,104.35,41.62,87.59,136.4,139.8,237,126.33,45.35-6.08,86-23.61,119.85-54.51,65.48-59.87,89.41-133.79,67.74-220.13-22.54-89.8-104.11-158-203.36-164.43-48.84-3.18-94.77,7.32-136.23,33.62C232.12,155.39,197.15,218.06,194.56,286.85Z" transform="translate(-167.31 -49.53)"/><path d="M194.56,286.85c2.59-68.79,37.56-131.46,105.82-174.77,41.46-26.3,87.39-36.8,136.23-33.62C535.86,84.91,617.43,153.09,640,242.89c21.67,86.34-2.26,160.26-67.74,220.13-33.8,30.9-74.5,48.43-119.85,54.51C351.77,531,257,478.79,215.37,391.2,201.66,362.37,194.57,330.76,194.56,286.85Zm248.34-8.57c15.66,0,30.41.05,45.15,0,6.18,0,10.16-3.8,10-9.2s-3.93-8.65-10.05-8.66c-13.88,0-27.75,0-41.63-.07-.9,0-1.8-.15-3.22-.28,10.26-10.89,20.14-21.31,30-31.79,4.13-4.41,4.2-10,.31-13.7-3.69-3.46-8.56-2.88-12.79,1.59q-13.51,14.29-27,28.64c-.7.74-1.51,1.37-2.69,2.44v-4.76c0-11.87.05-23.75-.07-35.62,0-4.71-3.15-8.15-7.26-8.61a8.31,8.31,0,0,0-9.11,6.13,17.89,17.89,0,0,0-.34,4.46c0,11.88,0,23.75,0,35.63,0,.88-.15,1.76-.28,3.17l-2.72-2.87c-9.29-9.8-18.54-19.63-27.89-29.37-3.48-3.62-7.91-3.93-11.41-1.1a9.06,9.06,0,0,0-1.74,12.14,30.06,30.06,0,0,0,3.19,3.68q12.63,13.33,25.29,26.66c.88.93,1.72,1.9,3.18,3.51h-4.59c-13.63,0-27.25.05-40.88,0-3.86,0-6.86,1.24-8.67,4.71-3.22,6.18,1,13,8.21,13.05,13.87.13,27.75.09,41.62.11h4.76c-1.29,1.39-1.92,2.09-2.57,2.78-9.26,9.82-18.56,19.61-27.76,29.48-4.24,4.55-4.35,9.94-.48,13.67s8.44,3.17,13-1.66q13.53-14.29,27-28.62c.71-.76,1.53-1.41,2.52-2.32V377.2c-5.54,0-10.89,0-16.24,0-3.22,0-5.91,1-7.71,3.75a8.93,8.93,0,0,0-.59,9.25,8.05,8.05,0,0,0,7.83,4.78c5.57,0,11.15,0,16.9,0,0,6.23-.1,11.85.06,17.46a14.14,14.14,0,0,0,1.28,5.72,7.76,7.76,0,0,0,8.85,4,8.31,8.31,0,0,0,6.51-8.13c.16-6.2,0-12.41,0-19,5.68,0,10.9.07,16.11,0,4.53-.08,7.53-2.4,8.58-6.38,1.58-6-2.13-11.13-8.4-11.37-5.31-.2-10.64,0-16,0V290.8c1.66,1.91,2.66,3.17,3.76,4.33q13.26,14,26.58,28c3.66,3.82,8.1,4.16,11.67,1.14a9,9,0,0,0,1.31-12.46,41.5,41.5,0,0,0-3.49-3.91C461.83,298.25,452.66,288.59,442.9,278.28Z" transform="translate(-167.31 -49.53)"/></svg>