<svg id="Layer_1" data-name="Layer 1" xmlns="http://www.w3.org/2000/svg" viewBox="0 0 63.48 62.87"><defs><style>.cls-1{fill:#7dc9fe;}.cls-2{fill:#fdfefe;}.cls-3{fill:#85ccfe;}.cls-4{fill:#8ed1fe;}.cls-5{fill:#3ba2fe;}.cls-6{fill:#2d75fe;}.cls-7{fill:#3ea3fe;}</style></defs><title>umee2</title><path class="cls-1" d="M348.11,275.41c-2.64-1.54-5.51-.73-8.29-.8a2.2,2.2,0,0,0-2.53,2.4c.21,8.58-.73,17.19.52,25.76.8,5.48,4.11,9.23,8.39,12.34.25,5.25-3.33,8.07-6.92,10.88-4.25,2.29-8.46,4.67-13.08,6.19h-4c-1.08-10.13-.19-20.29-.48-30.43-.29-5.14.6-10.32-.52-15.44v-2q3.48-17.47,21-20.94h6V274.6a.48.48,0,0,1,.17.55C348.25,275.32,348.18,275.41,348.11,275.41Z" transform="translate(-321 -263.32)"/><path class="cls-2" d="M342.18,263.38c-10.37,3.61-17.28,10.66-21,20.94,0-6.32.09-12.64,0-18.95,0-1.73.31-2.09,2-2.05C329.53,263.46,335.85,263.38,342.18,263.38Z" transform="translate(-321 -263.32)"/><path class="cls-3" d="M322.2,301.26v30.92c-2,.15-.94-1.37-.95-2-.07-9.64-.05-19.28-.05-28.91C321.54,300.8,321.87,300.82,322.2,301.26Z" transform="translate(-321 -263.32)"/><path class="cls-4" d="M322.2,301.26h-1v-15C323.41,291.17,321.64,296.29,322.2,301.26Z" transform="translate(-321 -263.32)"/><path class="cls-5" d="M348.11,275.41a1.08,1.08,0,0,0,.05-.81,32.94,32.94,0,0,1,12.57-5.67c2.27-.44,3.43-.36,3.4,2.37-.1,9.28.11,18.56-.13,27.82-.14,5.4-3.28,8.21-8.09,8.06s-7.7-3.08-7.78-8.42C348,291,348.1,283.19,348.11,275.41Z" transform="translate(-321 -263.32)"/><path class="cls-6" d="M370.19,311.88c6.09-7.56,4.45-16.38,4.73-24.88.06-1.89-.8-4.16,1.43-5.42s4.63-2.88,7-1.88c2,.86.82,3.56.88,5.42.14,4.14.18,8.3,0,12.43C383.79,305.32,378.23,311,370.19,311.88Z" transform="translate(-321 -263.32)"/><path class="cls-7" d="M339.28,326c2.08-3.77,5.66-6.59,6.92-10.88,3.66,1,7.18,2.65,11.3,1.93C354.54,322.18,347.54,325.54,339.28,326Z" transform="translate(-321 -263.32)"/></svg>