<svg id="Layer_1" data-name="Layer 1" xmlns="http://www.w3.org/2000/svg" viewBox="0 0 387.73 300.32"><defs><style>.cls-1{fill:#9aa0ad;}.cls-2{fill:#f6ad32;}.cls-3{fill:#f8aa30;}.cls-4{fill:#f6a730;}.cls-5{fill:#f6c738;}.cls-6{fill:#f9ad30;}.cls-7{fill:#f5b233;}.cls-8{fill:#f6c036;}.cls-9{fill:#f5b734;}.cls-10{fill:#f6bc35;}.cls-11{fill:#fcb030;}.cls-12{fill:#f6b834;}.cls-13{fill:#d29935;}.cls-14{fill:#faaf31;}.cls-15{fill:#050505;}.cls-16{fill:#f6d03b;}.cls-17{fill:#f9c746;}.cls-18{fill:#d49634;}.cls-19{fill:#fbb033;}.cls-20{fill:#fbb031;}.cls-21{fill:#999fab;}.cls-22{fill:#f6aa32;}.cls-23{fill:#f6bd37;}.cls-24{fill:#080808;}.cls-25{fill:#f6ce3e;}.cls-26{fill:#e6a434;}.cls-27{fill:#d79435;}.cls-28{fill:#f9ad32;}.cls-29{fill:#db9235;}.cls-30{fill:#f9ad33;}.cls-31{fill:#fbae34;}.cls-32{fill:#161516;}.cls-33{fill:#f6c038;}.cls-34{fill:#f8ae33;}.cls-35{fill:#f8ab32;}.cls-36{fill:#111010;}.cls-37{fill:#f6ba36;}.cls-38{fill:#eba736;}.cls-39{fill:#f8ad33;}.cls-40{fill:#f6b539;}.cls-41{fill:#f5c73c;}.cls-42{fill:#f6aa33;}.cls-43{fill:#f7ba3d;}.cls-44{fill:#f8c143;}.cls-45{fill:#facf4f;}.cls-46{fill:#f3b738;}.cls-47{fill:#f9af34;}.cls-48{fill:#efab37;}.cls-49{fill:#e0a945;}.cls-50{fill:#f7c847;}.cls-51{fill:#f5b939;}.cls-52{fill:#f5b336;}.cls-53{fill:#f6b53c;}.cls-54{fill:#f6b639;}.cls-55{fill:#f7ac39;}.cls-56{fill:#e5a34a;}.cls-57{fill:#222121;}.cls-58{fill:#f6c43e;}.cls-59{fill:#f8cf56;}.cls-60{fill:#1b1b1b;}.cls-61{fill:#1a1919;}.cls-62{fill:#f6cc3f;}.cls-63{fill:#f8c446;}.cls-64{fill:#f9c245;}.cls-65{fill:#262626;}.cls-66{fill:#f2d7a7;}.cls-67{fill:#fcb43a;}.cls-68{fill:#0d0d0d;}.cls-69{fill:#f9b03b;}.cls-70{fill:#fad980;}.cls-71{fill:#9a9fac;}.cls-72{fill:#8f8d8d;}.cls-73{fill:#f8c652;}.cls-74{fill:#9b9a9a;}.cls-75{fill:#f7ce48;}.cls-76{fill:#323232;}.cls-77{fill:#959ba7;}.cls-78{fill:#f9f9f9;}.cls-79{fill:#f1f1f1;}.cls-80{fill:#f0efef;}.cls-81{fill:#495c6c;}.cls-82{fill:#f4f3f3;}.cls-83{fill:#8f95a0;}.cls-84{fill:#8d939e;}.cls-85{fill:#8c929c;}.cls-86{fill:#e0e0e0;}.cls-87{fill:#8e939e;}.cls-88{fill:#101010;}.cls-89{fill:#455664;}.cls-90{fill:#7c818a;}.cls-91{fill:#c6c5c5;}.cls-92{fill:#212223;}.cls-93{fill:#0f0f0f;}.cls-94{fill:#b6b5b5;}.cls-95{fill:#1e1e1e;}.cls-96{fill:#0f1012;}.cls-97{fill:#8d939d;}.cls-98{fill:#2a2a2d;}.cls-99{fill:#e9e9e9;}.cls-100{fill:#b9b8b8;}.cls-101{fill:#2c2d2f;}.cls-102{fill:#898d97;}.cls-103{fill:#757980;}.cls-104{fill:#474646;}.cls-105{fill:#bdbdbd;}.cls-106{fill:#bfbebd;}.cls-107{fill:#ebebeb;}.cls-108{fill:#c7c6c6;}.cls-109{fill:#57585e;}.cls-110{fill:#222324;}.cls-111{fill:#2b2c2e;}.cls-112{fill:#f5f5f5;}.cls-113{fill:#495c6b;}.cls-114{fill:#9095a1;}.cls-115{fill:#8c919b;}.cls-116{fill:#8a8f99;}.cls-117{fill:#dbdbdb;}.cls-118{fill:#f3f2f3;}.cls-119{fill:#f6aa31;}.cls-120{fill:#f7a831;}.cls-121{fill:#f6a630;}.cls-122{fill:#f6bf36;}.cls-123{fill:#f6ca39;}.cls-124{fill:#f6af32;}.cls-125{fill:#f5a831;}.cls-126{fill:#f6a831;}.cls-127{fill:#f8ba3b;}.cls-128{fill:#f7b036;}.cls-129{fill:#f9a930;}.cls-130{fill:#f6b935;}.cls-131{fill:#f6c838;}.cls-132{fill:#f7b034;}.cls-133{fill:#f7aa35;}.cls-134{fill:#f6a731;}.cls-135{fill:#f7ad34;}.cls-136{fill:#f6ae32;}.cls-137{fill:#f5bb35;}.cls-138{fill:#f9aa30;}.cls-139{fill:#f7a731;}.cls-140{fill:#f4b234;}.cls-141{fill:#f4ae34;}.cls-142{fill:#f6ce39;}.cls-143{fill:#eaeaea;}.cls-144{fill:#f6b534;}.cls-145{fill:#f7ae32;}.cls-146{fill:#f6c938;}.cls-147{fill:#f6c637;}.cls-148{fill:#f6ae35;}.cls-149{fill:#f6c537;}.cls-150{fill:#505256;}.cls-151{fill:#989898;}.cls-152{fill:#f7b136;}.cls-153{fill:#f8b739;}.cls-154{fill:#f8bb3b;}.cls-155{fill:#f8bf3d;}.cls-156{fill:#f7a030;}</style></defs><title>cerberus2</title><path d="M342.14,201.29a138.08,138.08,0,0,1,24.3,11.26c3.59,2.08,6.9,2.6,10.67.51a19.76,19.76,0,0,1,5.69-1.71c5.71-1.18,11.75-.43,17.13-3.8,2.32-1.46,5.62-1,8.29.06,8.85,3.42,17.48,7.31,24.72,13.67,5,4.35,6,4.22,9.17-1.64,1.74-3.2,3.15-6.59,4.73-9.88.52-1.07-.1-3.11,1.79-3,1.42.07,1.9,1.75,2.42,2.94,2.32,5.36,3.53,11.06,4.82,16.72,1.34,5.89,1.64,6.17,6.88,3.06,3.12-1.85,6-4.15,9-6.25,1.72-1.7,3.43-3.54,5.3-.16.14-.91-.5-1.83-.18-2.79-.19-3.49-.39-7-.56-10.45-.06-1.2.05-2.56,1.16-3.1,1.54-.76,2.38.63,3.22,1.64a57.82,57.82,0,0,0,14,11.88c3.1,1.94,5.36,2.52,5.35-2.4a16,16,0,0,1,.82-3.28c5.76,3.63,12,5.16,18.1,7,5.22,1.6,10,4.21,12.48,9.27,3.29,6.63,8.65,9.73,15.75,10.44a20.25,20.25,0,0,1,13.36,6.95c6.57,7.26,15.71,9.57,24.57,12.42,2.15.69,5.82.21,3.23,4.75-1.26,2.21,1.7,2.89,3.31,3.29,5.47,1.35,11,2.38,16.51,3.67,7.12,1.67,12.28,5.55,14.5,12.87,1,3.45.68,6.29-2.43,8.31-4,2.6-6.46,6.28-9,10.34a55.16,55.16,0,0,1-19.15,18.43c-1.77.39-3.32,1.51-5.18,1.61a2.32,2.32,0,0,1-1.14-.64c-.13-1.94,2-2.67,2.35-4.32.27-.53.59-1,.84-1.56-1.49-2.44-4-1.52-6.15-2A12.57,12.57,0,0,1,574,310.7a26.7,26.7,0,0,0-6.48-6c0-.55-1,.75-.45.31,1.38,5-3,7-5.2,10.2a8.47,8.47,0,0,1-2.36,1.79,16.8,16.8,0,0,1-4.9.23c-6.74-.32-7.4.65-4.64,7l0,0c.64,1.3,1,2.63,2.41,3.6,1.77,1.25,1.33,3.14.33,4.85a6.48,6.48,0,0,1-2.82,1.22c-2.61.24-4.1-1.65-5.85-3.05-3.53-3.73-1.25-9.08-3.92-13.15.25,4.46-.08,8.91.72,13.33a5.53,5.53,0,0,1-1,3.37c-.29.57-.79,1.14-.59,1.82,1.15,3.8,11.44,11.83,15.22,11.87,2.4,0,3.11-1.38,2.9-3.55-6.14.77-7.93-1.08-6.21-6.36,1.28-2,3.25-.4,4.82-.91,2-1.74,3.43-5.74,6.13-4.59,2.34,1,1.77,5,1.83,7.73.25,12.47-4.86,18.94-17.54,21.55-5.35,1.09-10.89,1.29-16.34,2-2.66.33-3.63-.72-4.34-3.35-2.12-7.86-6.83-14.32-12-20.53-1.9-2.31-3.05-1.72-4.4.35-2.73,4.18-5.51,8.32-8.26,12.48-15.53,23.54-36.6,38.89-65,42.76A99.55,99.55,0,0,1,387,390.11c-4-1.49-5.14-3.09-3.52-7.59,6.44-17.82,12.41-35.82,15.05-54.69a50.34,50.34,0,0,0,.22-8.94c0-1.22-.24-2.91-1.59-3.4-1.56-.57-2.84.56-4,1.6-3.34,3.12-3.84,7.24-3.9,11.46-.16,10.64-.53,11-11.2,10.34a13.55,13.55,0,0,0-1.43.08c-.79,1.3.42,2.2.5,3.3.18,2.27-.43,3.3-2.75,2.06-1.76-.94-3.5-1.92-5.19-3-4.8-3-4.79-3-5.4,2.62-12.46-4.93-22.8-21.81-20.57-34.65,1.07-6.15,5.29-11.39,6.26-17.75A92.26,92.26,0,0,1,352,281.42c.34-1.24.61-2.8,2.06-3.2,1.84-.51,2.47,1.25,3.45,2.3s1.2,2.81,3,3.28c1.52-1.8.84-4.35,2.72-7.93,1.33,2.65,2.31,4.58,3.76,7.45a38.76,38.76,0,0,0,2.21-11.61c.27-3.85.52-7.84-5.47-6.58a2.15,2.15,0,0,1-1.38-.24c-.28-3.18-1.84-5.09-5.13-5.39.54-5.45-3.66-4.28-6.67-4.75a3.51,3.51,0,0,1-2.46-1.52c-2.34-.82-1.17,1.55-2,2.15-.28,3.44-.11,7-2,10.79-4.39-3.73-5.25-9.59-8.95-13.42-2.12.43-1,3.88-3.39,3.58-1.93-.25-2.8-2.17-4-3.55-3.54-4.23-5.57-9-4.87-14.63a6.83,6.83,0,0,0-1.69-5.83c-2.39-2.83-.78-6.45.33-9.47,1.81-4.95,4.15-9.71,6.27-14.55a34.74,34.74,0,0,1,3.07-5l0,0a1.4,1.4,0,0,1,2.33.47,4.51,4.51,0,0,1-.54,2.62c.24.47-1.28.93,0,1.38,2.09-2.6,5.59-3.4,7.53-6.13C340.87,201.24,341.41,200.74,342.14,201.29Z" transform="translate(-235.44 -145)"/><path d="M351.74,352.34c-3.76-5.24-3.8-5.27-7.82-.41-4.9,5.92-9.22,12.18-11.14,19.76-.53,2.08-1.47,3-3.76,2.93a72.64,72.64,0,0,1-21.1-3.12c-8.89-2.88-12.59-7.81-13-17.27a54.83,54.83,0,0,1,.56-9.91c.29-2.15,1.47-2.52,2.73-.43,2.25,1.88,3.54,4.83,7.53,4.52,1.82-.15,1.46,2.85,1.28,4.64-1.07,3.18-3.26,3.22-6.16,1.4.69,4.37,2.76,4.93,5.77,3.58a31.89,31.89,0,0,0,9.83-7.39c1.25-1.31,2.63-2.5,4-3.69.49-.46,1.18-1.2.9-1.66-3.24-5.21-.94-11-1.66-16.38-.31-1.42-1-1.6-1.85-.43s-.69,2.8-.76,4.28c-.2,4.34-1.07,8.45-4.42,11.61-3.13,2.48-5-.43-6.49-2.08-1-1.12-1.82-3.76,1.26-4.52,1.85-.61,1.52-2.52,1.86-3.74,1.52-5.44.18-7-5.38-6.18-3,.46-5.2.26-6.65-2.7-.69-1.42-2.23-1.93-3.6-2.54-2.18-1.77-3.93-3.73-2.88-6.86,2.59-3.45,6.38-4.19,10.34-4.45,2.75-.18,5.53.15,8.24-.19.51.36-.24-.24.42-.15s.56-.19.24-.1c-2.88.8-5.82.22-8.73.4A16,16,0,0,0,289.75,316c-5.58,5.8-11.57,10.85-20.72,10.55,1.52,3.54,3.9,3.93,6.36,4.72-1.83-3.77-1.71-3.89,4.45-5,2.94-.14,1.83,2.46,2.57,3.81a21.16,21.16,0,0,1,6.43,5.34c-7.09,3.07-17.4,1.92-24.36-3.45-7.6-5.87-15.21-11.9-19.16-21.18-1.31-3.07-4.32-4.53-6.81-6.41-2.88-2.18-3.68-4.62-2.62-8.22,2.1-7.15,6.87-11.17,13.82-12.88,5.64-1.39,11.34-2.5,17-3.82,2.41-.57,4.79-1.43,3-4.68-1.31-2.38.65-2.45,1.93-2.89,3.77-1.28,7.59-2.4,11.35-3.71,6-2.1,11.63-5,15.8-10,4.87-5.83,12-5.91,18.5-7.52,1.77-.43,2.22,1.14,2.92,2.16,2.07,3,3.95,6.16,7,8.32.87,2.82-1.35,3.43-3,3.21-11.63-1.54-21.42,3.26-31.11,8.58-2.18,1.2-6.38,1.51-4.89,4.71,1.11,2.37,4.53.11,6.6-1,4.09-2.24,7.87-5,11.72-7.63,4.41-3,9.31-3.43,14.36-2.91,3.55.37,4.14,1.66,2,4.47s-4.19,5.31-5.06,8.54c-2,7.44-7.51,10.22-14.34,11.2a37.61,37.61,0,0,1-16.34-.78c-5.8-1.74-11.56-1-17.24.53-5.47,1.49-6.65,6.13-7.33,10.84-.79,5.4.54,7.82,5,10.29a40.07,40.07,0,0,0,6.53,2.44c4,1.38,7.1.26,9.7-3,3.66-4.57,7.56-9,13-11.51,3.21-1.5,7.06-4.34,9.35,1.61.59,1.53,2.63,1.08,4.09,1.26a56.93,56.93,0,0,1,19.1,5.48c5.62,2.64,7.13,7.05,6,12.94-.92,4.83-1.92,9.64-3.08,14.42a9.67,9.67,0,0,1-.42,1.39c-1.13,2.75-1.95,5.62-2.86,8.46a10,10,0,0,1-.51,1.28c-2.11,7.55-8,12.12-13.87,17.11,2.2,1.63,4.43,2.17,6.51,3l1.26.33c2.71.12,2.17-2.06,2.53-3.6a5.8,5.8,0,0,1,1.16-3.15c2.72-4.14,3.87-9.11,6.92-13.08a10.44,10.44,0,0,1,.78-1.1,67.4,67.4,0,0,0,5.11-6.21,12.52,12.52,0,0,1,.94-1c1.58-1.13,2.69-3.41,5.25-2.11,5.44,5.65,10.56,11.67,17.84,15.15,4.16,5,6.84,10.83,9.35,16.75.2,2.47,1.87,2.89,3.89,2.76,3.58-.23,3.72,1.35,2.72,4.3-2.86,8.52-3.29,8.77-10.56,3.83a131.86,131.86,0,0,1-14.43-11.4c-2.38-2.15-3.29-4.19-1.65-7.39C353.46,357.76,354,354.83,351.74,352.34Z" transform="translate(-235.44 -145)"/><path class="cls-1" d="M328.6,308.41c-7.13-2.87-14.36-5.26-22.16-5.32-1,0-2.88.24-2.51-1.5,1.15-5.44-2.27-2.95-4.13-2.34-5.95,1.94-9.9,6.53-13.93,11-2.29,2.53-4.17,6.26-8.28,5.51-5.7-1.05-11.75-2.21-15.63-7-4.18-5.13,1.18-18.75,7.67-20.16s13-2,19.71,0c6.89,2.12,13.84,1,20.59-1.36a8,8,0,0,0,4.85-4.71c2.19-5.19,4.27-10.44,9.71-15-7-.35-12.56-1.05-17.68,2.74-3.87,2.87-7.95,5.47-12,8-2.6,1.62-5.53,2.39-8.55,1.33-1-.37-.87-1.69-.62-2.68.79-3.25,3.31-4.3,6.22-5a11.23,11.23,0,0,0,3.69-1.49c8.56-5.79,17.8-8.84,28.27-7.49,1.34.17,3.18.39,3.43-1.86,2.51,2.4,7.36.9,8.7,5.23-3.34,1.68-3.56,3.42-.7,6.11a41.08,41.08,0,0,1,6.21,8.29c.88,1.38,1.55,3,3.43,3.31-1.29,5.58-2.4,11.27-5.09,16.37-5.52,10.48-3.64,25.75,4.55,34.63-1.69,1.11-3.36,2.25-4.24,4.18l0,0a15.82,15.82,0,0,0-5.94,7.12l.07-.09c-3.91,3.86-5.55,8.89-7.19,13.92l-1,3c-1.64,1.14-.39,5.18-4.18,4.16l.08.06c-1.92-2.22-6.77-1.4-6.76-4.65,0-2.24,3.58-3.91,5.66-5.69a21.55,21.55,0,0,0,7.11-12l0,.07c2-2.71,2.29-6,3-9.11l-.07.1c3.55-6.89,3.35-14.62,4.4-22C335.68,311.12,331.56,309.57,328.6,308.41Z" transform="translate(-235.44 -145)"/><path class="cls-2" d="M396.29,400.11c11.09,1.81,22.2,3.3,33.47,3a193.2,193.2,0,0,1,46.1-.81c10.09.95,20.27.11,30.39,1.24,4.46.51,9,.73,13.36,1.6,2.14.8,1.71,2.06.48,3.3-2.21,2.19-4.46,4.35-7.5,5.41a4.85,4.85,0,0,1-2.64-.27c-6.34-1.62-12.9-1.2-19.32-1.57-15.4-.87-30.83-1.4-46.23-2.34-21.2-1.31-42.43-2-63.62-3.51-10.85-.79-21.82-1.84-32.77-.67-5.25-.54-7.54-2.48-8.61-7.28,1.33-3,4.1-2.51,6.48-2.48C362.79,395.93,379.74,395.79,396.29,400.11Z" transform="translate(-235.44 -145)"/><path class="cls-3" d="M481.89,200.52l-7.49,0a4.67,4.67,0,0,0-3.35,3l.05-.07c-4.72,3.62-10,4-15.19,1l0,0a9.12,9.12,0,0,0-4.06-4h-6.8c-3.52,1.52-4.38,4.71-5,8l0,0c-3.28,4.61-4.76,4.81-9.69,2a70.78,70.78,0,0,0-12.42-6h0a14.57,14.57,0,0,0-7.21-2.94,38.4,38.4,0,0,0-10.63-1c-11.84,5-24.07,2.29-36.18,1.85-2.2-.08-4.07-1.31-6.14-1.84-5.76-1.3-10.58-4.69-15.82-7.13-.93-.63-2.88-.64-1.82-2.54s2.44-3.49,5-2.14a20.77,20.77,0,0,0,9.16,2.17c23.1.56,46.11,2.88,69.23,3.31,8.23.16,16.6,1.47,24.81,1.78,9.28.35,18.56,1.42,27.87,1.19,2.3-.05,4.79-.2,5.9,2.6C482.06,199.94,482,200.23,481.89,200.52Z" transform="translate(-235.44 -145)"/><path class="cls-4" d="M531.27,185.27c5.19,2.37,7.87,7.33,11.63,11.18.79.8,1.45,1.73,2.17,2.6.65,2.32,2.69,3.92,3.22,6.3-3.34,3.29-4.1,3.11-6.8-1.65.06-6.63-.25-6.92-6.5-6-18.79-.64-37.49-2.4-56.28-3.12-20.57-.78-41.13-2.42-61.71-3.55-9.62-.53-19.26-.47-28.9-1-11.12-.62-22.2-1.85-33.33-2.31-3-.13-5.81-.95-4.84-5.1,1.08-2.23,2.66-3.39,5.22-2.5a6.09,6.09,0,0,0,5.09,2.67c6.18-.24,12.24,1.17,18.43,1.1,16.33-.17,32.55,1.69,48.81,2.83,7.81.55,15.62.3,23.44.78,22.41,1.38,44.84,2.53,67.28,3.33.67,0,1.33,0,2,0,5.31-.07,5.31-.07,2.72-4.57C526.29,182.07,527.51,181.92,531.27,185.27Z" transform="translate(-235.44 -145)"/><path class="cls-5" d="M545,369.22l10-2.88c1.32,2-.45,3.22-1.11,4.74-2.61,3.5-4.22,7.88-8.63,9.81a36.38,36.38,0,0,1-14.86.58c-11.57-1.57-23.27.21-34.82-1.67a10.7,10.7,0,0,0-7.15,1.71c-1.39.83-2.85,1.91-4.58.66l10.81-10.05c1-.52,1.66-1.69,3-1.77a161.67,161.67,0,0,0,22.66.08C528.52,370.71,536.82,371.71,545,369.22Z" transform="translate(-235.44 -145)"/><path class="cls-6" d="M526.61,217.45c-9.31-3.59-20.09-4.17-26.83-13,2.74-1.69,5.1.59,7.6.91,10.1,1.32,20.28-.1,30.37,1.44,3.82.58,7.57.68,10.71,3.28a4.21,4.21,0,0,0,3.32.77c4.39,2.59,6.05,6.87,7.08,11.54-.33,1.39-.79,2.7-2.33,3.21-4.35-5.09-10.18-5.33-16.18-4.8C535.37,221.19,530.92,219.69,526.61,217.45Z" transform="translate(-235.44 -145)"/><path class="cls-7" d="M521,406.2c-16.35-1-32.68-2.22-49-2.88-14-.57-28.1-1.57-42.16-.19l18.93-3A75.1,75.1,0,0,0,460,396.6c5.73-2.26,11.83-1,17.68-.7,15.53.9,31,2.82,46.57,2.89a8.38,8.38,0,0,1,2.43.42c3.82,3.15-.85,3.6-1.68,5.28C523.79,405.36,522.6,406.31,521,406.2Z" transform="translate(-235.44 -145)"/><path class="cls-8" d="M483.81,382.17c5.92-4,12.18-3.65,19.16-3.34,13,.58,26.12,1.52,39.2,1.35a17.06,17.06,0,0,0,3.8-.95c.15,4.7-2.44,8-8.09,10.22-7.63.71-15.19-.66-22.78-.91-11.39-.38-22.76-1.47-34.18-1.55a3,3,0,0,1-2.23-.89A15.27,15.27,0,0,1,483.81,382.17Z" transform="translate(-235.44 -145)"/><path class="cls-9" d="M528,400.21c-16.51.32-32.88-1.77-49.32-2.8-8.15-.5-16.68-2.14-24.61,1.93a8.67,8.67,0,0,1-5.32.77l18.15-6.94c2.12-.84,4.46-1.28,6-3.17l-.07,0a5.91,5.91,0,0,1,2.42-.45c16.65,1.09,33.35,1.13,50,2.51,2.43.2,5,.41,7.11,1.9C534.23,398.42,531.12,399.33,528,400.21Z" transform="translate(-235.44 -145)"/><path class="cls-3" d="M552,211.34c-1.54,3-3.16,1.61-4.51-.06-2-2.44-4.49-2.7-7.42-3.06-11.65-1.41-23.38-.38-35-1.44-2.1-.19-2.91-2.87-5.22-2.37l-.89-.77c-5.46-4.67-2.38,2.16-3.85,2.86a.87.87,0,0,1-.08.84c-1,3.82-3.14,2.26-5.19,1.08a11,11,0,0,1-3.84-3.95c-.43-1.83-3.38-2.75-1.91-5.26,2-1.63,4.39-1.49,6.67-1.31,14.22,1.15,28.45,2.1,42.73,2a19.11,19.11,0,0,1,5.83,1.15,3.63,3.63,0,0,1,2.71,2.29c1.49,2.19,2.82,4.88,6,2,1.15-.65,1.44.48,2,1v0C550.45,208.05,553.27,208.89,552,211.34Z" transform="translate(-235.44 -145)"/><path class="cls-10" d="M533,395.21c-3.22-.66-6.43-1.85-9.66-1.89-10.62-.11-21.18-1.35-31.82-1.28-6.2,0-12.57-.23-18.67-2a15,15,0,0,1,5.88-3.94c10.23-2.21,20.43.3,30.63.45,9.85.14,19.76,1.07,29.65,1.67C538.59,392,537.08,394.7,533,395.21Z" transform="translate(-235.44 -145)"/><path class="cls-7" d="M396.29,400.11a435.46,435.46,0,0,0-51.44-2.86c-1.74,0-4.2-1.08-4.82,2-.67,2.07-.24,4.49-2,6.21-1.82.34-3-.61-4.1-1.9-2.31-4.41-3.46-9-2.32-14,3.72-1.37,7.59-.95,11.37-.66,8.94.71,17.86,1.58,26.84,1.58,2.75,0,5,1.61,7.45,2.67Z" transform="translate(-235.44 -145)"/><path class="cls-11" d="M526.61,217.45c5.82,1.46,11.72,2.55,17.7,1.82,5.67-.7,10,.79,12.64,6.06,4.33,2.91,5.19,7.71,6.44,12.2.49,1.76-.69,2.78-2.67,1.89-4.72-3-10.07-4.18-15.47-5a8.73,8.73,0,0,1-6.72-4.51A36.12,36.12,0,0,0,526.61,217.45Z" transform="translate(-235.44 -145)"/><path class="cls-12" d="M377.28,393.12c-6.12-2.6-12.68-1-19-1.57-9-.82-18.12-2.06-27.26-1.34-3.11-.93-4.12-3.9-5.91-6.11-.35-1-.83-2.11.88-2.36,4.71-.27,9.46-.91,14.05-1.23,6.89-.48,14.51-1.6,21.08,2.64l0,0a10,10,0,0,0,4.27,3Z" transform="translate(-235.44 -145)"/><path class="cls-13" d="M288.11,258.49c-2.88,1.75-6.41,5.37-9,3-2.34-2.08.84-6.39,1.82-9.43,2.62-8.11,6.15-15.93,9.49-23.78.82-1.92,2.33-3.54,3.52-5.29.82,3.17,1.22,6.53,4,8.86a5.75,5.75,0,0,1-.61,4.33c-2.79,5.19-4,10.93-5.62,16.49A10.64,10.64,0,0,1,288.11,258.49Z" transform="translate(-235.44 -145)"/><path class="cls-14" d="M327.08,197.47l-4.82,5.93c-2,2.3-1.86,5.46-3.13,8.06l.06-.07c-2,2.22-1.67,5.92-4.68,7.53-5,1.41-5.67,6.28-7.85,9.93-2.49,3.45-2.65,8.36-6.74,10.82-2.41-.7-3.71-1.9-2.57-4.67.56-1.35.21-2.92.1-4.39,3.28-9.54,9.36-17.46,14.89-25.7,2-2.53,4.2-4.94,6.1-7.58,1-1.35,2-2.58,3.85-2.62,1.66.5,3.34,1,5,1.58A1,1,0,0,1,327.08,197.47Z" transform="translate(-235.44 -145)"/><path class="cls-15" d="M351.74,352.34c3.86,1.94,2.55,5.05,1.3,7.63-1.53,3.12-.9,5.28,1.59,7.39A205.94,205.94,0,0,0,371.1,380c3,2.05,4.25,2,5.6-1.61.74-2,1.55-3.9,2.42-6-3.07-1.15-8.33,2.13-8-4.35,1.81-.56,3.54,2.64,5.32.22,1.56-2.11,1-4.36-.06-6.53-.91-1.93-2-3.8-2.82-5.75-1.94-4.42-1.5-5.09,3.17-5.26,1.11,0,2.31.39,3.3-.49,2.82-.74,2.34-5.31,6-5.11,2.07-.64,2.82.05,2.14,2.15-3.05,11.22-6.68,22.27-10.4,33.28-1.09,3.24-2.07,4.31-5.41,2.09a153.75,153.75,0,0,1-20.37-16c-1.61-1.51-2.58-2.76-1.1-5.05C352.65,358.77,352,355.49,351.74,352.34Z" transform="translate(-235.44 -145)"/><path class="cls-16" d="M497,371.23l-2.35.89,12.93-17c.15-.08.35-.11.44-.23,4.13-5.44,4.13-5.44,8.14.26l-.06-.06c.9,1.26,1,2.91,2.1,4.08a10.68,10.68,0,0,1,2,6c.15,4.45,2.54,5.13,6.46,5.12,6.16,0,12.22-.88,18.34-1.12-1.66,2-4,2-6.28,2-6.24,0-12.48,0-18.71,0-1.92-3.21-4.85-3.75-8.38-3.8C506.28,367.34,501.14,367.21,497,371.23Z" transform="translate(-235.44 -145)"/><path class="cls-17" d="M392.83,440.25c-4.43-.94-8.89-1.81-12.92-4,1.73-1.76,4.39-.43,6.22-1.88a6,6,0,0,1,2.16-.09c2.7.52,5.33,1.32,8,2,3,.75,6,1.29,9.05,2,3.77.58,7.46,1.74,11.34,1.56a137,137,0,0,0,32.57,0c2.23-.1,4.48.16,6.65-.6A155.89,155.89,0,0,0,480.4,433c1.77-.13,3.55-.32,4.86,1.28-7.9,4.39-16.72,5.95-25.37,7.9-2.79.62-5.67,1.84-8.7,1.05-13.76,2.31-27.53,1.5-41.29,0l.07.05C404.3,442,398.55,441.21,392.83,440.25Z" transform="translate(-235.44 -145)"/><path class="cls-18" d="M313.06,205.38c-4.3,8-10.66,14.89-13.57,23.72-.17.53-.95.85-1.45,1.27a3.13,3.13,0,0,1-1,.95c-5.14-1.22-4-4.81-3.14-8.3a54.63,54.63,0,0,1,9.22-14.22c1.6-1.84,1.31-5.48,4.87-5.57C310.16,202.81,312.83,201.24,313.06,205.38Z" transform="translate(-235.44 -145)"/><path class="cls-19" d="M485.26,434.31l-5.28-.12c.35-2.69,4.25-3.07,4-6.17,1.91-2.59,5.18-3,7.63-4.67a96,96,0,0,0,12.87-6.73c2.27-.95,4-3,6.52-3.42h2c2.88,1.87,2.07,3.72-.12,5.43-1.38,1.08-3.3,1.56-3.78,3.59A97.62,97.62,0,0,1,485.26,434.31Z" transform="translate(-235.44 -145)"/><path class="cls-20" d="M501.89,163.4c4.32,2.16,8.86,4,12.13,7.77,4.43,3.86,4.34,4.86-.62,7A4.92,4.92,0,0,1,512,178c-2.83-1.53-5.28-3.69-8.29-4.92-2.76-1.52-5.11-3.81-8.32-4.48a58.62,58.62,0,0,0-7.73-3.22c-1.35-.59-2.7-1.19-3.21-2.75.1-1.89-.5-3.87.79-5.59,4.74.23,8.68,2.6,12.7,4.74C499.26,162.26,500.74,162.43,501.89,163.4Z" transform="translate(-235.44 -145)"/><path class="cls-21" d="M380,350.25c-1.81,2.08-4.36.8-6.9,1.48,1.39,3.06,2.75,6,4.1,9a21.31,21.31,0,0,1,1.57,3.62,5.84,5.84,0,0,1-2.84,6.77c-2.81,1.56-3.1-2.16-4.84-3.05q-4.09-8.35-8.2-16.71C368.44,348.57,374.31,350.82,380,350.25Z" transform="translate(-235.44 -145)"/><path class="cls-22" d="M533,395.21c2.93-1.54,4.21-4.48,6-7a17,17,0,0,0,7-9c3.43-2.14,4.57-6.07,7-9,3.18.58,3.54,1.16,2.11,4.26-2.87,6.2-7.47,11.24-11.6,16.57-1.7,2.2-3.11,4.7-5.45,6.36a4.13,4.13,0,0,1-3.71,3.87c-2,2.12-4.6,3.6-6.5,5.88-.9,1.08-2.3,2.24-3.82,1s-.9-2.63,0-4l4-4C529.61,398.52,531.93,397.51,533,395.21Z" transform="translate(-235.44 -145)"/><path class="cls-23" d="M361.13,383.15c-8.21-1.07-16.39-2.13-24.72-1.08-3.74.47-7.59.13-11.38.16a.86.86,0,0,1-1.13.07,1.13,1.13,0,0,1,.16-1.18,35.26,35.26,0,0,1,4.93,0c5.51.77,9.64-.29,10-6.9,3.08-6.92,3.09-6.93,8.73-1.77a9.78,9.78,0,0,0,2.45,1.7Z" transform="translate(-235.44 -145)"/><path class="cls-24" d="M344.85,284.14c-.82.27-1,3.25-2.51.55a70.11,70.11,0,0,0-10.66-14.34c-1.94-2-1-2.91,4.23-3.92,2.49,4.14,5.62,7.07,11,5.79a6.53,6.53,0,0,0,3.14-2.91c1.8-2.49,4-.8,6.49-.25C349.44,271.84,345.59,276.86,344.85,284.14Z" transform="translate(-235.44 -145)"/><path class="cls-25" d="M408.93,147.33c4.82-2,10-1.71,15-2.08,10.38-.77,20.71.4,31,1.4,1,.1,2,1.06,3,1.62,1.25,1.24,2.62-1.36,3.86.12l2.21,1.12c1.58.92,3.47-.16,5,.8l-.06,0c1.33,1.45,3.37-.13,4.74,1.12l1.23,1a1,1,0,0,1-.35,1.41c-4.33,1.13-8.27-1.26-12.47-1.37-14.13-3.72-28.54-2.59-42.89-2.57C415.71,149.51,412,149.68,408.93,147.33Z" transform="translate(-235.44 -145)"/><path class="cls-26" d="M313.75,394.32c-3.85-.18-4.56-4.11-6.47-6.18-3.35-3.63-6.22-7.93-9.65-12.38,4-.64,6.22,2.87,9.45,2.63,4.11,1.73,5.81,5.83,8.68,8.8,1.48,3.09,4.83,5.13,5.09,8.92-.19,2.75-1.77,3-4,2.22l.07.06C315.46,397.37,315.5,395.14,313.75,394.32Z" transform="translate(-235.44 -145)"/><path class="cls-27" d="M313.06,205.38c-.78-2.86-3.47-1.22-5.07-2.15,2.5-6.08,8.12-9.53,12.25-14.22a25.8,25.8,0,0,1,3.86-3.63c2-.68,4.25-2.63,5.65.85.31,4.91-4.62,6-6.73,9.09-4.21,1.29-5.22,5.62-7.88,8.39C314.48,204.39,314.13,205.26,313.06,205.38Z" transform="translate(-235.44 -145)"/><path class="cls-28" d="M455.91,204.39c5.14.9,10.24,1,15.19-1l-.93,2c-1,4-.95,8.33-3.08,12.08l.06-.06a16.53,16.53,0,0,1-3.17,3l-1.1.91c-2.48-.88-1.6-3.38-2.23-5.07a36.11,36.11,0,0,0-1.76-4.85Z" transform="translate(-235.44 -145)"/><path class="cls-29" d="M329,186.37c-1.14-2.85-3.33-.49-4.94-1a145,145,0,0,1,33.6-22.17,5.2,5.2,0,0,1,3-.22c1.26,2-.37,2.62-1.6,3.23a30.19,30.19,0,0,0-4.64,2.7,136.58,136.58,0,0,0-19.86,15.34C333,185.76,331.52,187.3,329,186.37Z" transform="translate(-235.44 -145)"/><path class="cls-30" d="M357.83,200.41c8.55,1.2,17.25.31,25.78,1.92,5.7,1.07,11-1.61,16.54-1.93-5.63,3.1-12.36,2.71-18,4.84C372.42,209,365.25,205.44,357.83,200.41Z" transform="translate(-235.44 -145)"/><path class="cls-31" d="M314,233.3c0,1.3,1.13,1.87,1.73,2.78,2.76,4.26,1,8.34-3.82,9.25l-5.71,1.07a1,1,0,0,1-1.43,0c-1.27-2.74,0-5.11,1.07-7.51,1.86-3.31,3.64-6.64,4.38-10.44.32-1.66.76-3.53,3.17-1.91C313.92,228.74,312.92,231.11,314,233.3Z" transform="translate(-235.44 -145)"/><path class="cls-32" d="M306.16,353.51c-.35-2,1-4.74-3.26-4.66-1.95,0-4-2.45-4.72-5l5.72,4.43a70.88,70.88,0,0,0,.71-8.14c-.07-2.51,1.36-3,3.27-3.26a.78.78,0,0,1,.17,1.34c-2,.34-2.73,2.47-1.53,3,1.79.78,2.83,4.49,5.75,2.08,4.74-.84,6.13-4.14,6.5-8.45.2-2.36-1.18-5.38,2.19-6.76-.06,3.81,0,7.64-.25,11.44-.08,1.23-.2,1.84,1,2.82,2.37,2,2.11,4.23-.87,5.75A2.11,2.11,0,0,0,318,348c-3.76,3.1-7,2.39-9.8-1.77-.56,2.18.46,3.68.39,5.28S308,354.1,306.16,353.51Z" transform="translate(-235.44 -145)"/><path class="cls-33" d="M377.88,155.25A41.57,41.57,0,0,1,390,151.33c1.64-.49,3.65.74,5-1.11l-.05.06c2.68-1.1,2.51,1.41,3.35,2.64-2.73,2-2.8,5.64-5,8-1.88,1.09-3.66,2.54-6.08,1.85-2.11-4.33-2.11-4.33-9-1.95a2.43,2.43,0,0,1-1.3-.23C375.21,158.44,377.33,157,377.88,155.25Z" transform="translate(-235.44 -145)"/><path class="cls-34" d="M524,404.2c.24,1.2-.65,2.85.92,3.48,1.27.5,2-.89,2.73-1.65a20.92,20.92,0,0,1,6.71-4.73c-2.58,4.95-7.41,7.61-11.35,11.17-4.23,3.83-9.16,6.65-13.9,9.75-1.38-2.5,1.31-2.91,2.29-3.52,2.44-1.5,3.17-3,1.61-5.5l8-7Z" transform="translate(-235.44 -145)"/><path class="cls-35" d="M297,231.32l1-.95c.59,3-1.84,6.67,2,8.95,1.54,2.64-.87,4.74-1,7.16a12.11,12.11,0,0,1-1.93,4.09c-2.83,2.86-5.06,6.39-9.05,7.92,3-5.83,3.58-12.41,5.84-18.49C295,237.14,297.9,234.85,297,231.32Z" transform="translate(-235.44 -145)"/><path class="cls-36" d="M308.05,338.26l-.17-1.34c2-8.62,2-8.57-6.62-7.94a36.07,36.07,0,0,1-12.75-.9c-2.44-.7-4.88-1.07-6.1,2-2.06.11,0-3.15-2.31-2.84,1.78-5,4.73-6.43,9.17-4.38,1.06.48,2.12,1,3.2,1.36.59-.09,1.25,1,1.74-.15-.13-.65-.81-1.36.19-1.87,2.27-1.43,3.43.84,3.75,1.88,1.19,3.83,4.23,3.73,6.75,3,5.47-1.6,5.42,1.54,5.18,5.2A9.89,9.89,0,0,1,308.05,338.26Z" transform="translate(-235.44 -145)"/><path class="cls-37" d="M560.72,239.42c2.27-.24,2-1.42,1.28-3-1.74-3.65-3.37-7.36-5-11l1-3c1.56-1.24,2.24.22,3.13,1,3.28,4.27,3.56,10,6.83,14.24,1,1.79.08,4.29,2.17,5.65v0c.09,2.11-.85,2.88-2.71,1.79-1.27-.73-2.16-2-3.58-2.62Z" transform="translate(-235.44 -145)"/><path class="cls-38" d="M316.89,398.33c2.11,0,3.43-.73,3.14-3.11,1-.51,1.79,0,2.61.42,3.52,2.82,6.05,6.59,9.31,9.65,2.44,1.61,4.42,3.78,6.87,5.41,1.81,1.21,2.45,2.94.9,4.92a3.7,3.7,0,0,1-2.76-.38l.05,0a27.15,27.15,0,0,1-3.19-3l.13.1a14.86,14.86,0,0,1-5.15-4.09l.12.11c-.91-1.47-2.8-1.19-4-2.2C322.2,403.66,319.05,401.5,316.89,398.33Z" transform="translate(-235.44 -145)"/><path class="cls-39" d="M513,177.36c6-1.1,2.13-3.88,1-6.19,6.7,3.54,12.72,7.91,17.25,14.1-2.8-2.87-5.53.68-8.3.08l-.65-.12a13.44,13.44,0,0,1-2.24-1.42C517.79,181.57,513.76,181.24,513,177.36Z" transform="translate(-235.44 -145)"/><path class="cls-40" d="M538,397.43c4.87-6.63,9.94-13.14,14.5-20,1.26-1.89,5-4.59.44-7.22.51-1.38,2.09-2.21,2-3.9l8.12-4.59c-3.21,8.28-7.88,14.67-12.22,21.2-2.88,4.33-6.38,8.25-9.59,12.37A5.18,5.18,0,0,1,538,397.43Z" transform="translate(-235.44 -145)"/><path class="cls-12" d="M344,188.35c-1.31,1.39-5,1.78-2,4.93l-4.95-.09c-.85-2.23-.23-4.47,0-6.7,3.13-4.77,7-8.71,12.58-10.54,1.48,2.55-2,5-.16,7.57C348.72,186.33,347,188.07,344,188.35Z" transform="translate(-235.44 -145)"/><path class="cls-36" d="M549.94,324.27c-2.69-1.39-2.27-3.85-1.72-6,.65-2.54,3-1.94,4.94-2,2.28,0,4.57,0,6.86,0,1.53-1.5,3.82-1,5.51-2.09,3.64-2.11,7.25-4,11.16-.47,1.14,1,2.09,2,1.9,3.71-1.06,2.72-1.44,6.31-5.93,4.73.46-1.73,4-1.89,2.85-3.86-1.31-2.23-4.16-.94-6.37-.93a74.87,74.87,0,0,1-17.32,0C546.29,318.31,550.93,322.05,549.94,324.27Z" transform="translate(-235.44 -145)"/><path class="cls-41" d="M398,152.38c-1.82.46-1.27-2.59-3.11-2.1,4.41-2.26,9.16-2.87,14-2.95L419,148.39c.18,1-.43,1.45-1.18,1.83a72.87,72.87,0,0,1-8.55,1.52c-3.16-.05-6,1.64-9.17,1.63A3.32,3.32,0,0,1,398,152.38Z" transform="translate(-235.44 -145)"/><path class="cls-42" d="M324,382.21l1,0,1,2c1.33,2.62,2,5.26.17,7.95-1.95,1.21-3.1-.15-4.2-1.4-2-2.24-3.86-4.57-5.61-7-.63-1.12-1.44-2.22-.35-3.51l2.06.14C320,381.39,322.65,379.67,324,382.21Z" transform="translate(-235.44 -145)"/><path class="cls-43" d="M369,432.21c-3.41-.51-6.34-2.14-9.22-3.89.27-2.22.37-4.56,3.43-4.78,2.86-.14,4.74,2.1,7.2,2.94,1.6,1.08,3.93,1.44,4.05,4C373.2,433,370.94,432.12,369,432.21Z" transform="translate(-235.44 -145)"/><path class="cls-44" d="M369,432.21c1.44-1.28,3.74-.43,5-2,1.47-1.23,2.86-.27,4.27.15,2.52,1.7,6.48,1.11,7.72,4.84-1.7,2.31-4.09.54-6.1,1.05C376,435.73,372.48,433.93,369,432.21Z" transform="translate(-235.44 -145)"/><path class="cls-45" d="M409.9,443.28c13.76-.22,27.52,1.73,41.29,0-6.44,2.54-13.24,1.94-19.89,2C424.15,445.26,416.85,445.87,409.9,443.28Z" transform="translate(-235.44 -145)"/><path d="M572.66,322.14c3.57.34,3.81-2.91,5.25-4.86a1.82,1.82,0,0,1,1.36-.27c1.49.52,2.48,1.37,2,3.14-.59,1.14-.38,1.83,1.05,1.92s2.67,0,3.63,1.19h0c.65,1.91-1.61,1.1-2,2.08l0,0a43.16,43.16,0,0,1-13.23,0C568.64,322.63,571.91,323.12,572.66,322.14Z" transform="translate(-235.44 -145)"/><path class="cls-46" d="M377.88,155.25c2.09,2.11-2.1,3.15-.87,5.11a27.58,27.58,0,0,1-9.55,5.64,2.81,2.81,0,0,1-1.33-.32c-1-1.47-.7-3-.36-4.62,2-2.83,5.83-2.34,8.2-4.51A6.2,6.2,0,0,1,377.88,155.25Z" transform="translate(-235.44 -145)"/><path class="cls-47" d="M418,204.36c4.65-.11,8.18,2.75,11.7,5,4.1,2.62,7.18,1.79,10.41-1-.39,1.24-.76,2.5-1.19,3.73-1,2.84-2.19,4.15-5.18,1.57C429.05,209.66,423.09,207.69,418,204.36Z" transform="translate(-235.44 -145)"/><path class="cls-48" d="M337,415.24l3.07,0c1.78,1.42,4-.79,5.8.7,2.82,3.05,6.68,4.69,9.83,7.29,1.09,2.34,0,2.71-2,2.14A68.92,68.92,0,0,1,337,415.24Z" transform="translate(-235.44 -145)"/><path class="cls-49" d="M287.05,355.23c-2.28-2.28-1.82-5.79-3.81-8.31a2.14,2.14,0,0,1,1.36-3.47c1.57-.21,4.16-1.84,4.38,1.76-1,2.51-.18,5.12-.46,7.68C288.41,353.87,289,355.36,287.05,355.23Z" transform="translate(-235.44 -145)"/><path class="cls-50" d="M475,153.41v-1c8.45,1,15.89,4.58,23,9.07.37.2.49.4.37.61s-.23.32-.35.32c-4-2.45-8.51-3.72-13-5-1.07,1-2.2.77-3.35.17-1.71-1.32-3.85-1.63-5.79-2.42C475.21,154.72,474.7,154.26,475,153.41Z" transform="translate(-235.44 -145)"/><path class="cls-51" d="M316,380.26l1,3c.56,1.94-.2,3.23-2,4-3.78-1.94-4.86-6.29-8-8.83Z" transform="translate(-235.44 -145)"/><path class="cls-52" d="M338,186.35c-.11,2.31.45,4.71-1,6.84a43.37,43.37,0,0,0-10,4.28l-.06-1.12C330,192.29,332.6,187.75,338,186.35Z" transform="translate(-235.44 -145)"/><path class="cls-53" d="M353.67,425.33c1.5-.05,2.16-.63,1.35-2.14-.25-2.08,1.51-1.94,2.7-2.44a5.89,5.89,0,0,1,4.38,1.67,2.84,2.84,0,0,1,.92,1.78c-2.95-.11-.61,4-3.27,4.12C357.29,428.2,355.63,426.47,353.67,425.33Z" transform="translate(-235.44 -145)"/><path class="cls-54" d="M561.09,223.36l-3.13-1a20.25,20.25,0,0,0-6-11c-.66-1.69-1.31-3.37-2-5.05C555.19,211,558.09,217.22,561.09,223.36Z" transform="translate(-235.44 -145)"/><path class="cls-55" d="M314,233.3c-1.85-2.11-.57-4.65-1-7-1.57-2.91-.68-5.5,1-8,3.27-1.16,1.9-5.77,5.16-6.94C316.69,218.51,312.92,225.34,314,233.3Z" transform="translate(-235.44 -145)"/><path class="cls-56" d="M374,156.55c-1.51,3.46-5.81,2.38-7.92,4.85-1.1,2.15-3,2.28-5,2l-3.31-.15A62.92,62.92,0,0,1,374,156.55Z" transform="translate(-235.44 -145)"/><path class="cls-57" d="M556,337.28c-.71,3-3-.42-4,1-1.67-1.89-1.38-3.86-.21-5.85,1.56-1.31,1.67-2.79.11-4.05-1.38-1.11-2.21-2.29-1.86-4.1,4.07,2.63,4.56,6.68,4.4,11C554.34,336.31,554.71,337.18,556,337.28Z" transform="translate(-235.44 -145)"/><path class="cls-58" d="M350.19,374.16c-2.53.14-3.59-2-5.08-3.39-1.91-1.79-3.66-3.65-4.12.9a3,3,0,0,1-2,2.56c.2-2.83.56-6.33,3.15-7.21,2.21-.77,3.53,2.8,5.39,4.27A22.58,22.58,0,0,1,350.19,374.16Z" transform="translate(-235.44 -145)"/><path class="cls-59" d="M570,337.24l-.21-2.43c-.13-1.48.11-2.59,2-2.54s2,1.14,2,2.63a6.51,6.51,0,0,1-1.74,4.43C570.06,339.91,570.81,337.85,570,337.24Z" transform="translate(-235.44 -145)"/><path class="cls-60" d="M342.14,201.29l-1.25,1.24c-2.6.68-4.73,3.36-7.85,1.84-.42-.87-1.28-.91-2.07-1.07C334.29,200.41,337.84,198.77,342.14,201.29Z" transform="translate(-235.44 -145)"/><path class="cls-61" d="M476.83,220.27c1.81,1.36,1.06,3.23,1,6.14-1.45-3.76-3.07-5.7-6.15-3.19a23.44,23.44,0,0,0,1.58-3.07C474.64,216.28,475.71,218.48,476.83,220.27Z" transform="translate(-235.44 -145)"/><path class="cls-45" d="M392.83,440.25c5.87.11,11.67.7,17.14,3.08C404,443.51,398.42,442,392.83,440.25Z" transform="translate(-235.44 -145)"/><path class="cls-62" d="M516.13,355.17c-.54-.34-1.3-.56-1.57-1.06-1.6-2.89-3.12-3.77-5-.23-.32.6-1.29.85-2,1.26a3.14,3.14,0,0,1,.18-.46c1.19-2.06,2-5.57,4.13-5.46C514.3,349.36,515.38,352.64,516.13,355.17Z" transform="translate(-235.44 -145)"/><path class="cls-63" d="M563.8,242.39c1.47-.19,2.43.68,3.35,1.62,1.46,1.5,2.22.45,2.94-.79,1.4,1.24.69,3,1.53,5.05C567.79,247.36,565.93,244.68,563.8,242.39Z" transform="translate(-235.44 -145)"/><path class="cls-64" d="M297.16,250.57a6.08,6.08,0,0,1,.88-4.26,7,7,0,0,1,7-.13l1.11.22Z" transform="translate(-235.44 -145)"/><path class="cls-65" d="M551.82,317.33l17.32,0C563.37,319.14,557.59,318.81,551.82,317.33Z" transform="translate(-235.44 -145)"/><path class="cls-66" d="M287.05,355.23c2.4-3-.42-7,1.93-10v14.94C288.1,357.9,287.57,356.57,287.05,355.23Z" transform="translate(-235.44 -145)"/><path class="cls-67" d="M467.09,217.46q1.55-6,3.08-12.08C470.11,209.65,470.23,214,467.09,217.46Z" transform="translate(-235.44 -145)"/><path class="cls-67" d="M458.89,211.36c3.2,2.55,1.78,7,4,9.92-1.07,1.4-1.52.46-1.77-.54C460.33,217.62,459.63,214.49,458.89,211.36Z" transform="translate(-235.44 -145)"/><path class="cls-47" d="M440.05,208.42c.11-3.66-.05-7.49,5-8C442.38,202.41,441.4,205.53,440.05,208.42Z" transform="translate(-235.44 -145)"/><path class="cls-68" d="M570.8,325.32H584A19.4,19.4,0,0,1,570.8,325.32Z" transform="translate(-235.44 -145)"/><path class="cls-68" d="M584,325.34l2-2.08,6.16-.93A12.12,12.12,0,0,1,584,325.34Z" transform="translate(-235.44 -145)"/><path class="cls-69" d="M489.77,208.42c1.79-.06,3.94,1.56,5.19-1.08,0,1.39.69,3.36-1,3.83C492,211.71,491,209.69,489.77,208.42Z" transform="translate(-235.44 -145)"/><path class="cls-70" d="M570,337.24l2,2.09c-.07,1.44.37,3-1.58,4.44C569.54,341.52,569.93,339.36,570,337.24Z" transform="translate(-235.44 -145)"/><path class="cls-55" d="M319.13,211.46c.5-2.9-.09-6.22,3.13-8.06C321.6,206.24,321.08,209.12,319.13,211.46Z" transform="translate(-235.44 -145)"/><path class="cls-6" d="M550,206.33l-2-1c-1.13-2-3.1-3.66-2.89-6.29C546.54,201.59,549.66,203,550,206.33Z" transform="translate(-235.44 -145)"/><path class="cls-69" d="M495,206.5c.21-1.67-1-3.85,1.09-4.84,1.46-.68,2.36.58,2.76,2C495.16,201.3,496.26,205.46,495,206.5Z" transform="translate(-235.44 -145)"/><path class="cls-47" d="M410.78,201.43c2.9-.24,5.56.11,7.21,2.94Z" transform="translate(-235.44 -145)"/><path class="cls-71" d="M340.07,339.32c.19-2.63,1.8-3.82,4.23-4.18l.75,1.06C342.58,336,341.94,338.62,340.07,339.32Z" transform="translate(-235.44 -145)"/><path class="cls-10" d="M472.88,390c-1.12,2.73-3.46,3.15-6,3.17A14.17,14.17,0,0,1,472.88,390Z" transform="translate(-235.44 -145)"/><path class="cls-48" d="M328.8,408.32a15.07,15.07,0,0,1,5.15,4.09C331.44,412,329.31,411.2,328.8,408.32Z" transform="translate(-235.44 -145)"/><path class="cls-41" d="M395,150.22c-1.1,2.88-3,2.21-5,1.11C391.42,150,393.19,150.12,395,150.22Z" transform="translate(-235.44 -145)"/><path class="cls-28" d="M451.88,200.38a4,4,0,0,1,4.06,4Z" transform="translate(-235.44 -145)"/><path class="cls-69" d="M484,200.35c.58,1.4,2.23,2.3,1.95,4.12l-4-3.95.11-.28A1.36,1.36,0,0,1,484,200.35Z" transform="translate(-235.44 -145)"/><path class="cls-38" d="M313.75,394.32c2.93-.11,2.24,2.63,3.21,4.07C314.58,398.07,314.54,395.9,313.75,394.32Z" transform="translate(-235.44 -145)"/><path class="cls-60" d="M331,203.28c-.14,2.22-1.61,3.62-3.07,5A5.06,5.06,0,0,1,331,203.28Z" transform="translate(-235.44 -145)"/><path class="cls-23" d="M365.36,386.09c-2-.11-4-.33-4.27-3A8.41,8.41,0,0,1,365.36,386.09Z" transform="translate(-235.44 -145)"/><path class="cls-12" d="M324,382.21l-5.93-1.81c2,0,4.07-.35,6,.72Z" transform="translate(-235.44 -145)"/><path class="cls-72" d="M346.15,255.38c-.21-1.54-1.11-3.42.68-4.33.74-.37,1.37,1.1,1.27,2.18Z" transform="translate(-235.44 -145)"/><path class="cls-63" d="M570.09,243.25c-2.92-1-2-3.57-2.17-5.65C569.52,239.15,569,241.51,570.09,243.25Z" transform="translate(-235.44 -145)"/><path class="cls-73" d="M498,162.41c0-.31,0-.62,0-.93,1.58.1,3.32-.13,3.95,1.92Z" transform="translate(-235.44 -145)"/><path class="cls-48" d="M325,406.23c1.77-.08,3.44,0,4,2.2C327.35,408.15,325.78,407.86,325,406.23Z" transform="translate(-235.44 -145)"/><path class="cls-74" d="M388.1,347.29a2,2,0,0,0-2.14-2.15c.68-.7,1.55-1.33,2.41-.62C389.47,345.41,388.93,346.43,388.1,347.29Z" transform="translate(-235.44 -145)"/><path class="cls-67" d="M464,220.37a5.26,5.26,0,0,1,3.17-3C466.82,219.17,465.92,220.32,464,220.37Z" transform="translate(-235.44 -145)"/><path class="cls-62" d="M518.17,359.19a4.3,4.3,0,0,1-2.1-4.08A5,5,0,0,1,518.17,359.19Z" transform="translate(-235.44 -145)"/><path class="cls-48" d="M333.82,412.31a4.77,4.77,0,0,1,3.19,3C335.09,415.2,334.25,414,333.82,412.31Z" transform="translate(-235.44 -145)"/><path class="cls-75" d="M473.75,151.39c-1.61-.26-3.51.71-4.74-1.12C470.53,150.88,472.49,149.65,473.75,151.39Z" transform="translate(-235.44 -145)"/><path class="cls-75" d="M469.07,150.31c-1.7-.12-3.55.67-5-.8C465.79,149.24,467.61,148.61,469.07,150.31Z" transform="translate(-235.44 -145)"/><path class="cls-76" d="M350,269.31c0,2.06-1.15,3-3.14,2.91Z" transform="translate(-235.44 -145)"/><path class="cls-75" d="M461.82,148.39c-1.28-.29-2.63,1.84-3.86-.12C459.26,148,460.59,146.69,461.82,148.39Z" transform="translate(-235.44 -145)"/><path class="cls-28" d="M471.05,203.45c0-2.24,1.2-3.14,3.35-3Z" transform="translate(-235.44 -145)"/><path class="cls-1" d="M495.05,232.32l2.91,3.14c1,1.3,2.08,2.53,3,3.86,5.59,3.26,11.61,5.58,17.47,8.25,7.91,3.6,16,5.53,24.65,4.7,4.32-.41,8.19,1.14,11.89,3.13,4.52,2.44,8.8,5.38,13.91,6.58a5.5,5.5,0,0,1,3.49,2.66c1.64,2.84.48,4.67-2.8,4.68-4.71,0-8.1-2.84-11.52-5.41-6.68-5-13.52-9.18-22.71-7,.4,2.51,2.66,3.76,4.23,5.5,1.69.88,1.71,2.64,2.21,4.16a.59.59,0,0,0,.22.7,31.12,31.12,0,0,1,2.88,6.09c6,6.19,13.69,6.41,21.17,5.05,7.1-1.29,13.93-2.31,21.16-1,4.66.83,7.34,2.89,8.91,7.34,4.21,12-3.39,21.74-16.19,20.5-2.91-.29-4.51-2.66-6.29-4.59-4.4-4.76-8.39-10-14.92-12.08-1.58-.49-5.13-3.77-4.12,2.08.4,2.33-2.14,1.43-3.38,1.57-7.82.87-15.48,2.29-22.29,6.52-3.12,1.94-5,3.52-4.4,8.56,1,8.53,3.33,16.54,5.59,24.68,1.89,6.79,5.24,12.49,11.17,16.56a56.52,56.52,0,0,1,4.78,4.15c-3,2.34-6.36,3.18-9.49,4.46-2,.81-3.22-.19-3.69-2.12-4.37-17.64-16.88-29.38-29.76-40.81a10.48,10.48,0,0,1-3.2-6c-1.32-2.56.4-5.5-1-8,0-.09-.29-.13-.42-.1a1.38,1.38,0,0,0-.42.24q-1.8,7.72-3.6,15.47c-.56,2.4.55,4.29,2.19,5.78,3.69,3.33,3.51,7.21,2,11.42a134.19,134.19,0,0,1-11.42,23.8c-1.05,1.78-1.75,5.23-4.86,3.4a5.59,5.59,0,0,1-2.4-7.37c1.31-3.05,2.62-6.12,4.21-9a36.19,36.19,0,0,0,4.08-24.53c-2.45-13.8,5.52-23.72,13.75-33.32,1.45-1.69,3-1.77,4.58.1a45,45,0,0,0,4.11,3.73c2.08-12.23,8-21.68,15.94-30,2.4-2.48.16-3-1.57-3.61-6.14-2.25-12.73-2.36-19.19-4-.23-1.94,1.95-2.54,2.32-4.5-6.78-3.39-13.48-7.22-16.47-15-.23-.78-.57-1.83.25-2.2C493.71,229.75,494.15,231.53,495.05,232.32Z" transform="translate(-235.44 -145)"/><path class="cls-1" d="M396.1,279.18A159,159,0,0,0,385.76,247c-2-4.51-4.74-9.06-9.26-10.7-4.17-1.51-8.69-1.46-11.4-5.94-.7-1.15-2.8-.07-4.09.75-1.68,1.08-3.28,2.29-5,3.3s-4,2.53-6,1.22c-2.61-1.7,1.55-3.2.54-5.21-2.64-.86-5.47-.23-8.25-.3-7.57-.19-10.59-6.43-9.12-13.38.44-2.07,2.12-1.85,3.59-1.58,4.08.76,8.22,2.24,11.43-2,.36-.47,1.3-.78,1.75-.09,3.18,4.93,8.47,3.21,12.81,3.74a20.92,20.92,0,0,1,16,9.82c4.69,7.23,11.7,11,20.19,13.84-1.54-3.53-4.63-4.87-7-8.28,7.22.54,13.85-1,19.11,4.6,1.32,1.39,2.8,2.89,5.09,2.59.77-.63,0-2.72,2.07-2.11,9.14,9.18,17.57,18.92,23,30.83,3,6.61.74,13.66-6.1,20.2-1.14-10.25-4.62-19.08-11.86-26.08a4.31,4.31,0,0,1-1.55-.8,2.82,2.82,0,0,1-.33-.08s0,.17,0,.44.1.42.15.43c.09.76-.06,1.57.51,2.2a62.35,62.35,0,0,1,.19,25.27c-.41,2.2-1.21,3.83-3.71,3.89s-3.48-1.4-3.61-3.77c-.08-1.52-.5-3.18-2.38-3.29a3.33,3.33,0,0,0-3.55,2.93c-1.21,7.09-6.09,10.21-12.4,12.06a11,11,0,0,0-6.32,5.4,44.9,44.9,0,0,1-6.26,9c-2.4,2.54-2.12,5.8-1.95,9,.08,1.6.67,3.61-1.23,4.47s-3.07-.74-4.46-1.6c-1.66-1-2.71-3-4.84-3.25-.86,1-.22,1.92.05,2.85.41,1.35,1.89,2.81.49,4.11-1.62,1.5-3.11-.09-4.42-.93a30.65,30.65,0,0,1-4.29-3.42c-2.51-2.38-4.68-4.26-7.49-.08-1.45,2.15-3.27,1.19-3.83-1.2a35.47,35.47,0,0,1-.46-10.93c.21-2.86,2.32-2.26,4.07-2.24,10.07.1,19.08-2.79,26.55-9.68,6.3-5.81,11.46-12.22,8.76-21.79,2,.1,2.17,1.58,3.12,2.16.8,1,1.77,2.43,2.42.06A5.56,5.56,0,0,0,396.1,279.18Z" transform="translate(-235.44 -145)"/><path class="cls-1" d="M459.1,273.21c14.65,22.38,20.67,46.41,14,72.87a27.31,27.31,0,0,1-4.29,9.46c-.77,1.06-1.51,1.27-1.93-.29-.32-3.88-1.53-7.62-1.47-11.58,0-2.88-1.35-1.93-2.5-.46-2,2.47-3.84,5-5.91,7.37-.95,1.08-2.13,2.77-3.6,2.26s-1.44-2.47-1.52-4c-.06-1,0-2,0-4.34-3.46,5.78-8.75,1.2-12.3,4.5-1.52-2.26.79-6.22-3.78-6.65-1.47-.14-.27-2,.51-2.72a78.14,78.14,0,0,1,6.62-5.28,49.75,49.75,0,0,1,8.41-5.35c10.71-4.67,13.09-12.78,11.32-23.62-1.68-10.31-1.33-20.93-4.8-31C457.57,273.33,458.07,273,459.1,273.21Z" transform="translate(-235.44 -145)"/><path class="cls-77" d="M445.66,243.94c8.79-4.74,16.39-8.82,24-12.94,1.22-.66,2.39-1,2.35.87-.15,7.88-.82,15.67-6.3,22-.85,1-1.91,1.94-3.59.92,2-4.76,4.7-9.28,5.11-15.31C460.58,243.36,454.18,245.61,445.66,243.94Z" transform="translate(-235.44 -145)"/><path class="cls-78" d="M368,295.3a3.23,3.23,0,0,0,2,3.11,13.92,13.92,0,0,0,7.05,0c.5.27,2.56-.87,1.2,1-3.48,4.93-15.69,9.15-21.56,7.75-2.57-.61-3.47-2.49-3.61-4.7-.25-4.1-.64-8.25.92-12.24.58-.49.85-1.59,2-1,1.23,2.79,2.41,5.59,3.7,8.35.65,1.4,1.12,3.43,3.22,2.9s3.47-1.85,3-4.3c.09-.2.19-.39.29-.59A1.45,1.45,0,0,1,368,295.3Z" transform="translate(-235.44 -145)"/><path class="cls-79" d="M551.72,332.39c.87,1.92,0,3.9.21,5.85-1,1.87-1.49,3.4.68,5.14,3.14,2.53,3.63-1.47,6.27-2.1.18,3.05.74,6-1.73,8.09-2.16,1.81-4.39-.25-6.36-1.18-5-2.36-9-6.14-12.56-10.32-.54-.64-3.93-3.33.72-3.58,3.89,2.2,7.67,3.33,10.93-1Z" transform="translate(-235.44 -145)"/><path class="cls-80" d="M579,317.41l-1.1-.13c-3.47-5.37-5-5.63-12-2-1.83.4-3.82,1.62-5-1,5.5-5.4,6.38-7.2,5.15-11.18,4.37.58,6.38,4.09,8.8,6.72a13.26,13.26,0,0,0,8.09,4.5,55,55,0,0,0,6.12,1.6c1.21.18,1.61,1,.86,2.13l-1,1.32a7.65,7.65,0,0,1-4.12,2.76c-1.21.13-2.37.09-3.12-1.08-.21-.95.4-1.56.88-2.2-.3-1.9-1.86-1.26-3-1.49Z" transform="translate(-235.44 -145)"/><path class="cls-81" d="M548,262.32l11.31,7c.71.44,1.47,1,1.3,1.89s-1.15,1-2,1.06a15.41,15.41,0,0,1-15.6-8c-.79-1-.89-2.33.12-3C544.92,260.06,546.46,261.37,548,262.32Z" transform="translate(-235.44 -145)"/><path class="cls-82" d="M337.3,240.2c7.18.31,7.31.34,5.65,7.19-.57,2.37.36,6.55-2.17,6.73-2.94.21-2.92-4.18-4.33-6.48a2.38,2.38,0,0,0-.35-.36c-.67-2.05-2.31-3.84-1.67-6.24A2,2,0,0,1,337.3,240.2Z" transform="translate(-235.44 -145)"/><path class="cls-79" d="M480.11,238.23c2.34,5.48,4.64,11,7,16.43.58,1.33,1.29,2.64-.87,2.88s-8.13-6.74-8.25-9.22c1-2.55.21-5.22.5-7.81C478.62,239.48,478.16,238,480.11,238.23Z" transform="translate(-235.44 -145)"/><path class="cls-83" d="M540,331.2c-2.43-5.3-.38-11.11-2.79-17,4.59,1.1,6.11,3.33,5.75,7-.31,3.21,0,6.3,2,9,.58,1.33,2.9,2.94.5,4S541.11,333.48,540,331.2Z" transform="translate(-235.44 -145)"/><path class="cls-84" d="M514.29,229.58c5,3.14,9.27,6.57,12.59,11.14.55.77,1.37,1.73.62,2.65s-1.84.1-2.71-.17C518.28,241.19,514.29,236.18,514.29,229.58Z" transform="translate(-235.44 -145)"/><path class="cls-85" d="M604,288.16l-4.86-6.84c5.65.75,9.24,3.46,13,5.89.25.17.59.56.55.78-.52,2.7-3.08,3.21-5,4.37-2.08,1.28-3.48.72-3.65-1.92A1.45,1.45,0,0,0,604,288.16Z" transform="translate(-235.44 -145)"/><path class="cls-86" d="M337.3,240.2c-1,.23-2,.39-2.45,1.45-2.94.93-2,3.66-2.66,5.67-.49,3.3-1.91,2.11-2.85.41-2.32-4.22-1.64-8.6-.33-13.55A31.73,31.73,0,0,0,337.3,240.2Z" transform="translate(-235.44 -145)"/><path class="cls-87" d="M604.59,301c1.69-.1,1.55,1.11,1.28,2-1,3.31-2,6.83-6.3,7.23-1.56.14-2.44-.7-2.17-2.46C597.8,305.17,602.38,300.84,604.59,301Z" transform="translate(-235.44 -145)"/><path class="cls-88" d="M540,331.2c1.7,1,3.2,2.39,5.37,2.51,1.46-1.31-.86-2.23-.44-3.44,1.87.62,2.66,3.06,5,3-3.09,6.47-5.86,6.73-10.93,1C539.29,333.26,539.64,332.23,540,331.2Z" transform="translate(-235.44 -145)"/><path class="cls-89" d="M389,226.24c2.33-.78,4.63-1.73,7-2.3s4.68.47,4.73,3-2.52,1.5-3.93,1.44c-2.63-.12-5.23-.65-7.85-1Z" transform="translate(-235.44 -145)"/><path class="cls-90" d="M333,204.37c2.62-.6,4.88-2.72,7.85-1.84-1.22,3.9-6.34,3.2-7.91,6.68-2.47-.14-1.19-1.74-1.12-2.87Z" transform="translate(-235.44 -145)"/><path class="cls-91" d="M556,301.23c-3.63.19-7.34,1-10.64-1.44,5-.53,9.92-1.61,14.8.38C559.05,301.72,557.15,300.06,556,301.23Z" transform="translate(-235.44 -145)"/><path class="cls-92" d="M462.91,343.21a4.5,4.5,0,0,1,2.19-3.72c.87,5.43,1.89,10.51,1.78,15.76a24.2,24.2,0,0,1-1.91-10C465,343.88,465.09,342.39,462.91,343.21Z" transform="translate(-235.44 -145)"/><path class="cls-68" d="M585.09,321.42l3.88-2.08c.2,2.24-2.08,2.56-3,3.92-1.61,0-3.22.07-4.82,0-1,0-2.57.41-2.71-1.17-.12-1.35,1.25-1.67,2.35-2l.48.41C582.15,322.44,583.65,321.79,585.09,321.42Z" transform="translate(-235.44 -145)"/><path class="cls-93" d="M478.13,236.59c-.36-2.74-.72-5.48-1.23-9.27,2.94,2.47,3.39,4.74,2.9,7.38C479.22,235.31,479.55,236.72,478.13,236.59Z" transform="translate(-235.44 -145)"/><path class="cls-94" d="M478.13,236.59c.52-.66.58-1.73,1.67-1.89.1,1.18.21,2.35.31,3.53-2.32,3,.21,7.06-2.1,10.09Z" transform="translate(-235.44 -145)"/><path class="cls-95" d="M332.19,247.32c.8-1.93-2.73-5.89,2.66-5.67q.63,2.82,1.25,5.63l-2.51-3.12Z" transform="translate(-235.44 -145)"/><path class="cls-96" d="M548,262.32c-1.84.18-5.14-3.38-5,1.95-.94.5-1,1.44-1.18,2.33a9.24,9.24,0,0,1-2.21-4.16c1.62.63,2-.79,3-1.5C544.46,259.56,546.66,259.9,548,262.32Z" transform="translate(-235.44 -145)"/><path class="cls-97" d="M495.05,232.32c-1.07.19-2.59-3.39-3.25.38l-1.86-3.34c-.6-1.22-.7-2.18,1.12-2.13C492.46,228.88,494.65,229.9,495.05,232.32Z" transform="translate(-235.44 -145)"/><path class="cls-98" d="M498.12,300.37c-.1-.83-.27-1.89.67-2.14,1.36-.36,1,1,1.06,1.61.1,2.81.09,5.62.12,8.43C497.73,306,500.08,302.69,498.12,300.37Z" transform="translate(-235.44 -145)"/><path class="cls-99" d="M589.93,318c-1.27-3.22-5.27-1.34-7-3.73,2.23.24,4.49.32,6.67.77C592.35,315.62,591.59,316.84,589.93,318Z" transform="translate(-235.44 -145)"/><path class="cls-100" d="M561.89,300.42a5.74,5.74,0,0,1,4.14,1.8c-3.14,1.64-5.64-.33-8.26-.82C558.92,300.12,560.66,301.33,561.89,300.42Z" transform="translate(-235.44 -145)"/><path class="cls-101" d="M396.1,279.18c1,1,.93,2.4.93,3.67,0,1.07.46,2.68-.89,3-1.76.4-1.83-1.33-2.15-2.54C398.17,283.7,394.77,280.23,396.1,279.18Z" transform="translate(-235.44 -145)"/><path class="cls-102" d="M418.15,237.23l-2.07,2.11c-.54-1.6-1.07-3.2-1.66-4.93C416.53,234.43,417.23,236,418.15,237.23Z" transform="translate(-235.44 -145)"/><path class="cls-96" d="M544.92,273.39A11.49,11.49,0,0,1,542,267.3C544.28,268.72,545,270.86,544.92,273.39Z" transform="translate(-235.44 -145)"/><path class="cls-103" d="M459.1,273.21l-1.25,1.23a7.7,7.7,0,0,1-1.72-5A4.75,4.75,0,0,1,459.1,273.21Z" transform="translate(-235.44 -145)"/><path class="cls-60" d="M331.86,206.34c.32,1-.41,2.37,1.12,2.87-.36.94-1,2.2-2,1.29C329.3,209,330.92,207.61,331.86,206.34Z" transform="translate(-235.44 -145)"/><path class="cls-104" d="M365.92,296.25a5.64,5.64,0,0,1-.78-5.48c.84-2,1.36-.16,1.71.75-.85,1.53.28,3.31-.6,4.84Z" transform="translate(-235.44 -145)"/><path class="cls-65" d="M560.91,314.25c1.38,1.84,3.4.46,5,1-1.72,1.85-4,.69-5.93,1C560,315.43,559.83,314.57,560.91,314.25Z" transform="translate(-235.44 -145)"/><path class="cls-105" d="M377,298.41a5.79,5.79,0,0,1-7.05,0Z" transform="translate(-235.44 -145)"/><path class="cls-106" d="M366.25,296.36c.09-1.63-1-3.4.6-4.84.37,1.26.74,2.52,1.12,3.78Z" transform="translate(-235.44 -145)"/><path class="cls-97" d="M501,239.32c-1.6-.83-2.88-1.9-3-3.86A4.82,4.82,0,0,1,501,239.32Z" transform="translate(-235.44 -145)"/><path class="cls-107" d="M561.89,300.42c-1.13,1.33-2.83.3-4.12,1l-1.8-.17c1.12-1.42,2.81-.54,4.16-1.06Z" transform="translate(-235.44 -145)"/><path class="cls-108" d="M356,289.3l-2,1c-.15-1.43-.28-3.33,1.3-3.55C356.51,286.56,356.14,288.29,356,289.3Z" transform="translate(-235.44 -145)"/><path class="cls-109" d="M491.06,227.23c-1,.37-.91,1.34-1.12,2.13-1-1-1.67-2.31-.56-3.4C489.94,225.41,490.75,226.42,491.06,227.23Z" transform="translate(-235.44 -145)"/><path class="cls-110" d="M421.92,260.39l1.24,1.79c-.9.46-1,1.35-1.2,2.19-.37-.65-.73-1.3-1.1-1.94C420.49,261.37,420.16,260.34,421.92,260.39Z" transform="translate(-235.44 -145)"/><path class="cls-111" d="M604,288.16c.82.21,2.24-.35,2.28.83,0,.91-1.3,1.22-2.25,1.45Z" transform="translate(-235.44 -145)"/><path class="cls-112" d="M306.16,353.51c2.45-.48,1.36-2,1.13-3.43-.36-2.16-2-4.35-.19-6.57,1.17-.11,1.35.86,1.76,1.46,3.45,5.1,3.72,5.15,8.85,1.63.89-.6,1.66-2,2.94-1.22,1,.65.1,1.82.14,2.76-4.17,4.53-8.47,8.9-14.29,11.38-1.7.73-3.52,1.83-5.14.53-2-1.59-2.09-4.23-1.82-6.46s1.79-1.4,2.47-.13C303.47,356.17,304.77,355,306.16,353.51Z" transform="translate(-235.44 -145)"/><path class="cls-107" d="M294.4,322.24l1.64,2c-.37,2.53-2,1.22-3.25,1.07-.8-.06-1.89.19-2.34-.23-4.55-4.28-7.41-.94-10.35,2.17l-5.24,1.51c-.23,1.8,2.06,1.8,2.53,3.36a4.87,4.87,0,0,1-1.28.44,8.91,8.91,0,0,1-6.41-2.26c-1.18-1.09-2.9-2.24-2.26-4,.5-1.4,2.36-.83,3.59-.88a19.66,19.66,0,0,0,13.91-6.64c1.22-1.3,2.68-2.38,4-3.56,1.42-.65,2.38-.55,2.24,1.36Z" transform="translate(-235.44 -145)"/><path class="cls-113" d="M300.31,283c-1,.14-2.12.14-2.48-1s.81-1.6,1.63-2.08c4.28-2.5,8.54-5,12.88-7.44.91-.5,2.13-1.59,3.14-.52,1.19,1.26-.22,2.43-.71,3.56C312,282,306.29,282.75,300.31,283Z" transform="translate(-235.44 -145)"/><path class="cls-114" d="M321,328.13c-1.74,2.74-.89,5.76-1,8.69-.19,4.9-3.35,7.54-7.69,6.52a15.07,15.07,0,0,0,3.41-11.59,5.49,5.49,0,0,1,2.31-5.66C320.74,324.15,321,325.93,321,328.13Z" transform="translate(-235.44 -145)"/><path class="cls-115" d="M258,292.22c-.06,2.5-1.52,3.79-2.25,5.4-.6,1.31-4.81,1.43-1.36,4.13.08.06-.43,1.41-.86,1.54-3.07.93-5-1.4-6.82-3.06-2.13-1.91.31-2.81,1.56-3.55C251.19,295,253.94,292.76,258,292.22Z" transform="translate(-235.44 -145)"/><path class="cls-116" d="M252.27,311.44c4.42.44,6.64,2.71,8.33,5.69.6,1.05,1,2.16,0,3.18s-2.12.73-3.22.25C253.68,318.91,253.15,315.47,252.27,311.44Z" transform="translate(-235.44 -145)"/><path class="cls-71" d="M328,345.14c.14,8.75-7.11,12.37-12.21,17.65.94,3,5.45,1.39,6.2,4.66-3.37-.31-6.12-2.22-9.85-3.66C318.39,358,325.49,353.45,328,345.14Z" transform="translate(-235.44 -145)"/><path class="cls-71" d="M328.6,308.41c6.4,1.39,7.41,2.92,6.52,9.43-.6,4.41-.87,8.87-1.62,13.25-.32,1.84-.62,4-2.66,5.11,1.25-6.93,2.39-13.89,3.84-20.78.37-1.78-.58-2.44-1.49-3.27C331.74,310.82,330.14,309.65,328.6,308.41Z" transform="translate(-235.44 -145)"/><path class="cls-117" d="M291.21,316.59a2.48,2.48,0,0,0-2.24-1.36,16.37,16.37,0,0,1,12.11-4.84c3,1.2,6.26-.55,9.19,1-4.34,1.73-9,.49-13.55,1.74A9.39,9.39,0,0,0,291.21,316.59Z" transform="translate(-235.44 -145)"/><path class="cls-71" d="M327,360.24c.41-5.66,2.34-10.54,7.18-13.92Q330.63,353.28,327,360.24Z" transform="translate(-235.44 -145)"/><path class="cls-71" d="M334.15,346.41c-.18-4.18,2.49-6,5.94-7.12A31.43,31.43,0,0,1,334.15,346.41Z" transform="translate(-235.44 -145)"/><path class="cls-71" d="M330.91,336.1c.14,3.41.29,6.83-3,9.11A26.48,26.48,0,0,1,330.91,336.1Z" transform="translate(-235.44 -145)"/><path class="cls-118" d="M310.27,311.39c-3-.83-6.29.87-9.19-1a46,46,0,0,1,12.24,0C312.42,311.77,311.29,311.41,310.27,311.39Z" transform="translate(-235.44 -145)"/><path class="cls-71" d="M321.87,367.39c2.71-.06,1.88-3.69,4.18-4.16C325.5,365.47,326.48,369.24,321.87,367.39Z" transform="translate(-235.44 -145)"/><path class="cls-119" d="M511,413.2a10.14,10.14,0,0,1-6,4c-14.19-1.95-28.55-1.09-42.76-2.52C446.66,413.11,431,413,415.46,412c-7.95-.49-15.93-1.05-23.89-1.16-10.48-.15-20.91-.94-31.33-1.84a19.4,19.4,0,0,0-6.92.5c-2.14.86-3.89.16-5.44-1.36-.71-.85-1.34-1.73-.86-2.93,3-3.83,7.15-2,10.63-1.69,3.12.3,6.24.66,9.38.68,16.39.08,32.67,1.78,49,2.89,9.08.62,18.2.29,27.31,1,16,1.19,32.1,1.2,48.11,2.33,5.12.36,10.22.75,15.35.79C508.55,411.2,510.14,411.37,511,413.2Z" transform="translate(-235.44 -145)"/><path class="cls-12" d="M347,405.21l1,2c.44,2.32,1,4.64.19,7-4.86-1.33-8.57-4-10.19-9-.08-2.25.05-4.43,2-6C341.56,402.14,344.51,403.42,347,405.21Z" transform="translate(-235.44 -145)"/><path class="cls-120" d="M484,200.35l-2-.11c-2.95-4-7.21-1.51-10.66-1.65-7.54-.31-15.49,0-22.62-1-15.32-2.06-30.72-1.11-46-3.06-4.26-.54-8.65,0-12.95-.25-14-.9-28-2-42-2.92-2.07-.14-3.59-.67-3.74-3,1.64-1.69,4-2.7,5-5,.37-.91.91-1.49,2-1-.85,2.63-.26,4.07,2.87,4,12.26-.16,24.4,1.7,36.64,2.16,16.71.62,33.44,1,50.12,2,18.49,1.11,37,2.28,55.47,3.08,11,.48,22.08,1,33.06,2.52,2.6.36,5.52-1.47,7.78,1.21,2.17,1,4.27,2,3,5-4.87-1.23-9.83-1-14.78-1-10.73,0-21.4-.82-32.08-1.84C490.12,199.2,486.85,198.37,484,200.35Z" transform="translate(-235.44 -145)"/><path class="cls-121" d="M523,185.35c1.76,1.9,5.77,3.32,5,5.55-1,3.07-5,1.3-7.61,1.38-18.26.6-36.4-2.06-54.68-2.23-12.33-.11-24.73-1.19-37.11-1.82-18.85-.94-37.63-3-56.55-3-4.74,0-9.55-.87-14.36-.85-2.79,0-4.22-1-2.67-4,.2-3.7,3.35-3.81,5.81-4.77a5.6,5.6,0,0,1,1.78.13,28.93,28.93,0,0,0,9.35,1.2c19.13-.46,38.13,2.15,57.27,2.39,12.9.16,25.85,1.26,38.79,1.85,16.73.77,33.41,2.83,50.2,2.86a9,9,0,0,1,4.75,1.35Z" transform="translate(-235.44 -145)"/><path class="cls-122" d="M360,176.36c-1.24,1.85-4.11,1.67-5,4a5.61,5.61,0,0,0-4,2l-2,1c-3.37-2.86,0-4.77,1-7,.14-3.57,3.55-4.1,5.53-6,1.1-.51,2.21-.94,3.41-.29C359.74,172.11,357.75,174.59,360,176.36Z" transform="translate(-235.44 -145)"/><path class="cls-121" d="M540,202.34c.1-2.32-2.29-3.15-3-5,2-4.72,3.35-2,4.88.32,1.24,1.91,1.85,3.74.12,5.67Z" transform="translate(-235.44 -145)"/><path class="cls-123" d="M497,371.23c2.3-3.76,5.18-6.07,10-5.08a26.4,26.4,0,0,0,7.43,0c3.8-.33,5.63,1.22,5.52,5C512.3,373,504.64,372.63,497,371.23Z" transform="translate(-235.44 -145)"/><path class="cls-124" d="M325,392.21c2-2.45.56-5.34,1-8,2.24,1.52,3.3,4,5,6,2.23,2.25,1.85,5.12,2.11,7.92.16,1.74,1.23,3.39,1.89,5.08-1.4.91-3,1.55-4,3l-9-10C320.7,393.13,323.42,393.09,325,392.21Z" transform="translate(-235.44 -145)"/><path class="cls-125" d="M331,406.2c-.48-3.41,1-4.25,4-3l3,2c2.63,3.77,6.79,5.85,10,9a1.56,1.56,0,0,1,1.29,1.43c-1.2,2-2.55,2.71-4.28.57-2,1.47-3.8,1.63-5-1C338.92,410.3,334,409.23,331,406.2Z" transform="translate(-235.44 -145)"/><path class="cls-126" d="M356,171.35c-2,1.71-4.46,2.78-6,5-4.7,2.49-8.45,6.13-12,10-4.23,2.72-6.64,7.43-11,10-1.68,1-3.13,1.11-4-1,.47-2.24,1.11-4.28,3.68-5.09,1.76-.56,2.08-2.26,2.34-3.86,6.1-2.64,9.63-8.63,15.31-11.79,3.36-1.87,5.46-5.69,9.68-6.2C355.48,168.85,356.51,169.59,356,171.35Z" transform="translate(-235.44 -145)"/><path class="cls-127" d="M305.08,246.18c-2.34,0-4.68.95-7,.13-.4-2.63,1.86-4.51,2-7,2.32-3.49,3.11-7.82,6-11,2.78.58,2.42,2.87,2.27,4.71a25.76,25.76,0,0,1-1.28,6.29A14.17,14.17,0,0,0,305.08,246.18Z" transform="translate(-235.44 -145)"/><path class="cls-128" d="M307,239.32c-.51-3.65,1.14-7.5-1-11,.57-3.53,2.91-6.16,4.69-9.07.78-1.28,1.88-1.78,3.3-.92.5,2.78-.93,5.3-1,8-2.94,3-2.25,7.7-4.82,10.93A14.82,14.82,0,0,0,307,239.32Z" transform="translate(-235.44 -145)"/><path class="cls-129" d="M484,428.19c2.95,4.85-2.48,4.12-4,6a74.51,74.51,0,0,1-24,6c-1.86,1.23-4.17-.3-6,1a121.7,121.7,0,0,1-34,0c-.86-1.05-2.66.13-3.31-1.4a3.58,3.58,0,0,1,2.76-3.63c2.79-.58,5.62-.19,8.43-.4a40.87,40.87,0,0,1,7.5.38,10.45,10.45,0,0,0,7,.07,32.8,32.8,0,0,1,6.41-.42,16,16,0,0,0,6.23-.55c3.78-1.06,7.71-1.35,11.52-2.24a58.47,58.47,0,0,0,10.91-2.81c3.36-.65,6.35-2.84,10-2.44Z" transform="translate(-235.44 -145)"/><path class="cls-130" d="M405,439.2a22.49,22.49,0,0,1-9-2c-2.1-1.26-2.45-3-1.32-5.08,2.05-1.54,4.23-.4,6.35-.31,2.47.58,5.17.53,7.1,2.58C407.8,436.45,405.28,437.09,405,439.2Z" transform="translate(-235.44 -145)"/><path class="cls-131" d="M386,435.18l-8-4c.66-1.8,0-3.93,1.41-5.53,2.7-.83,4.7.8,6.86,1.91a7.22,7.22,0,0,1,1.7,1.61c1.21,2,1.73,4,0,6Z" transform="translate(-235.44 -145)"/><path class="cls-132" d="M405,439.2c-2.05-3.62-.06-4.22,3-4a3.67,3.67,0,0,1,5.14,0c1.47,1.71-.84,3.31-.14,5,1.09,0,2.27-.16,3,1A30.84,30.84,0,0,1,405,439.2Z" transform="translate(-235.44 -145)"/><path class="cls-8" d="M388,435.18c0-2.05.19-4.14-1-6,3.54-1.32,6.29-.57,8,3a8.24,8.24,0,0,0,1,5A28,28,0,0,1,388,435.18Z" transform="translate(-235.44 -145)"/><path class="cls-133" d="M450,441.18c1.76-1.81,4-.68,6-1C454.24,442,452,440.88,450,441.18Z" transform="translate(-235.44 -145)"/><path class="cls-134" d="M352,409.21c2.25-3.51,5.73-2,8.64-1.81,7.42.38,14.8,1.65,22.2,1.71,19.23.14,38.39,1.76,57.6,2.39,17.32.57,34.61,2.55,52,2.91,4.08.09,9-.84,12.52,2.79-3.69,3.51-8.4,5.15-13,7-16.73-.64-33.53.3-50.19-1.95a20.09,20.09,0,0,0-3-.37c-21.1.17-42.06-3-63.16-2.5-3.73.68-7.29-.73-11-.88-2.68-.32-4.91-1.69-7.1-3.14C356,413.11,352,413,352,409.21Z" transform="translate(-235.44 -145)"/><path class="cls-135" d="M375,418.2c8.54,0,17.1-.15,25.64.19,7.4.29,14.78,1.73,22.16,1.7,19.21-.09,38.27,3.17,57.53,2.34,3.68-.16,7.93,0,11.63,1.76-2.29,2.09-5.31,2.72-8,4-7.3-1.82-14.78-.95-22.17-1.43-13.55-.88-27.21-.27-40.61-3.15-6-1.5-12.11-2.58-18.28-2-6.49.62-12.86-2.11-19.33-.4a11.39,11.39,0,0,1-2.54.23C378.71,421,375.81,421.52,375,418.2Z" transform="translate(-235.44 -145)"/><path class="cls-119" d="M513,177.36l8,6c-1.38,1.33-3.11,1-4.73.92-12.93-.54-25.85-1.29-38.77-1.92-22.37-1.09-44.71-2.59-67.11-3.21-13.73-.38-27.43-2.26-41.22-2.36-1.82,0-3.72-.19-4.64-2.22-.3-3.42,2.69-3.72,4.68-5a6.53,6.53,0,0,1,1.86-.26c11.94.78,23.86,2,35.82,2.43,24.93.95,49.85,2,74.74,3.85,10.11.75,20.25,1.06,30.37,1.74Z" transform="translate(-235.44 -145)"/><path class="cls-136" d="M512,177.36c-5.45,2.14-11.26,1.47-16.63.71-6.25-.87-12.53-.52-18.78-1.48-7.82-1.2-15.86-1.13-23.81-1.18-17.09-.09-34.07-2.11-51.17-2.38-10.47-.16-21.14-.64-31.57-2.67,1-3.54,4.39-3.28,7-4.25,17.62.35,35.22.85,52.79,2.24,8.28.65,16.55,1.51,24.89,1.49,16.47,0,32.83,2.06,49.28,2.52A14.36,14.36,0,0,1,512,177.36Z" transform="translate(-235.44 -145)"/><path class="cls-7" d="M504,172.36c-6.52,2-13.2,1-19.79.77-6.76-.22-13.49-1.66-20.24-1.67a509.71,509.71,0,0,1-51.08-3.06,8.19,8.19,0,0,0-1,0c-12,.7-23.89-1.06-35.85-1-.19-2.22,1.72-2.41,3.05-3.18A17.62,17.62,0,0,1,384,163c22.39-.9,44.64,1.79,67,2.85,14.39.69,28.86.24,43.2,2.2a2.49,2.49,0,0,0,1.8-.69A19.2,19.2,0,0,1,504,172.36Z" transform="translate(-235.44 -145)"/><path class="cls-137" d="M398,152.38h2c1.14,3.42,3.41,4.29,6.72,3.09a22.48,22.48,0,0,1,3.76-.94,4,4,0,0,1,2.9.69c3.14,2.92,7.09,2.27,10.79,2.25a255.25,255.25,0,0,1,29.28,1.18c6.12.69,12.28-.07,18.34,1.17,1,.2,1.91-.43,2.8-.88,4.06-.68,7.31,1.12,10.38,3.43l3,2c-.86,3.25-3.63,2.41-5.73,2.42-9.13,0-18.24-.74-27.36-1.17-18.07-.86-36.08-2.76-54.2-2.78-2.79,0-5.75.3-7.68-2.47C394.33,157.49,393.62,153.34,398,152.38Z" transform="translate(-235.44 -145)"/><path class="cls-9" d="M393,160.37a24,24,0,0,0,8.35,1c16.46-.65,32.79,1.61,49.2,2.22,10.9.4,21.83.94,32.73,1.72,1.58.11,3.38.57,4.69-1,3,.2,5.2,2.33,8,3-1.18,3.68-4.39,2.17-6.29,1.76a51.54,51.54,0,0,0-11.86-.74c-17.71.26-35.28-2.41-53-2.24-11.31.11-22.63-1.86-34-2.67-2.57-.19-5.21.56-7.82.89.38-2.57,1.84-3,4-2Z" transform="translate(-235.44 -145)"/><path class="cls-138" d="M485,162.37c-3.63,0-6.46-2.69-10-3-4.71.62-9-.82-13-3,0-1.74.91-3.3,1-5l12,2,1,1c1.82,1.2,4,1.25,6,2,.73,1.16,1.92.94,3,1A4.13,4.13,0,0,1,485,162.37Z" transform="translate(-235.44 -145)"/><path class="cls-139" d="M463,151.37c.43,1.53,4.26,3.91-1,4a4.45,4.45,0,0,1-4.13,1.22c-9.08-1-18.17-1.79-27.31-1.94a4.68,4.68,0,0,1-1.88-.58c-1.44-3.39,1.61-2.87,3-2.92,5.89-.2,11.82-.7,17.67.55-7.11-1.63-14.34-.62-21.5-1-2.49-.11-2.59,1.34-2.49,3.13-2.22,2.73-5.23,1.77-8.05,1.75-2.1-.43-3.7-1.54-3.69-3.8,0-3.17,3.2-1.15,4.42-2.46l1-1c13.57.22,27.22-1.07,40.66,2C460.8,150.64,461.88,151,463,151.37Z" transform="translate(-235.44 -145)"/><path class="cls-140" d="M325,392.21c-.43,1.76-3.1,1.85-3,4l-2-1c-1.35-2.87-4.84-4.4-5-8,.66-1.34,1.33-2.67,2-4Z" transform="translate(-235.44 -145)"/><path class="cls-141" d="M356,171.35l-2-3c.86-3.71,5.68-1.92,7-5,1.32-1.57,3.56-.77,5-2a3.26,3.26,0,0,1,0,4c-1.59,2.72-4.15,4.06-7,5Z" transform="translate(-235.44 -145)"/><path class="cls-142" d="M379,165.36l-3,2-6,3h-1c-1.75,1.15-3.14.73-4-1.1-.94-2,.65-2.93,2-3.89,3.43-1.47,6.11-4.43,10-5h1c1.28-.82,2.16-.33,2.62.93C381.29,163.08,380.56,164.41,379,165.36Z" transform="translate(-235.44 -145)"/><path class="cls-131" d="M379,165.36c.57-1.84,2.59-4-1-5,1.16-1.56,3-1.83,4.66-2.34,4.48-1.34,5.32-.49,4.34,4.34a5.49,5.49,0,0,0-4,2Z" transform="translate(-235.44 -145)"/><path class="cls-143" d="M292.79,325.34c1.15-.15,2.45.14,3.25-1.07,1.61.49,1.37,1.31,0,1.58C295.07,326.06,293.89,325.54,292.79,325.34Z" transform="translate(-235.44 -145)"/><path class="cls-4" d="M365,173.35c.34,2.47,2.27,2,3.85,2,21,.27,41.89,3.11,63,3.31,13.34.12,26.76,1.19,40.13,1.92s26.4,2,39.66,1.81c3.14,0,6.14,1.47,9.35,1a3.42,3.42,0,0,1,2,2c-17.75.37-35.4-1.15-53-2.94a25.41,25.41,0,0,0-3.49,0c-19.6.69-39.05-2.21-58.65-2.3-12.18-.05-24.41-2-36.68-1.67a21,21,0,0,1-10.12-2C361,173.55,362.62,172.93,365,173.35Z" transform="translate(-235.44 -145)"/><path class="cls-144" d="M410,155.38c-1.52,1.51-3.64,1.43-5.49,1.83-3.83.83-5.76-.66-4.5-4.83l9-2C409.21,152.07,408.45,154,410,155.38Z" transform="translate(-235.44 -145)"/><path class="cls-145" d="M410,155.38c-5.41-.65-2.72-2.92-1-5l9-1c-1.82,1.37-7.15,2-1,5-.76,2.62-2.33,2-4,1Z" transform="translate(-235.44 -145)"/><path class="cls-142" d="M379,426.19c1.11,2,1.58,3.78-1,5l-4-1-4-3c-2.21-1.39-2.51-3.31-1.57-5.57,2.36-1.76,4.19.69,6.33.77C376.56,423.24,378.48,424,379,426.19Z" transform="translate(-235.44 -145)"/><path class="cls-146" d="M369,421.18c0,2.07-.19,4.15,1,6-2.79.06-4.33-2.78-7-3l-1-1c-1.37-2.25-1.22-4.12,1.38-5.35,2.18-.21,4.21.05,5.72,1.88A1.28,1.28,0,0,1,369,421.18Z" transform="translate(-235.44 -145)"/><path class="cls-68" d="M583.74,319.19,582,320.34a.58.58,0,0,1-1,0l-.26-.25c.38-1.52-1.24-1.76-1.76-2.7l-.11-.34C581,316.77,583.1,316.28,583.74,319.19Z" transform="translate(-235.44 -145)"/><path class="cls-147" d="M365,173.35c-1.47.83-3.26,1.22-4,3h-1c-6-1.07-1.85-3.81-1-6,1.78-2.43,4.43-3.65,7-5h1c-1.8,2.65-2.55,4.88,2,5C368.5,172.45,366,171.92,365,173.35Z" transform="translate(-235.44 -145)"/><path class="cls-148" d="M345,416.2a2.82,2.82,0,0,0,4-1c2.85-1.47,4.07,1.43,6.07,2.25,1.24,1,2.6,2,2.93,3.75l-3,2A19.07,19.07,0,0,1,345,416.2Z" transform="translate(-235.44 -145)"/><path class="cls-20" d="M482,156.38c-2.24.08-4.41-.07-6-2A9.26,9.26,0,0,1,482,156.38Z" transform="translate(-235.44 -145)"/><path class="cls-149" d="M358,421.2a6.33,6.33,0,0,1-3-3c-.34-2.32-.68-4.66,3-4l6,3c.32.22.44.44.33.66s-.22.33-.33.33c-2.33,1-2,3.08-2,5Z" transform="translate(-235.44 -145)"/><path class="cls-150" d="M421.92,260.39c-.88.41-.87,1.27-1.06,2-.87-1.09-2.15-2.54-1.19-3.6C420.48,257.94,421.42,259.42,421.92,260.39Z" transform="translate(-235.44 -145)"/><path class="cls-99" d="M583.74,319.19c-.94-2.24-3.1-1.69-4.84-2.12,2.06-1.8,4.18-.5,5.82.43C586.15,318.3,584.46,318.8,583.74,319.19Z" transform="translate(-235.44 -145)"/><path class="cls-151" d="M581,320.36a2.31,2.31,0,0,1,1,0c.6,1.58,2.11.57,3.08,1.08a3.92,3.92,0,0,1-4.72.49A14.35,14.35,0,0,1,581,320.36Z" transform="translate(-235.44 -145)"/><path class="cls-122" d="M358,414.2c-2.56.16-1.87,2.76-3,4-2.58.15-3.42-3.16-6-3l-1-1c-.49-2.33-1.76-4.67,0-7,1.38.56,2.25,2.15,4,2C353.37,411.65,356.39,412.09,358,414.2Z" transform="translate(-235.44 -145)"/><path class="cls-152" d="M369,421.18v-1c1.87-1.54,3.9-1,6-.48s3.92,1.69,6,.48h2c12,1.09,24.17.31,36.13,2.36a2.2,2.2,0,0,0,1.86-.36c15.24,2.68,30.65,2.54,46,3.27,4.84.23,9.81-.94,14.63.67,1.22.41,2.2.62,2.32,2.06l-10,3c-8.23-.65-16.45-1.43-24.69-1.93-12.22-.73-24.47-.47-36.68-1.71a151.55,151.55,0,0,0-20.33-.85A37.33,37.33,0,0,1,375,423.2C372.65,423.61,370.79,422.53,369,421.18Z" transform="translate(-235.44 -145)"/><path class="cls-153" d="M375,423.2c9.63,3.12,19.73,2.23,29.53,2.56,11.34.38,22.6,1.91,34,1.63s22.6,1.16,33.9,1.76c1.6.09,2.18.49,1.52,2a39.21,39.21,0,0,1-11,3c-9.9-.3-19.67-2.3-29.56-2.29a50.52,50.52,0,0,1-7.9-.37c-10-1.58-20.25.05-30.29-1.69-3.08-.53-6.15-1.11-9.23-1.64-2.48-.13-4.36-2.41-7-2Z" transform="translate(-235.44 -145)"/><path class="cls-154" d="M386,428.19c7.22.09,14.59,1.76,21.51,1.25,9.11-.66,17.85,1.57,26.89,1,9.3-.58,18.58,2.59,28.06,1.85,1.28-.1.63,1.16.52,1.89l-12,2a1.25,1.25,0,0,1-1.53,0c-7-2.76-14.51-1.35-21.75-2.21-8.8-1-17.79-.57-26.7-.82l-6-1c-2.53-1.36-5-3-8-3Z" transform="translate(-235.44 -145)"/><path class="cls-155" d="M401,433.18a2.16,2.16,0,0,1,2.3-1.39c13.17.51,26.35.85,39.52,1.48,2.54.12,5.68-.25,7.16,2.91-1.5,1.19-3.52-.23-5,1h-7a8.25,8.25,0,0,1-6,0h-8c-2.85-1.05-5.81-.27-8.7-.51a3,3,0,0,1-2.29-.49c-1.41-1.66-3.32-.75-5-1A15.26,15.26,0,0,0,401,433.18Z" transform="translate(-235.44 -145)"/><path class="cls-132" d="M415,436.18c3,.44,6.19-1,9,1h-9c-.34-.22-.45-.44-.34-.66S414.89,436.18,415,436.18Z" transform="translate(-235.44 -145)"/><path class="cls-133" d="M415,436.18v1l-2,3c-1.81-1.33.36-2.66,0-4Z" transform="translate(-235.44 -145)"/><path class="cls-133" d="M445,437.18c1.41-1.65,3.32-.75,5-1h1C449.23,438,447,436.86,445,437.18Z" transform="translate(-235.44 -145)"/><path class="cls-133" d="M432,437.19h6A4.55,4.55,0,0,1,432,437.19Z" transform="translate(-235.44 -145)"/><path class="cls-135" d="M381,420.19c-4,2.73-8-1.09-12,0l-5-2v-1l11,1A9.4,9.4,0,0,0,381,420.19Z" transform="translate(-235.44 -145)"/><path class="cls-135" d="M421,422.19c-.24.22-.51.65-.73.63-12.4-1.14-25,.27-37.26-2.63,1.09-.33,2.25-1.08,3.27-.92C397.78,421.11,409.63,418.85,421,422.19Z" transform="translate(-235.44 -145)"/><path class="cls-8" d="M413,155.38c1.38-.15,2.95.45,4-1,2.66-.44,5.54,1,8-1a2.09,2.09,0,0,1,3,0c11.4-.61,22.67,1.11,34,2,4,2.29,8.85,2.07,13,4a2.07,2.07,0,0,1-2.83,1.94c-5.81-1.41-11.72-.2-17.56-1a177.86,177.86,0,0,0-31.47-1.11c-3.07.15-6.22-.57-9.29-1.12C412.22,157.84,412.46,156.55,413,155.38Z" transform="translate(-235.44 -145)"/><path class="cls-156" d="M428,153.37h-3c-.51-1.34-3.44-.76-2.63-2.93.68-1.78,2.62-1.06,4-1,7.93.17,15.9-.77,23.77,1,1.31.29,3.67-.61,3.45,1.58s-2.75,1.61-4.1,1.26c-6.24-1.64-12.55-.45-18.81-.82A2.88,2.88,0,0,0,428,153.37Z" transform="translate(-235.44 -145)"/></svg>