<svg id="Layer_1" data-name="Layer 1" xmlns="http://www.w3.org/2000/svg" viewBox="0 0 400 400"><defs><style>.cls-1{fill:#fdfefe;}.cls-2{fill:#199c67;}.cls-3{fill:#1aa169;}.cls-4{fill:#436e64;}.cls-5{fill:#23d685;}.cls-6{fill:#1ea66e;}.cls-7{fill:#387460;}.cls-8{fill:#1ba36b;}.cls-9{fill:#1eb976;}.cls-10{fill:#1cad6f;}.cls-11{fill:#1db473;}.cls-12{fill:#2bf899;}.cls-13{fill:#27ef91;}.cls-14{fill:#1fc37a;}.cls-15{fill:#27ec90;}.cls-16{fill:#21ca7e;}.cls-17{fill:#22d182;}.cls-18{fill:#21cf81;}.cls-19{fill:#24de89;}.cls-20{fill:#23db87;}.cls-21{fill:#25e48c;}.cls-22{fill:#28f494;}.cls-23{fill:#1ba96d;}.cls-24{fill:#1db272;}.cls-25{fill:#1ebc77;}.cls-26{fill:#20c57c;}.cls-27{fill:#1fc079;}.cls-28{fill:#26e98e;}.cls-29{fill:#20c77d;}.cls-30{fill:#21cc7f;}</style></defs><title>chronic4</title><path class="cls-1" d="M620.9,297.28q0,98,.1,195.91c0,3.42-.67,4.09-4.09,4.09q-195.91-.16-391.82,0c-3.42,0-4.09-.67-4.09-4.09q.17-195.92,0-391.82c0-3.42.67-4.09,4.09-4.09q195.92.16,391.82,0c3.42,0,4.1.67,4.09,4.09Q620.81,199.34,620.9,297.28Z" transform="translate(-221 -97.28)"/><path class="cls-2" d="M261.19,197.43c.88-.43.89-1.3,1.07-2.08a3.49,3.49,0,0,1,2.91-1c3.54,2.3,4,5,1.37,7.33-4.47,4-6.48,9.42-7.21,15.18-.34,2.76-.77,5.12-2.82,7.16a11.64,11.64,0,0,0-3.23,9.13c.21,4.43-.4,8.64-2.88,12.41a5.55,5.55,0,0,0-.79,4.75c1.27,4.48.36,8.78-.54,13.26-1.83,9-.84,18.22-.3,27.3.68,11.62,3,23.07,5.86,34.32,1.64,6.39,4.33,12.55,6.8,18.71,9.4,23.43,24.58,42.7,42.5,60.22,12.91,12.62,27.89,21.9,43.74,30.1,2.6,1.35,7.34.58,6.3,5.89a3.92,3.92,0,0,1-.64,1.39,26.55,26.55,0,0,0-3.94,3.63c-9.64,2.32-19.26,1.93-29,.38-10.3-1.65-18.34-8-27.41-12.23l0,0c-3.3-5.67-9-9.06-13.09-14.12-9.24-11.52-18.29-23-24.54-36.59-3.23-7-7-13.81-9.93-21-3.31-8.12-5.21-16.67-7.4-25.13-3.69-14.22-4.3-28.76-4.41-43.37-.09-11.5,1.75-22.8,3.08-34.15.58-5,3.08-9.63,3.44-14.73,0-1.05-.61-2.24.73-3,2.91-5,4.52-10.58,6.58-15.93,3-7.88,7.11-15.2,11-22.63C259.42,201,259.93,199,261.19,197.43Z" transform="translate(-221 -97.28)"/><path class="cls-2" d="M600.91,241.46l0,2.68c3.12,8.38,4,17.16,5.46,25.92a163.51,163.51,0,0,1,1.78,30.7,171.16,171.16,0,0,1-7.34,46.8A213.63,213.63,0,0,1,590,376.16c-1.19,2.81-4.81,4.35-4.27,8.09-6.19,12.94-14.66,24.28-24,35.1A92.69,92.69,0,0,1,538.36,439c-11.82,7-24.57,8.32-37.84,7.47-3.66-.23-7.25-.56-10.65-2.12-1.29-.59-2.44-1-2.57-2.64,0-3.85,2-5.81,5.84-5.87a6.88,6.88,0,0,0,3.3-1.06c11.82-6.77,23.83-13.17,34.25-22.17,19.6-16.92,35.9-36.25,47-59.92,3.8-8.13,7.17-16.46,10.77-24.65,2.85-6.45,3.29-14.16,4-21.42,1.14-11.55,2.48-23,1.9-34.78-.26-5.35-.81-11,.17-16.68.61-3.47-.26-7.68-1.35-11.23-1.28-4.2.29-5.86,3.72-7.06C600.63,236.26,599.28,240.17,600.91,241.46Z" transform="translate(-221 -97.28)"/><path class="cls-3" d="M596.94,237.26c-5,4.77-1.74,10.21-1,15.31.24,1.64,1.12,3-.19,4.47a3.37,3.37,0,0,0-.76,3.29c2.54,7.13.63,14.46.67,21.62.08,12.69-2,25.27-4.17,37.86-2.55,14.81-9.84,27.57-16.16,40.55A138.27,138.27,0,0,1,550,395.87c-10.5,10.82-21.42,21-34.06,29.28-6.36,4.15-13.06,7.77-19.65,11.57a3.53,3.53,0,0,1-2.38.44c-3.64-.91-4.85,1.57-6.07,4.12-3.19,2.12-5.39.51-7.38-1.94a5,5,0,0,1,0-4.86c15-2,26.65-10.6,38.62-18.92,15.61-10.86,28.4-24.54,39.9-39.39,6.45-8.34,11.21-17.91,15.71-27.61,7.93-17.1,12.18-35.14,15.39-53.48,1.32-7.51,1-15.31.15-22.9-1.6-15-2.73-30.07-7.57-44.47-2.27-6.72-6.38-12.78-7.74-19.82-1-5-4.37-9.21-4.61-14.43a3.5,3.5,0,0,1,2.41-1.89c2.47-.27,4.05,1,5.26,3,3.1,5.24,7.36,9.8,9.14,15.83a4.84,4.84,0,0,0,1.89,2.86l1,.92c2.15,5.45,3.89,11.05,5.91,16.56a10.59,10.59,0,0,0,1.46,4.57A2,2,0,0,1,596.94,237.26Z" transform="translate(-221 -97.28)"/><path class="cls-4" d="M481,439.13c2.18,1.05,4.13,2.86,6.87,2.15a13.2,13.2,0,0,0,9.42,3.91c6.16,0,12.35.45,18.47-.07,9.55-.8,18-4.87,26.24-9.64,5.08-2.94,9.24-7,13.29-10.76A86.82,86.82,0,0,0,566.7,412c4.06-5.7,7.74-11.66,11.93-17.25,2.69-3.58,4.11-7.76,6.35-11.53a39.62,39.62,0,0,1,3.93-6c-.45-2.19,1.13-3.65,1.86-5.45,3.27-8.08,6.49-16.08,8.74-24.66,2.39-9.15,4-18.28,5.82-27.48,2.87-14.42,1.95-28.79,1-43-.54-8.34-.14-17.38-3.7-25.36-1.09-2.45-1.9-4.6-1.71-7.18,4,3.45,3.84,8.64,4.67,13,2.39,12.57,4.37,25.37,4.16,38.17-.68,41.92-12.6,80.21-38.27,113.83-7.82,10.24-15.71,20.35-26.59,27.63-26,17.41-60.11,14.78-82.49-7.46-13.92-13.83-20-30.27-18.3-49.51.7-7.88,2.63-15.72,6.8-22.72a2.48,2.48,0,0,1,.88,1.25c.46,2.12-.38,4.07-.8,6.08a40.39,40.39,0,0,0-2.93,11,8,8,0,0,1-.36,1.54c-.56,8.55-1.23,17.1,1.82,25.37.67,2.09.92,4.31,2,6.26,1.26,2.6,2.26,5.33,4.17,7.57a7.31,7.31,0,0,1,.83,1c.48.71.91,1.47,1.42,2.18a39.42,39.42,0,0,1,2.75,3.67c1,1.83,2.81,2.62,4.39,3.73.94.9,1.61,2,2.64,2.87,1.53,1.25,3.34,2.12,4.8,3.47C474.51,436.24,478.71,436.34,481,439.13Z" transform="translate(-221 -97.28)"/><path class="cls-5" d="M411.86,160.34c-2.17.58-4.3,1.34-6.6,1-2.23,1.13-4.83.68-7.08,1.7a4.83,4.83,0,0,1-1.42,0,22.94,22.94,0,0,0-17,4.22c-2.31,1.69-4.65,3.71-7.76,4.06-3.73.42-5.59,3.16-7.34,6a4.65,4.65,0,0,1-1.15.93c-4.08,1.75-8.15,3.38-11.81-.81-.86-3.14,1.56-4.37,3.44-5.92,10.61-8.72,23.71-12.1,36.22-16.68,4.19-1.53,8.77.83,13.19-.79,2.39-.88,4.9-2.17,7.68-1.54a5.1,5.1,0,0,1,1.4.55c4.07,1.85,8.33.88,12.53.75.93,0,1.22-1,1.41-1.79,1-3.93,3.61-4.47,7-3.35,3.25,3.39,7.91,2.91,11.9,4.18,5.05,1.6,10.08,3.25,15.13,4.87a8.86,8.86,0,0,1,5.84,5c.21.6.57,1.34.26,1.84-1.19,1.94-1.7,3.65.51,5.3.49.36,0,1.18-.41,1.7-5.16.07-8.75-4-13.48-5.12a13.53,13.53,0,0,1-3.55-1.63c-1.72-3-4.53-1.72-7-1.75C433.3,160.14,422.58,160.18,411.86,160.34Z" transform="translate(-221 -97.28)"/><path class="cls-4" d="M240.18,244.21c2.18,4.74-1.69,8.58-2,13-.07.89-.83,2-1,3.16-2.32,15.57-2.6,31.26-1.91,46.9.59,13.3,1.81,26.47,7.17,39.17,2.1,5,2.36,11,4.61,16.35,2.09,4.95,4,10.22,6.66,14.64,6.52,10.81,11.33,22.64,20.21,32.18,5.35,5.74,9.89,12.29,15.91,17.49,1.88,1.63,3.92,3.23,3.25,6.21-7.44-3.93-12-10.89-17.18-17a182.39,182.39,0,0,1-26.73-42.75A185,185,0,0,1,235,326.41c-1.72-10.79-3.13-21.68-2.68-32.5C233,277.11,234,260.21,240.18,244.21Z" transform="translate(-221 -97.28)"/><path class="cls-6" d="M379,113.48a2.74,2.74,0,0,1,.9-.15c5.82-1.24,11.5-3.25,17.57-3,3-.34,6-.8,9-1.32a164.26,164.26,0,0,1,35.12.42c4.54.54,9.18.72,13.57,2.37a13,13,0,0,0,5.9.47l2.88,1.18c2.19,1.33,4.73.86,7.09,1.34,1.7.34,2.87.66,2.07,2.72-8.32,1.78-16.69,4.66-24.65-1.2a8.5,8.5,0,0,0-4.68-1.5,389.42,389.42,0,0,0-45.71,0,12.86,12.86,0,0,0-5.12,1.76c-4.71,2.45-9.43,4.9-15.06,4.23-2.45-.29-3.67,2-5.52,3a7.53,7.53,0,0,1-2.3.82,19.27,19.27,0,0,0-2.35.6c-6,2-6.49,1.81-9.23-4,1.16-4.64,5.75-3.31,8.69-4.75C370.82,114.73,375.06,114.51,379,113.48Z" transform="translate(-221 -97.28)"/><path class="cls-4" d="M379,113.48c-2.42,3.52-6.71,2-10,3.5-2.65,1.24-5.73,3-9.1,2.79-.3,0-.66,1-1,1.52a3.12,3.12,0,0,1-1.84,1.19c-6.23,1.74-11.53,5.66-17.65,7.65a22.76,22.76,0,0,0-8,3.81c-3,2.64-6.9,3.88-10.15,6.16a95,95,0,0,0-15.27,11c-4.74,4.1-9.92,7.61-14.16,12.38-7.53,8.46-15.05,16.92-22,25.9a11.33,11.33,0,0,0-3.12,4.07,9.53,9.53,0,0,1-1.73,1.91l-2.8,0c2.18-6.66,7.08-11.59,11.28-16.83a187.79,187.79,0,0,1,52.12-45.27A194.73,194.73,0,0,1,373,113.48C374.89,113,377,113.46,379,113.48Z" transform="translate(-221 -97.28)"/><path class="cls-4" d="M509,129.3a175.84,175.84,0,0,1,49,36.83c6.71,7.07,13.62,14.2,18.06,23.14-1,1.9-2.29,1.43-3.62.41-3-4.57-7-8.46-9.59-13.39-6.41-6.86-13-13.56-19.9-19.91-.39-.25-.76-.52-1.13-.78-6.82-4.9-13.06-10.54-20.2-15.06-3.63-2.29-7.72-3.72-11.14-6.36-.76-1.38-2.19-2.48-1.9-4.33Z" transform="translate(-221 -97.28)"/><path class="cls-4" d="M505.82,283.23c1.81-7.24,4.26-14.23,5.38-21.74,1.89-12.72,0-24.86-3.63-36.78-5.56-18.43-16.52-33.29-31.74-45a19.62,19.62,0,0,1-2-2.13l.45-.59A2.86,2.86,0,0,1,477,177c9.84,6.44,17.35,15,23.43,25,.24.36.45.75.66,1.14s.42.75.61,1.14a28.38,28.38,0,0,0,2.06,3.26c.59,1,1.13,2,1.63,3.08,3.08,7.29,6.38,14.5,7.88,22.34.69,4.48,1.39,8.94,1.07,13.49,0,3.49,0,7,0,10.45a56.34,56.34,0,0,1-6.11,26.5A1.92,1.92,0,0,1,505.82,283.23Z" transform="translate(-221 -97.28)"/><path class="cls-4" d="M293,433.25c5.08-1.74,8.1,2.57,11.33,4.68,13.36,8.72,28.12,7.33,42.79,7.19a1.85,1.85,0,0,0,1.93-1.85c1.25-.87,3-.71,4-2h0a4.61,4.61,0,0,1,5.63-.49,1.57,1.57,0,0,1,.36,2.27c-17,7.27-34,7-50.86-.33C302.74,440.33,296.9,438.24,293,433.25Z" transform="translate(-221 -97.28)"/><path class="cls-7" d="M361.12,318.18c13.59,12.42,25.82,25.86,33,43.21a8.37,8.37,0,0,1,1,3.73c.43,1-.2,1.43-1,1.75a2.47,2.47,0,0,1-2.68-1.18c-4.08-14.47-13.14-25.62-23.66-35.88-3.18-3.1-7.33-5.78-7.15-11.12Z" transform="translate(-221 -97.28)"/><path class="cls-4" d="M398,164.2c-20.05,5.07-35.93,16.47-48.92,32.26a2.46,2.46,0,0,1-.86-2c3-7.84,9.63-12.28,15.87-17.1v0c5.68-6,13.44-8.68,20.59-12.18,3.74-1.83,7.81-3.65,12.3-3.09l0,.3C397.61,162.89,398.49,163.16,398,164.2Z" transform="translate(-221 -97.28)"/><path class="cls-4" d="M461.11,112.29c-2,1.93-4.53,1.38-6.57.8-14.39-4.09-29-4.55-43.72-2.79a6.87,6.87,0,0,1-4.76-.9c-2.78.41-5.58,2-8.31-.15,4.5-1.63,9.32-1.48,13.92-1.72A188.55,188.55,0,0,1,460,111.44C460.44,111.52,460.76,112,461.11,112.29Z" transform="translate(-221 -97.28)"/><path class="cls-4" d="M451,164.29c6,1.61,11.19,5,16.9,7.17h.62a9.93,9.93,0,0,1,2.27,1,9.16,9.16,0,0,1,1.06.69c1.05,1.15,3.25,1.62,2.36,3.93l-.39.42c-10.86-6.63-22.13-12.21-34.77-14.65a111.51,111.51,0,0,0-22.11-1.61c-1.67,0-3.67.95-5.05-.93,5.08-2.26,10.49-1.25,15.59-.81,5.84.51,11.83,1,17.5,2.85C447.13,162.49,449.59,161.69,451,164.29Z" transform="translate(-221 -97.28)"/><path class="cls-7" d="M359.06,443l-.05-1.86c.07-.2.14-.4.2-.6a18.13,18.13,0,0,1,2.28-2.19,6.64,6.64,0,0,1,2.46-2c1.56-.46,3.33-.46,4.43-2a20.45,20.45,0,0,1,4.3-4.06,25,25,0,0,0,7.14-5.93c1.19-2.18,3.2-3.67,4.62-5.67,2.63-2.7,4.05-6.14,5.71-9.42.69-1.29,1.39-2.58,2-3.92a11.26,11.26,0,0,0,.54-3,1.66,1.66,0,0,1,1-.78,1.69,1.69,0,0,1,1.75.87,4.5,4.5,0,0,1-.38,2.82C388.51,423.13,376.28,435.47,359.06,443Z" transform="translate(-221 -97.28)"/><path class="cls-4" d="M261.19,197.43c-.16,1.14,0,2.46-.52,3.39a277.41,277.41,0,0,0-17.6,38.85,2.09,2.09,0,0,1-2.16,1.59c2.6-11.39,7.4-21.89,12.82-32.16C255.89,205,257.45,200.52,261.19,197.43Z" transform="translate(-221 -97.28)"/><path class="cls-4" d="M335.2,221.36c-2.47,8.77-4.6,17.6-5.15,26.74-.65,10.75,1.88,21,4.84,31.19a1.85,1.85,0,0,1-2.14.28c-4.25-6.62-5.33-14-5.1-21.69,0-.53,0-1.06,0-1.6,0-3.29.06-6.59-.06-9.88-.35-6.11.71-12.06,2-18a38.68,38.68,0,0,1,1-5.1,5.39,5.39,0,0,1,3.3-2.53A1.9,1.9,0,0,1,335.2,221.36Z" transform="translate(-221 -97.28)"/><path class="cls-4" d="M473,117.36c-.37-2.43-2.32-1.82-3.84-1.93-1.91-.15-4,.29-5.13-2,7.46-.74,13.94,2.8,20.65,5,8.44,2.79,16.75,6.07,24.37,10.81l-.21.23c-1.66,1.38-3.58,1.18-5.51.91-6-3.06-11.82-6.65-18.6-8C480.84,120.65,476.23,120.53,473,117.36Z" transform="translate(-221 -97.28)"/><path class="cls-7" d="M333.19,279.29h1.7c5.76,13.82,14.93,25.4,24.23,36.89l-.57.48c-5.56-.31-7.24-5.36-10.17-8.66-5.26-5.91-9-13-13.49-19.48C333.16,286,331.46,282.78,333.19,279.29Z" transform="translate(-221 -97.28)"/><path class="cls-7" d="M460.88,340.16a72,72,0,0,1,12.4-14.68c6-5.72,11.43-12,16.89-18.19a1.44,1.44,0,0,1,2-.12c.69,1.24.11,2.24-.63,3.18-8.18,10.5-17.89,19.59-26.94,29.29a3,3,0,0,1-3.16,1Z" transform="translate(-221 -97.28)"/><path class="cls-7" d="M573.07,189.32a2.49,2.49,0,0,0,3,0c5.53,7.35,11.2,14.62,13,24a4.06,4.06,0,0,1-3.85-3.29c-.87-6.7-6.89-10.41-9.11-16.3-.29-.75-2-1-3-1.42a1.76,1.76,0,0,1-.81-1.09A1.82,1.82,0,0,1,573.07,189.32Z" transform="translate(-221 -97.28)"/><path class="cls-4" d="M395.07,405.37c-.05-1.1-.09-2.19-.13-3.28a4.42,4.42,0,0,1-.83-4,51.42,51.42,0,0,0,.14-25,40.19,40.19,0,0,1-1.07-4.59,3.31,3.31,0,0,1,.7-2.19l1.19-1.18A51.89,51.89,0,0,1,395.07,405.37Z" transform="translate(-221 -97.28)"/><path class="cls-4" d="M594.93,231.29C593,226.12,591,221,589.16,215.77c-.13-.39.55-1.06.85-1.6,5.82,8.22,8.94,17.52,10.9,27.29-2.83,0-1.13-4.23-4-4.2,0-.65-.05-1.3-.07-2C595.59,234.27,596.28,232.29,594.93,231.29Z" transform="translate(-221 -97.28)"/><path class="cls-7" d="M335.2,221.36l-1.25-.07a2.82,2.82,0,0,1-.86-1.89c0-3.62,2.37-6.34,3.62-9.5a13,13,0,0,1,.47-1.23l.27-.6a13,13,0,0,1,.59-1.18,7.2,7.2,0,0,1,.71-1.11c1.08-1.12,2.11-2.37,4-1.83l.45.49Z" transform="translate(-221 -97.28)"/><path class="cls-4" d="M398,111.25c-6.19-.75-11.82,3.36-18.07,2.08.22-.59.38-1.66.65-1.69,5.52-.51,10.81-2.8,16.48-2.18C397.58,109.93,398.54,110.19,398,111.25Z" transform="translate(-221 -97.28)"/><path class="cls-4" d="M492,307.28h-1.81l10.74-15.16a2.84,2.84,0,0,1,1,2C500.6,300,498.24,305.13,492,307.28Z" transform="translate(-221 -97.28)"/><path class="cls-7" d="M451.12,358.41c-.06-.44-.13-.87-.19-1.31a51.19,51.19,0,0,1,9.95-16.94l.72.7A29.41,29.41,0,0,1,451.12,358.41Z" transform="translate(-221 -97.28)"/><path class="cls-7" d="M349,194.19c0,.76.09,1.51.13,2.27l-5.92,8-.41-.38C342.32,199,344.62,195.33,349,194.19Z" transform="translate(-221 -97.28)"/><path class="cls-7" d="M505.82,283.23l1.85,0c1.06,4.24-1.13,6.73-4.61,8.52a1.78,1.78,0,0,1-1.26-.65A27.67,27.67,0,0,1,505.82,283.23Z" transform="translate(-221 -97.28)"/><path class="cls-7" d="M398,111.25l-.94-1.79a.7.7,0,0,1,.72-.21l8.31.15A11,11,0,0,1,398,111.25Z" transform="translate(-221 -97.28)"/><path class="cls-7" d="M398,164.2l-1-1.75a17.42,17.42,0,0,1,8.24-1.11C403.51,164,400.27,162.87,398,164.2Z" transform="translate(-221 -97.28)"/><path class="cls-7" d="M359.12,316.18l2,2-.65.62a1.72,1.72,0,0,1-2-2Z" transform="translate(-221 -97.28)"/><path class="cls-7" d="M501.09,294.46l-.18-2.33.89-1,.71.66C502.76,293.06,502.8,294.23,501.09,294.46Z" transform="translate(-221 -97.28)"/><path class="cls-8" d="M364,437.26l-2,2c-1.06.58-2.48.6-3,2v0l-5.94.08c.07-2.65-.71-3.41-3.61-5-8.35-4.55-17.09-8.44-25.1-13.82-12.43-8.35-22.73-18.81-32.9-29.47a145.71,145.71,0,0,1-17.39-22.27c-7.76-12.14-13.22-25.15-18.27-38.52-4.52-12-5.82-24.5-7.88-37-1.48-9,.12-17.91-1.36-26.81-.37-2.24.89-4.85,1.72-7.18,1.67-4.7-.93-9.38-.34-13.56.56-3.93,4.42-7.56,4.11-12.26-.36-5.34-.08-10.3,5-13.71a3.19,3.19,0,0,0,1-2.66c-.94-5.47,2-9.68,4.42-14a7.68,7.68,0,0,0,.69-3.36c.07-.82.15-1.94,1.24-1.67s2.54,1.75,2.67-.83c.08-1.58.57-3.52-1.95-3.84a2,2,0,0,1,1-2c1.63-.85,2-2.69,3-4,2.71-4.06,5.16-8.26,8.61-11.83,4.59-4.75,8.82-9.84,13.21-14.78,6.15-6.91,13.55-12.34,21.07-17.64,2.93-2.07,5.09-5.34,9.08-5.73,1.33,2-.67,3.09-1.25,4.58a2.34,2.34,0,0,1-1,.74c-3.85,3.06-7,6.8-10.46,10.27-1.28,1.29-2.42,2.7-4.13,3.45-4.47,3-6.86,7.78-10.15,11.73-4.11,4.94-8.94,9.4-12,15.22a14.58,14.58,0,0,1-.94,1.14c-5.13,6.21-8.43,13.48-11.41,20.82C263.35,223,257.77,239,255.83,255.83c-1.58,13.64-2.71,27.16-.66,41.17,3.05,20.91,9.92,40.29,18.48,59.27a104.54,104.54,0,0,0,17.41,26.05c11.93,13.5,24.59,26.38,39.64,36.29A108.26,108.26,0,0,0,359,432.05C361.66,432.85,363.92,434,364,437.26Z" transform="translate(-221 -97.28)"/><path class="cls-8" d="M353.08,441.25c-.35,2.66-2.48,1.77-4,2A5,5,0,0,1,353.08,441.25Z" transform="translate(-221 -97.28)"/><path class="cls-7" d="M588.91,377.24c-.72,2.38-.94,5.1-3.93,6C583.81,379.61,586.54,378.54,588.91,377.24Z" transform="translate(-221 -97.28)"/><path class="cls-8" d="M570.93,193.33c5.42,9.54,6,20.91,12,30.43,3,4.79,4.07,11.19,4.79,17,1.92,15.31,4.68,30.53,4.37,46.12-.21,10.59-3,20.6-5.24,30.73-2.78,12.59-7.9,24.38-13.3,36.17-9.38,20.48-23.74,36.63-39.83,51.88-6,5.64-12.78,9.83-19,14.94-7.64,6.28-17.2,9.77-26,14.32-2.14,1.11-5.26.73-7.72-.72l-.26-.75a2.66,2.66,0,0,1,1-1.18c8.89-4.15,17.93-8,26.51-12.79,7.46-4.15,13.8-9.93,20.22-15.38,10.92-9.26,21-19.73,29-31.53,5.23-7.79,10.43-16,14.07-25,4.74-11.77,9.52-23.52,11.65-36,2.73-16,5.66-31.86,3-48.46-2-12.83-5.44-25.33-7.33-38.14-.31-2.1-1.83-3.51-2.82-5.22-2.58-8-7.79-14.71-11.15-22.34-1.1-2.51-1-4.54,2.21-5.23A4.28,4.28,0,0,1,570.93,193.33Z" transform="translate(-221 -97.28)"/><path class="cls-6" d="M570.93,193.33h-4c-.61-.68-1.4-1.18-2-1.85-3.1-5-9.53-8-8.86-15.19.06-.61.45-.28,0-.42-6.63-1.92-6.25-10.54-12.33-12.88-2.32-.9-4-3.54-7-2.63-4.88-1.94-8.59-5.53-12.15-9.13-5.76-5.83-13.06-9.39-19.61-14-4.44-3.15-8.64-6.69-14.2-7.9a31.68,31.68,0,0,0-4.3-1c-4.36-.34-4.56-.79-2.73-4.79a7.49,7.49,0,0,1,1.23-2.14,41.7,41.7,0,0,1,18,8c2.19,2.23,5.46,2.31,7.94,4,12,5.41,22.22,13.4,32,22h0c7,4.82,12.18,11.49,18.14,17.37l2.84,2.75c.1.12.31.35.29.37-3.66,3.89-.16,5.9,2.15,8.22a59.16,59.16,0,0,1,6.62,7.26c0,.3.06.61.1.91Z" transform="translate(-221 -97.28)"/><path class="cls-6" d="M481,433.22c0,.33,0,.66,0,1v4.91c-3.44-1.34-7.73-1.33-9.17-5.82C474.85,431.93,477.9,431.48,481,433.22Z" transform="translate(-221 -97.28)"/><path class="cls-2" d="M594.93,231.29c2.61.39,1.79,2.43,1.94,4C594.21,234.93,595.11,232.85,594.93,231.29Z" transform="translate(-221 -97.28)"/><path class="cls-9" d="M464.9,427.34c-2.22-.65-4.62-1.07-4.95-4,.68-2.27-4.34-5.38,1-7,2.43.16,3.66,1.66,4.58,3.64,1.5-1.7,3.14-3.84,6.09-4,10.28-2.42,19.59-7.22,28.13-13.12,6.46-4.47,13.87-7.94,18.58-14.69a5.27,5.27,0,0,1,1.15-.83,79,79,0,0,0,20.59-22.58,5.34,5.34,0,0,1,.8-1.2,103.18,103.18,0,0,0,14.87-25.63c1.74-4.28,3.44-8.57,5.35-12.78A23.56,23.56,0,0,0,562.8,316a6.4,6.4,0,0,1,.77-2.25c4-6.12,3.91-13.42,4.57-20.14.81-8.28,1.47-16.7.54-25.21-1.66-15.21-4.45-30.07-9.85-44.41a19.82,19.82,0,0,0-2.64-5.31,5.88,5.88,0,0,1-.88-1.23,21.56,21.56,0,0,0-1.61-3.18c-.26-.38-.49-.78-.71-1.18-.88-1.81-1.73-3.65-2.7-5.42s-2.08-3.32-3-5.05c-.65-1.2-1.48-2.28-2.17-3.46a8,8,0,0,1-.61-1.33,140.62,140.62,0,0,0-53.36-49.53,148.16,148.16,0,0,0-53.31-17c-13.74-1.58-27.82-1.68-41.69,1.17-14.4,3-28.3,7.22-41.16,14.48-2.58,1.46-6,1.23-7.92,3.89a5.56,5.56,0,0,1-2.43,1.68c-5.52,2.48-10.05,6.7-15.82,8.8-2.16.79-3.32,3.11-4,5.41-1.94,3.19-4.86,5.33-7.85,7.4-3.94,1.64-5.92,5.33-8.42,8.35-13,15.64-23.51,32.7-29.34,52.34a164.16,164.16,0,0,0-5.83,34.32,131,131,0,0,0,4.91,46.65c3.65,12.75,8,25,14.69,36.35,8.54,14.34,18.51,27.43,31.76,38.1,11.51,9.27,23.44,17.48,37.05,23.23a80,80,0,0,0,8.46,3c2.35.7,4.47,1.9,2.93,5-3.76.6-7.23-.77-10.56-2a132,132,0,0,1-30.26-16.18c-19.23-13.6-33.92-31-45.79-51.28-6.24-10.65-9.4-22.21-13.29-33.67-5.2-15.29-6.13-30.95-5.46-46.77a157.16,157.16,0,0,1,14.08-58.73,143.18,143.18,0,0,1,26.58-39.58c10-10.52,20.81-20.49,33.69-27.88,9.4-5.39,18.9-10.46,28.77-14.89,1.82-.82,3.56-2,5.58-2.11,13.12-1,25.87-4.36,38.89-6a57,57,0,0,1,13.92.42c11.07,1.31,21.87,4.16,32.94,5.42,7.28.82,13.43,4.79,20,7.45,20.6,8.31,38,21.39,52.72,37.7a159.38,159.38,0,0,1,32,53c6.94,19.16,9,38.88,8,58.89a170.72,170.72,0,0,1-4.38,31.95c-5.8,23.54-17.94,43.48-32.16,62.47-5,6.71-11.71,11.87-18.1,17.11-9.47,7.8-19.24,15.52-30.84,20C481.16,419.94,473.45,424.62,464.9,427.34Z" transform="translate(-221 -97.28)"/><path class="cls-10" d="M481,433.22l-9.15.09c-2.05-.37-3.39-1.91-5-3a11.12,11.12,0,0,1,6.73-4.32c7.21-2.84,14.52-5.49,21.37-9.15a141.6,141.6,0,0,0,27.23-18.91,6.28,6.28,0,0,0,1.61-1.87,6.44,6.44,0,0,1,.82-1.12c3.83-3.08,8-5.75,10.94-9.87a5.67,5.67,0,0,1,1.12-.76,4.57,4.57,0,0,0,3.26-3.78,7.07,7.07,0,0,1,.52-1.24c.66-.93,1.51-1.7,2.21-2.6.31-.38.65-.73,1-1.08,9.45-11.87,17.46-24.45,22.86-38.84,3.47-9.23,5.89-18.67,8.69-28a54.31,54.31,0,0,0,1.54-8.81c1.66-12.89,1.54-25.79.95-38.74-.37-7.91-2.64-15.42-4.53-22.93-4.7-18.67-12.33-36.14-24.11-51.6a79.22,79.22,0,0,0-8.17-8.71,5.37,5.37,0,0,1-1-2,7.37,7.37,0,0,0-2.41-4.22c-3.09-2.75-6.32-5.39-8-9.34-.69-1.58-2.28-1.79-3.69-2.23a4.37,4.37,0,0,1-1.2-.74,30.94,30.94,0,0,0-9.14-8.38c-3.58-2-5.52-5.55-8.91-7.84-8-5.42-17.85-6.51-25.8-11.79-1.55-1-4.78-.7-3.68-4.16.23-.74-.41-.7-.84-.66-4.35.35-8.57-3.42-13-.37a9,9,0,0,1-3.92-.49c-18.39-5.64-37.1-5.82-56.06-3.89A97.18,97.18,0,0,0,381.8,126c-3.69,1.25-7.24.91-9.78-2.63.12-2.32,3.79-2.28,3.37-5,0,0,.92-.4,1.19-.24,6.57,3.88,11.36-.92,16.55-3.45a8.74,8.74,0,0,1,3.63-1.32c9.19-.29,18.4-1.23,27.55-.79,6.93.33,13.85.81,20.79.78,1.83,0,3,1.16,4.41,1.89,4.05,2,7.68,5.16,13.12,2.49,2.83-1.38,6.85-.32,10.33-.36,4.34.34,8.08,2.46,12,4,0,1.86,2.71,4.49-2.66,5.08,9.44.43,15.79,4.64,22.51,9,7.95,5.17,16,10.33,23.06,16.49,3,2.56,6,5,9.06,7.41,8.78,9.61,18.06,18.84,23.91,30.71,1.32,2.67,3.86-1,5.08,1.26a2.09,2.09,0,0,1,1,2c-1.74.21-2.48,1.22-1.5,2.7,2.8,4.23,3.79,9.51,7.74,13.06,3,2.73.76,7.45,3.75,10.23,2.63,10.27,4.93,20.61,7.42,30.91a80.85,80.85,0,0,1,1.84,17.24c.22,9.31.66,18.68-.36,27.95a177,177,0,0,1-10.76,43.65c-4.41,11.57-11,21.85-16.89,32.53-3.27,5.94-8.6,10.55-13,15.73-9.76,11.41-21.16,21.08-33.27,29.87-6.18,4.48-13.35,7.39-20.38,10.41-3.66,1.57-7.36,3.09-10.53,5.6Z" transform="translate(-221 -97.28)"/><path class="cls-11" d="M536.94,385.24h-1c-3.22,3.83-7.65,6.32-11,10v1c-8.12,6.23-16.3,12.38-24.93,17.9a80.13,80.13,0,0,1-14.31,6.81A44,44,0,0,0,474,427.22c-3-.43-4.22,3.3-7.14,3.09a3.38,3.38,0,0,1-1.93-3c8.22-6.44,18.43-8.77,27.56-13.33,10.43-5.21,19.55-12.32,28.68-19.44,17-13.28,28.31-31.1,38.14-49.75,4.09-7.75,6.71-16.44,9.19-25.07,4.54-15.83,5.84-31.9,5.35-48.13-.42-13.88-2.12-27.59-6.77-40.94a166,166,0,0,0-20.11-40.35,159,159,0,0,0-38.68-39c-13.18-9.39-27.69-16.77-43.16-20.9-9.53-2.54-19.52-5.13-29.72-5-4.17,0-7.95-2.27-12.22-2-12.57.73-24.82,4-37.23,5.18-12,1.12-22,6.22-31.9,11.6A179.9,179.9,0,0,0,321,163.21c-11.43,10-20.6,21.47-29,33.78-6.33,9.32-10.72,19.65-14.52,30.3-7.42,20.81-9.55,42.32-8.24,64.11.87,14.36,5.39,28.07,10.11,41.72,6.58,19.06,18.16,34.92,31.17,49.62,7.69,8.67,17.1,16,27,22.45,8,5.2,16.49,9.16,25.16,12.92,3.32,1.44,7.16,1.1,10.29,3.11a.9.9,0,0,1,1.35.2,2.84,2.84,0,0,1,.06,2.3c-1,2.11-2.58,2.22-4.57,1.45-10.86-4.19-21.78-8.1-31.59-14.69a205.51,205.51,0,0,1-20.46-15.06c-13.73-11.91-24.21-26.39-33.59-41.84s-14.62-32.52-17.76-49.95c-2.38-13.14-2.34-26.76-1.21-40.29a143.52,143.52,0,0,1,8.25-37.89c5.35-14.59,11.94-28.55,22-40.6a24.3,24.3,0,0,0,4.41-6.62,5.7,5.7,0,0,1,.81-1.25A316.28,316.28,0,0,1,324.8,153.3c3.82-3.32,8.88-5.38,11.15-10.38,5.15-2.85,9.88-6.51,15.59-8.34,6.16-2,10.87-6.76,17-8.77,1.05-.34.67-1.8,1.45-2.45h2c5.51,3.53,10.56.36,16-.7a177.09,177.09,0,0,1,53.56-2.23c7.79.84,14.88,3.71,22.45,4.93,8.26,3,16.12,7.1,24.36,10.11a79,79,0,0,1,21.15,12.05c5.15,3.94,10.59,7.51,15.46,11.82h1c4.45,5.84,9.83,10.81,15,16v2c16.53,17.23,26.3,38.17,32.5,60.83,4.95,18.09,5.32,36.61,4.14,55.31-.7,11.1-3.63,21.61-6.72,32a139.34,139.34,0,0,1-25,47.77c-1,1.3-1.8,2.8-3,4-.67.66-1.33,1.34-2,2v1C539.65,381.94,538.64,383.86,536.94,385.24Z" transform="translate(-221 -97.28)"/><path class="cls-12" d="M501.09,294.46c.47-.9.94-1.79,1.42-2.67,2.92-2.12,4-5.35,5.16-8.53,2.35-8.46,5.77-16.68,5.51-25.7a1.18,1.18,0,0,1,1.23-.71,1.88,1.88,0,0,1,1.23.83c2.42,4.54,4.42,9.09.43,13.84a1.81,1.81,0,0,0-.06,2.3c1.44,2.29,1.2,4.78.86,7.27-.07.5-.3,1.18,0,1.47,4.24,4.54.52,8.18-1.05,12.28-1.9,5-2.84,10.26-4.43,15.35-3.78,12.09-10.47,22.53-18.46,32.21a37.94,37.94,0,0,1-8.92,7.92,75.34,75.34,0,0,0-10.91,7.9c-5.48,5.1-12.84,6.85-19.12,10.54a2.93,2.93,0,0,1-2.89-.12c-1.49-1.19-.69-2.85-.9-4.31-.78-2.15,1.25-3.85,1-5.92a151.81,151.81,0,0,0,10.48-17.56c10.33-11,21.67-21.1,30.38-33.57A26.77,26.77,0,0,0,501.09,294.46Z" transform="translate(-221 -97.28)"/><path class="cls-5" d="M474.18,177.12c-.14-2.05-2.79-2-3.22-3.75.29-.92.59-1.65-.33-2.61-3.55-3.72-3.47-4.16.53-8,3-1.25,5,1.1,7.34,2.19,21.68,10.27,38.4,25.84,50.69,46.48,4.54,7.62,9,15.26,11.82,23.59a119.58,119.58,0,0,1,6.13,29.14c.28,3.66.25,7.32,1.46,10.84a5.23,5.23,0,0,1,.3,2.47c-2.24,13.89-2.54,28-7.5,41.55-11.34,31-30.63,54.81-59.86,70.59-6.36,3.44-13.29,5.29-19.54,8.75-2.08,1.16-5.73-1.47-6.46,2.74a8.77,8.77,0,0,1-4.51,2.75,2.57,2.57,0,0,1-2.15-.55c-2.59-2.55-2.48-6.14-2.62-9.16-.27-5.95-1.23-12,.63-17.92l.62.57c1,1.79.78,3.76.85,5.7.12,2.65-.07,5.3,0,7.94.29,2.62,2.23,1.93,3.81,1.86,10.29-.43,19.24-4.74,28-9.75,17.21-9.9,30.93-23.5,42.23-39.67,7.55-10.82,11.69-23.18,14.88-35.75a117.73,117.73,0,0,0-.73-62.6A111.62,111.62,0,0,0,523,214.68c-7-10.78-15.62-19.7-24.54-28.61-3-3-7.73-3.31-9.86-7.26a9.42,9.42,0,0,1-1.86-1c-2.43-2.78-5.62-4.21-9.12-5.34-.33,1.6.62,3.07-.21,4.44l-.49.49Z" transform="translate(-221 -97.28)"/><path class="cls-13" d="M451,368.25c7.67-3.22,15.69-5.93,21.95-11.63,3.12-2.84,6.67-4.93,10.06-7.24,7.58-5.17,12.48-12.37,17.58-19.79,7.63-11.12,10.57-23.77,14.25-36.26.28-.95.44-2.33,1.11-2.7,3.51-2,2.9-3.61,0-5.56-1.57-1.05-.6-2.63-.4-4.1.32-2.43,1.84-5.2-1.58-7a1.6,1.6,0,0,1,0-2.89c5.1-2.88,3.32-6.58,1.56-10.45a13.21,13.21,0,0,1-.57-3.38c-2-3.19-.32-6.78-1.11-10.09q-.33-.54-.63-1.11-.57-6.89-1.15-13.77c4.29-1.47,5.63-.83,6.17,3.11a21.15,21.15,0,0,1,0,5.45c0,.11-1.06.87.48.85,3.06,0,3.07.26,3.62,4.18,0,3.17,0,6.33,0,9.5,0,2.37,0,4.64,2.24,6.27a4.07,4.07,0,0,1,1.37,4.53,41,41,0,0,0-.1,19.21,4.6,4.6,0,0,1,0,2.47c-3.69,10.29-4.7,21.33-8.93,31.47-3.56,8.53-8.67,16.19-14.26,23.35-10.26,13.15-23.3,23.13-38.34,30.5-4,2-8.55,2.22-12.44,4.51a3.23,3.23,0,0,1-4.72-1.4l-.19-.13c.09-.32.18-.64.26-1C448.82,373.12,447.38,369.3,451,368.25Z" transform="translate(-221 -97.28)"/><path class="cls-14" d="M461,417.22c-.77.15-2.07.64-1.43,1.26,1.74,1.65.49,3.22.4,4.82-1-1.33-2.73-2.16-3-4.06-.56-.54-.33-1.52-1.05-2l0,.05a3.44,3.44,0,0,1-.44-3.88,3.51,3.51,0,0,1,2-1.26c16.56-5.05,32.61-11.15,45.82-22.9a5,5,0,0,1,1.15-.84,21.2,21.2,0,0,0,9-7.24,5.63,5.63,0,0,1,1.1-.78,4.71,4.71,0,0,0,2.72-2.62,4.38,4.38,0,0,1,1.46-1.38,7.69,7.69,0,0,0,4.55-5.5,3.92,3.92,0,0,1,1.41-1.53c4-2.51,6.36-6.62,9.1-10.23,4.06-5.36,7.83-11,10.29-17.38a6.9,6.9,0,0,1,.77-1.28c4.57-8.75,8.83-17.58,10.89-27.37,1.09-5.2,1.53-10.68,4.83-15.21,3.3.55,2.47,3,2.22,5.05-1,7.79-3.29,15.29-5.88,22.64-4.89,13.86-11.44,27.13-20.52,38.57a162.41,162.41,0,0,1-26.37,27c-14.36,11.37-30.62,18.49-47.33,25.06A5.15,5.15,0,0,0,461,417.22Z" transform="translate(-221 -97.28)"/><path class="cls-15" d="M451,368.25c-2.57,1.62-.6,5.73-3.83,7a18.73,18.73,0,0,1,3-10.91C451.41,365.44,450.85,366.92,451,368.25Z" transform="translate(-221 -97.28)"/><path class="cls-16" d="M456,413.23l-.06,4.07c-3.4-1.62-3.72-5.12-4.93-8.08l.56-.42a2.18,2.18,0,0,1,2,.38C454.7,410.31,456,411.37,456,413.23Z" transform="translate(-221 -97.28)"/><path class="cls-16" d="M448.88,403.28l2.1,0c1.69,2,1.54,3.94.07,5.93l-.06.06C449.09,407.66,449,405.48,448.88,403.28Z" transform="translate(-221 -97.28)"/><path class="cls-16" d="M455.9,417.25a1.91,1.91,0,0,1,1.06,2A2,2,0,0,1,455.9,417.25Z" transform="translate(-221 -97.28)"/><path class="cls-17" d="M413,153.34c-3.48-.69-6.44,1.41-9.51,2.26-5.67,1.56-11.52-1.26-17.25,2.26-4.92,3-11.77,2.95-16.58,6.06-6.13,4-13.88,6.2-17.63,13.41a3,3,0,0,1-1.21.95c-5.8,2.06-10.43,5.83-14.56,10.23-8.54,9.11-16.81,18.45-22.67,29.62-5.19,9.87-9.44,19.94-11.76,31.07s-4,22.21-3.47,33.59a123.08,123.08,0,0,0,6.37,34.65,124.39,124.39,0,0,0,12.85,26.81,118.45,118.45,0,0,0,41,39.32c7.25,4.19,14.64,8,22.75,10,4.24,1,5.62,3,4.52,7.06-.57,1.27-1.57,2.35-1.67,3.83a4.19,4.19,0,0,1-.89,1.92,2.17,2.17,0,0,1-2,.24,2.23,2.23,0,0,1-.84-1c-.46-1.11.71-2.49-.58-3.48-8.77-3.47-17.24-7.55-25.68-11.69-1.78-.87-3.7-1.46-5.25-2.77a29.19,29.19,0,0,0-6.76-5.83c-16.14-11.32-27.83-26.38-36.91-43.65-1.32-2.5-2.57-5-4.7-7a6.51,6.51,0,0,1-.69-2.19c-.4-5.06-2.68-9.59-4.28-14.26a70.34,70.34,0,0,1-3.82-19.46c-.21-4.3-2-8.27-2.1-12.7-.33-12.27,2.36-24,4.68-35.92,3.94-20.16,14.11-37.1,26.45-52.79,8-10.17,17.64-19,29.34-25.09,4.55-2.39,8.36-5.93,13.05-8.2,8.11-3.94,16.34-7.3,25.24-9a27.82,27.82,0,0,0,8.91-3.1,10.81,10.81,0,0,1,3.48-.49,79.57,79.57,0,0,1,9.27.12C413.25,148.47,414.87,150,413,153.34Z" transform="translate(-221 -97.28)"/><path class="cls-18" d="M413,153.34c.33-2.8-.61-4.25-3.75-4s-6.16,0-9.24,0c-.94-3.48,1.52-2.79,3.42-2.81a2.48,2.48,0,0,0,2.91-.2c9.93-1,19.88-.27,29.82-.43,2.48,0,5,.12,7.44-.13a5.47,5.47,0,0,1,2.27-.22c1.28.24,2.35,1.22,3.75,1.06a4,4,0,0,1,1.89.51c3.44,2.36,7.5,2.9,11.4,3.91a16.87,16.87,0,0,1,2,.5,12,12,0,0,0,2.65.54,9.24,9.24,0,0,1,3.36.72c1.94,1.54,3.9,3.06,6.51,3.28a17.55,17.55,0,0,1,9.5,5.35,5.34,5.34,0,0,0,2.45,1.76,7.56,7.56,0,0,1,1.66.69,7,7,0,0,0,2.53,1.4,6.32,6.32,0,0,1,1.67.71c.95.82,2.09,1.36,3.1,2.11a7.52,7.52,0,0,0,5.6,3.31,4.08,4.08,0,0,1,1.18.59,11.58,11.58,0,0,1,1.52,2.81,5.42,5.42,0,0,0,2.34,2,60.55,60.55,0,0,0,11.66,9.77,5.81,5.81,0,0,1,2.41,3,6.47,6.47,0,0,0,2,2.81c10.65,13.21,19.38,27.66,23.9,44,3.27,11.88,6,23.87,6.81,36.54,1.16,17.9-3.49,34.26-8.29,50.78a89.37,89.37,0,0,1-9.83,21.2c-10.67,17.56-23.79,32.57-41.1,44.11-10.38,6.92-21.09,12.59-33,16.09-1.63.48-3.2.89-3.88,2.69-1.94,1.77-4.06,2.74-6.66,1.39l-1.93-.07c0-2,0-4-.07-5.93a5.49,5.49,0,0,1,4-2c10-3.59,20.21-6.64,29.35-12.17,11.4-6.89,22.16-14.48,30.94-24.82A241.37,241.37,0,0,0,532.45,341c3.17-4.78,5.38-10.27,7.55-15.66,6.09-15.15,8.3-31,9.12-47.22a85.74,85.74,0,0,0-3.79-28.92c-1.82-6.17-3-12.44-5.52-18.52-7.23-17.21-16.19-32.9-30.12-45.77s-29.51-22.69-47.32-28.69c-7.94-2.67-16.06-5.54-24.69-5.7a3.9,3.9,0,0,1-2.69-1.17c-2.74.22-6.63-1.28-6,4a27.56,27.56,0,0,1-16,0Z" transform="translate(-221 -97.28)"/><path class="cls-17" d="M435,149.35a106,106,0,0,1,41.16,11.26A164.1,164.1,0,0,1,505,178.74a114.49,114.49,0,0,1,25.7,29.84,126.27,126.27,0,0,1,12.65,27.18c3.58,11.06,7.41,22.55,7.38,34.21,0,19.86-2,39.69-10.27,58.19-5.67,12.7-13.53,24-22.39,34.78-12,14.59-26.83,24.94-43.77,32.48-6.08,2.7-12.16,6.19-19.27,5.81.2-1.76-.47-3.63.81-5.73,3.82,4.67,6.77.22,10.26-.69,9.83-2.56,18.2-7.95,26.49-13.41C508.3,371,520.54,357.29,530,341c7.77-13.28,12.27-27.8,15.59-42.69.88-4-.55-8.49.48-12.39,2.8-10.65,0-21.06-1.52-31.22a102.35,102.35,0,0,0-13.19-37.57c-7.4-12.31-15.57-24.1-26.22-33.54-7.72-6.84-16.33-13.17-26.17-17-2.69-1.05-4.61-4.08-8-3.27a.94.94,0,0,1-1,.39,3.06,3.06,0,0,0-2.11,0,.93.93,0,0,1-.94-.42c-5-6.32-12.89-6.57-19.72-8.76-3.29-1.05-6.61-2.89-10.43-2.37C435,152.46,435.05,150.68,435,149.35Z" transform="translate(-221 -97.28)"/><path class="cls-19" d="M351,177.34h1c4,3.28,8,.26,12.06.07-2.58,4.57-7.4,6.95-10.64,10.91a53.2,53.2,0,0,0-4.5,5.88c-3.7,2.27-5,6.05-6.19,9.87q-1.83,1.19-3.64,2.39c-2.26-1.49-3.82-1.49-5.69,1.1-3.3,4.6-6.33,9.38-9.68,13.95a15.58,15.58,0,0,0-3.48,9.21,5.51,5.51,0,0,1-.81,3.36c-8.06,10.66-8.75,23.43-10,35.94-2.22,21.24,3.59,41,12.46,59.89,4.14,8.81,10.58,16.38,17.1,23.81,5.23,6,11.43,10.55,17.42,15.49,7.46,6.14,16.42,9.39,25.24,12.89,2.43,1,6.48-2.09,7.35,3.44.51-3.1,3.72-3.3,4.62-5.62.24-2.63-.74-5.5,1.55-7.69,2.63,8.65,2.88,17.3-.11,25.93a4.23,4.23,0,0,1-1.37-2.73,3.25,3.25,0,0,0-2.61-2.69c-10.37-2.13-19.54-7.36-29-11.76-6.4-3-12.08-7.76-17.44-12.3a131.65,131.65,0,0,1-24.92-29c-9.77-15-13.83-31.9-16.81-49.16-1.25-7.26-.13-14.59.08-21.88.43-15.24,4.78-29.47,11.71-42.93,4.57-8.87,9.75-17.38,16.55-24.75a8.42,8.42,0,0,0,2.64-5.66c1.29-4,5.52-4.39,8.29-6.53C346.23,185.63,350.23,182.82,351,177.34Z" transform="translate(-221 -97.28)"/><path class="cls-19" d="M397,162.15c-11.89,3.09-22.38,9.2-32.89,15.27.41-3.5,2.44-5.44,5.69-6.64,4.39-1.62,8.15-4.82,12.07-6.76S391.58,159.49,397,162.15Z" transform="translate(-221 -97.28)"/><path class="cls-20" d="M470,163.34h1c-1.66,2.77-3.28,5.05,1.36,7.19,2.89,1.34,1.07,2.77-1.37,2.83l0,0c-.77-1-2-1.33-3-1.94l0,0c-.11-2.87-4.1-2.5-4.38-5.48,1.56-.24,4.16.55,3.48-2.63h1A1.36,1.36,0,0,1,470,163.34Z" transform="translate(-221 -97.28)"/><path class="cls-20" d="M413,153.35h16a2,2,0,0,1-2.32,2q-5.67,0-11.34,0A2.06,2.06,0,0,1,413,153.35Z" transform="translate(-221 -97.28)"/><path class="cls-19" d="M451,164.29c-1.73-1.5-4.31-.31-6-1.9C447.56,161.12,450.32,159.36,451,164.29Z" transform="translate(-221 -97.28)"/><path class="cls-19" d="M366,170.34l.23-.41-.22.41Z" transform="translate(-221 -97.28)"/><path class="cls-19" d="M366,170.34l-.23.42.22-.42Z" transform="translate(-221 -97.28)"/><path class="cls-10" d="M370,123.36c1.54,2.5,2.23,4.54-2.09,4a3.7,3.7,0,0,0-3.11,1.19,26.13,26.13,0,0,1-9.87,5.71c-6.73,2.23-12.08,7.17-18.91,9.07a2.46,2.46,0,0,1-2.84.42c-2.36-6.51-1.74-8.11,4.15-10.64.3-.13.84-.1.92-.3,2.38-5.83,8-5.34,12.57-5.66,4.33-.3,3.55-4.58,6.19-5.82l1.89-.06c.82.17,1.71.36,1.93,1.31.86,3.83,3,3.35,5.36,1.53C367.4,123.22,368.72,123.43,370,123.36Z" transform="translate(-221 -97.28)"/><path class="cls-6" d="M357,121.35c-1.61,2.25-1.87,4.16,1.82,5.46-5.21-1-9,3.86-14,1.91a1.58,1.58,0,0,0-1.38.4,28,28,0,0,1-10,7.31c-1.44.6.91,4.58-.48,6.92a2.12,2.12,0,0,1-1.32.5,8.26,8.26,0,0,0-7.55.28c-1.52.79-3.35,1.55-5.11.22-.67-2.19,1.91-3.09,2-5,2.67-3.1,6.61-4.09,10-6,2.77-1.08,5.75-1.75,8-3.9C344.82,126.3,350.49,122.86,357,121.35Z" transform="translate(-221 -97.28)"/><path class="cls-2" d="M339,129.42c-1.22,4.26-4.61,4.08-8,3.9C333,130.62,335.77,129.57,339,129.42Z" transform="translate(-221 -97.28)"/><path class="cls-2" d="M269.06,189.34c.1,2.17.18,4.33-3,4C266.46,191.53,266.75,189.66,269.06,189.34Z" transform="translate(-221 -97.28)"/><path class="cls-3" d="M573,191.33c-5.61-3.7-9.93-8.64-13.81-13.6,1.09-2.83,4.32,1.27,4.75-2.26,1.7,5.51,7.44,8.35,9.15,13.85C573,190,573,190.66,573,191.33Z" transform="translate(-221 -97.28)"/><path class="cls-3" d="M510.92,133.34c-3.38.15-6.76.3-7.94-4l5.82.15C508.79,131.2,511.13,131.56,510.92,133.34Z" transform="translate(-221 -97.28)"/><path class="cls-19" d="M487,177.34h2a3.79,3.79,0,0,1,1,3.2c-.09,3,1,5.13,4,6,3.86,1.15,5.19,4.8,7.44,7.53a25.32,25.32,0,0,1,3.13.56,2.52,2.52,0,0,1,1,.87c.82,1.61.3,3.63,1.56,5.1a8.17,8.17,0,0,1,.65,1c.68,1,1.44,0,2.16.07a5.46,5.46,0,0,1,4.39,3c4,6.57,9.37,12.11,13.47,18.53a65.12,65.12,0,0,1,6.94,16c2.71,8.89,6,17.79,5.76,27.22-.33,11.34.88,22.68-2.63,34-1.86,6-3.12,12.44-4.74,18.67-2.32,8.89-7,16.55-11.77,24.11-3.75,6-8.89,11.19-13.63,16.54a105,105,0,0,1-41,28.24c-3.78,1.48-6.44,1.18-8-2.85-.47-3,2-3.11,3.75-3.72,12.61-4.47,23.55-11.88,33.34-20.64a114.6,114.6,0,0,0,35.81-100.68c-1.43-9.34-4.68-18.23-8.19-27.12-2.82-7.12-8.92-11.49-11.93-18.14-1.15-2.55-6-2.33-5.12-6.52-.12,1.38-.72,2.19-2.25,1.94l-1.17-2.84c-.59-1.08-.87-2.35-2-3.08l.06,0a6.2,6.2,0,0,0-.92-1.06c-6.21-9.2-12.58-18.25-22.26-24.28-.45-.28-.54-1.12-.8-1.7l.1-.08c1.81-1.49,3.32-.67,4.84.58C483.72,179.36,485.46,179.32,487,177.34Z" transform="translate(-221 -97.28)"/><path class="cls-21" d="M504,210.3c4.33-3.14,7.06,1.61,8,3.29,2.78,4.78,7.58,8.06,9.84,12.5,1.87,3.67,3.58,7.92,5.16,12,6.34,16.28,8.21,33.23,6.71,50.39-1.4,16-7.22,30.89-14.65,45.11a78.93,78.93,0,0,1-11.65,17.23,141.48,141.48,0,0,1-20.42,18.63,104.77,104.77,0,0,1-26.75,13.94,2,2,0,0,0-1.34,1.88l-.42.52c-1.72.8-2.44,2.36-3.05,4-2.71,1.09-5.62,1.07-8.45,1.45,0-3,0-6,0-9,.91-1,2-2,3.44-1.55,1.91.54,3.2.19,3.92-1.78a2,2,0,0,1,1.56-1.1c22.09-5.77,38.5-19.54,51.45-37.61,9-12.51,15.59-26.45,18.18-41.72,2.77-16.28,3.36-32.7-1.92-48.79A7.44,7.44,0,0,0,521,246.3c-.22-1.48.56-3.19-.87-4.53-2.08,1.23-.29,3.64-2.22,5.15-1.78-3.22-1-6.63-.79-9.76.2-4-1.26-5.42-5.05-4.83C510.07,224.73,506.87,217.58,504,210.3Z" transform="translate(-221 -97.28)"/><path class="cls-2" d="M513.17,246.1a6.73,6.73,0,0,0,.77.21,28.81,28.81,0,0,1,.12,10.95l-.88.3Q513.18,251.83,513.17,246.1Z" transform="translate(-221 -97.28)"/><path class="cls-21" d="M500.87,204.38c2.21,0,2.11,1.55,2,3.08A3.23,3.23,0,0,1,500.87,204.38Z" transform="translate(-221 -97.28)"/><path class="cls-21" d="M500,203.34c.3.36.61.71.92,1.06C500.62,204.05,500.31,203.7,500,203.34Z" transform="translate(-221 -97.28)"/><path class="cls-12" d="M358.48,316.82l2,2c3,6,8.42,9.82,12.76,14.62C381,342,388,351.16,391.91,362.29a9.15,9.15,0,0,1,0,2.95c-3.18,1.54-5.91,0-8.31-1.63-5.36-3.68-11.43-6.05-16.9-9.42a58.64,58.64,0,0,1-13.37-11.74c-7.43-8.65-14.53-17.69-18.46-28.7-1.68-4.71-3.09-9.35-3-14.49a10.38,10.38,0,0,0-5.33-8.9c-2.47-1.53-3.33-3.18-.91-5.45.53,0,1.39.34.71-.79,3.24-5.6-.42-10.75-1.06-16.09a31.41,31.41,0,0,0,.33-3.87c.39-1.93.23-3.92.63-5.85a3.25,3.25,0,0,1,.67-1.15,1.78,1.78,0,0,1,1.3-.12,2.12,2.12,0,0,1,.55,1.19c-.15,7.37,1.79,14.3,4.51,21.06,1.54,8.37,7,14.61,11.57,21.34C348.78,306.52,352.69,312.45,358.48,316.82Z" transform="translate(-221 -97.28)"/><path class="cls-22" d="M327,285.29c-2.94,1.12-3,2.94-.22,3.82,5,1.58,5.72,6.21,6,9.66a52.08,52.08,0,0,0,9,25.8c3.19,4.65,6.59,9.18,9.73,13.81,2.94,4.33,7.27,6.64,10.61,10.24,4.78,5.17,11.44,7.48,17.46,10.79,4,2.2,7.46,5.39,12.28,5.83.39.87,1.19,1,2,1.06,0,.66,0,1.33-.05,2-3.28,6-6,6.47-11.2,2.71-5.39-3.91-11.77-6.16-17.39-9.8-12.13-7.84-21.6-18.08-29.22-30.25-8.08-12.92-11.68-27.2-14.75-42-1.62-7.82,1.19-15.5-1.42-23a5,5,0,0,1,.23-3c.28-1,.64-2,1.86-2s1.75.86,2,1.83a10.08,10.08,0,0,0,2.06,4.47c.28.93.54,1.86.83,2.79,1.59,5.05,3.7,10.09.18,15.21Z" transform="translate(-221 -97.28)"/><path class="cls-5" d="M467.9,171.41c1.49-.09,3-.16,3.05,1.94A3.06,3.06,0,0,1,467.9,171.41Z" transform="translate(-221 -97.28)"/><path class="cls-10" d="M319.06,144.35c2-.64,4.22-.69,6-2,2.64-1.92,4.92-1.23,7,1,2,3.34-.69,5-2.69,6.45-3.25,2.32-6.26,4.91-9.37,7.39a87.08,87.08,0,0,0-18.92,20.15h0c-16.38,17.41-25.82,38.62-32.58,61.07-2.62,8.68-3.71,17.84-4.24,27a166.77,166.77,0,0,0,1.28,35.26,148.38,148.38,0,0,0,7.72,30.33,198.46,198.46,0,0,0,18.21,35.38c5.74,9.06,13.08,16.76,20.55,24.3a133.34,133.34,0,0,0,46.58,31c3.84,1.5,7.22,4,11.45,4.81,1.94.36,4.15,1.72,3,4.64l-4,4a4.91,4.91,0,0,1-4.77-.39c-8.38-6.19-18.38-9.25-27.37-14.26-14.54-8.1-26.61-19.2-38-31.24a132.23,132.23,0,0,1-23.27-32.84c-6.1-12.51-12.23-25-15.35-38.89-2.17-9.63-4.17-19.35-4.09-29.06.17-20.4,0-41,7.39-60.58,3.42-9,5.82-18.46,11-26.8,3-4.87,7.13-9.35,6.53-15.75h0c3.81-.77,6.35-3.15,8.21-6.45,3.54-6.29,9-10.88,14-15.93,1.75-1.78,3.46-3.53,4.19-6,4.75-3.37,8.15-8,11.57-12.58Z" transform="translate(-221 -97.28)"/><path class="cls-23" d="M281.07,185.34c3.08,5.9-1.15,9.38-4,13.78-3.82,5.95-6.56,12.59-9.76,18.94-.07.15-.18.34-.13.47,2.23,6.53-3.54,10.92-4.55,16.71-1.1,6.3-2.65,12.6-4,18.9a18,18,0,0,0-.55,4.42c.58,12.9-1.47,25.81,0,38.71a148.7,148.7,0,0,0,11.5,43.36,260.62,260.62,0,0,0,16.72,31.58c3.84,6.28,9.33,11.61,14.38,17.08,10.49,11.34,21.93,21.65,35.44,29.27,7.2,4.06,14.89,7.27,22.35,10.87,3.6,1.74,6.23,5.26,10.52,5.72-.95,2.36-3.06,2-4.95,2.11-2.66-5.1-8.41-4.75-12.67-6.56a139.51,139.51,0,0,1-44.83-30.39c-8.43-8.47-17.16-16.73-24.09-26.45a114.19,114.19,0,0,1-12.29-22.11c-5.89-14.05-12.1-28-14.33-43.15-2.18-14.77-4.78-29.34-2.3-44.72,2.16-13.37,5.35-26.48,7.59-39.79.05-.33,0-.75.22-1,6.77-7.6,6.32-18.4,11.89-26.68C275.76,192.68,277.14,188.15,281.07,185.34Z" transform="translate(-221 -97.28)"/><path class="cls-24" d="M373,431.15c-.25-1.88-1.84-3.57-3.06-3.55-4.74.08-7.85-3.38-11.85-4.76-13.31-4.62-24.73-12.43-35.76-20.88a146.43,146.43,0,0,1-29.68-31.18,152.35,152.35,0,0,1-17.46-31c-4.51-11.1-7.6-22.52-10.53-34.06a65.57,65.57,0,0,1-1.34-11.3c-1.27-16.49-1.24-33,2.29-49.33,4.88-22.55,14.76-42.79,28-61.49,1.83-2.58,3.84-5.52,7.45-6.25.36,4.07-2.89,6.18-5,8.85C282.32,203.9,273.78,224,269.14,245.8c-3.26,15.34-3.12,30.76-2.47,46.41.47,11,3,21.41,6.09,31.52,3.42,11.24,7.83,22.33,14.43,32.48,7.81,12,16.15,23.55,26.23,33.63,6.39,6.4,13.85,11.72,21.37,16.88,8.84,6.07,18.4,10.48,28.19,14.64,2.86,1.22,6.1,1.27,8.71,3.24,1,.76,1.43-1.08,2.33-1.38,3-1.76,4.84.62,7,2C378.55,427.52,376.46,430.24,373,431.15Z" transform="translate(-221 -97.28)"/><path class="cls-25" d="M374,421.23h-1c.28-2.3-1.09-3.33-3-3.85-12.48-3.32-23.51-9.52-34.08-16.79-7-4.8-13.31-10.4-19.64-15.91-7.62-6.63-13.38-15.09-19.16-23.39a123.53,123.53,0,0,1-17.27-35c-3.72-12.38-7.35-24.82-8-38.07a176.83,176.83,0,0,1,4.89-49c4.71-20,14.83-37.47,27.52-53.5,2.56-3.24,5.13-6.48,7.74-9.69,1.29-1.59,2.75-2.94,5.05-2.62,1.53,4.19-1.7,6.58-3.88,9-5.85,6.43-11.49,13.1-15.69,20.63A215.93,215.93,0,0,0,280,243.09C276.58,254,275.84,265,275.79,276c0,12.52.07,25.34,5.08,37.32,1.62,3.87,1.88,8.1,3.22,12.05,4.84,14.33,12.72,27,21,39.54,8,12.23,19,21,30.43,29.79,11.71,9,25.23,14,38,20.76a7.07,7.07,0,0,0,6.71.22c.87-.39,1.74-.76,2.62-1.11a5.69,5.69,0,0,0,3.8-3.49c1.11-1.1,2.05-2.54,4-2.23l.52.45c-1.29,3.76-2.61,7.5-6,10C381.48,420.47,378.1,422.89,374,421.23Z" transform="translate(-221 -97.28)"/><path class="cls-20" d="M335,195.33c.29,2.64-.63,4.42-2.68,6.41-5.23,5.07-8.65,11.54-12.51,17.7A106.11,106.11,0,0,0,306,254.35c-1.11,5.31-1.32,10.81-1.9,16.22-2,19.32,2.82,37.6,9.59,55.25,3.89,10.14,10.38,19.23,17.83,27.39,2.46,2.69,4.67,5.63,7.26,8.18A111.17,111.17,0,0,0,379,387.09c4.42,1.62,8.19,5,13.44,4.56,1.74-.15,2.82,1.56,2.51,3.58-1.91,2,0,5.07-1.89,7.11a6.73,6.73,0,0,1-.05.89c-3.25,1-2.74-1.61-3.22-3.29s.8-3.77-1.8-4.45a135.06,135.06,0,0,1-41.83-21.66c-13.17-10.07-23.23-22.6-31.55-36.77-9-15.39-13.14-32.32-15.14-49.72-.84-7.31.4-14.91.54-22.37.29-14.71,5.71-28.11,11.51-41.05a81,81,0,0,1,20.46-28C332.88,195.11,333.81,194.37,335,195.33Z" transform="translate(-221 -97.28)"/><path class="cls-9" d="M374,421.23c3.75-.25,7.06-3,11.05-1.92-.48,2.58-3.59,3.35-4.1,5.91-2.78.94-4.34-2.35-7-2Z" transform="translate(-221 -97.28)"/><path class="cls-17" d="M389,394.23c3.4-1.13,1.56,1.69,2,2.71.83,2-1.64,5.14,2,6.29,1.05.71.92,1.38-.07,2a2.43,2.43,0,0,1-2.81.43c-1.91-1.35-1.33-3.65-2.08-5.45C387.65,398.11,387.44,396,389,394.23Z" transform="translate(-221 -97.28)"/><path class="cls-5" d="M393.06,402.34c.56-2.39-1.66-5.52,1.9-7.11,0,1,.05,1.95.08,2.92,0,1.31-.07,2.62-.1,3.94Z" transform="translate(-221 -97.28)"/><path class="cls-26" d="M390,405.22l2.93,0a5.86,5.86,0,0,1-1.87,4.05l-.11-.13C390,408,389.25,406.8,390,405.22Z" transform="translate(-221 -97.28)"/><path class="cls-4" d="M359,441.2c.18-1.93,1.58-2,3-2Z" transform="translate(-221 -97.28)"/><path class="cls-15" d="M326,267.29c-4.52.62-1.94-4.09-3.91-5.55-.77,2.12-.48,21.76.22,23.51a6.32,6.32,0,0,1,.65,2.35c-.26,11.8,3.81,22.86,8.71,32.89,6,12.3,13.61,24.09,25.07,32.81a125.91,125.91,0,0,0,26.69,16c1.38.6,1.35,1.7,1.79,2.72.62,1.41,2.72,1.37,2.78.81.35-3.76,4.43-2.37,5.8-4.52a5.79,5.79,0,0,1,1.32,3.92c0,3-.09,6-.14,9-9.86-.29-18.67-4.17-27-8.84-29.54-16.6-46.57-42.59-53.59-75.1-2.57-11.91-3.19-24.34.69-36.52,1.48-4.67.58-9.82,2.28-14.67,2.16-6.15,5.39-11.78,7.93-17.73.82-1.93,3.47-2.34,5.7-1.08-.5,6.3-2.68,12.4-2.2,18.82-1.06,3.66.64,7.55-.94,11.17-.29,0-.57,0-.86.06-1.86,2.1-.65,4.63-1,6.94A2.63,2.63,0,0,1,326,267.29Z" transform="translate(-221 -97.28)"/><path class="cls-21" d="M331,227.3c-4.66,1.28-7.62,5.07-8,10.24-.06.83.18,2-.27,2.42-6.13,5.43-4.64,12.92-6,19.79S314,273.55,314,280.67c.16,14.32,4.11,27.69,9.57,40.77,8,19.12,21.32,33.89,38,45.62,8.51,6,18,10.61,28.56,12.07,2,.27,3,2,4.87,2.11-.29.93.37,3.14-1.41,2.27-2.31-1.14-2.51-.41-2.6,1.53-.06,1.24.34,3-1.7,2.95-1.64,0-2.13-1.32-2.27-2.77-.07-.8-.22-1.59-.56-3.8-1.59,4.84-3.6,2.37-5.44,1.83A87.57,87.57,0,0,1,344.91,362c-12.48-12.11-22.91-26-29.17-43.08a124,124,0,0,1-7.64-50.23c.54-10.14,1.9-20.53,6.53-29.36,3.12-5.93,3.77-12.68,7.54-18.08s7.88-11,11.46-16.71c1.84-3,3.59-2.27,5.48,1.92a7.17,7.17,0,0,1-.18.9l-.85,1v0c-.27.18-.38.37-.32.59s.13.34.2.34c-.39,3.72-3.62,6.3-4,10-1,1.11-2.57,1.29-3.63,2.25-.41.37-1.8.32-1,1.41.12.15,1.16-.13,1.69.34C331.93,224.65,331.18,226,331,227.3Z" transform="translate(-221 -97.28)"/><path class="cls-15" d="M331.05,223.33c-2-1.08-1.77,3.57-3.41,1.61s.83-3.41,2.12-4.73,2.74-.85,4.2-.88c0,.65,0,1.31,0,2C332.94,221.91,332.67,223.58,331.05,223.33Z" transform="translate(-221 -97.28)"/><path class="cls-2" d="M327.9,257.29c.56-3.7-.87-7.57.94-11.17,0,3.83-.07,7.66-.1,11.49l-.64-.08Z" transform="translate(-221 -97.28)"/><path class="cls-22" d="M328.1,257.53a1.16,1.16,0,0,1,.64.07.81.81,0,0,1-.05.63A1.27,1.27,0,0,1,328.1,257.53Z" transform="translate(-221 -97.28)"/><path class="cls-19" d="M338,209.3a5.62,5.62,0,0,1-.27-.72s.25-.14.39-.21A5.77,5.77,0,0,1,338,209.3Z" transform="translate(-221 -97.28)"/><path class="cls-19" d="M338.08,208.34l.85-1Z" transform="translate(-221 -97.28)"/><path class="cls-23" d="M308.05,157.35c.34,2.29-1.13,3.65-2.56,5.08-6.19,6.2-12.74,12.07-17.13,19.87-1.44,2.58-3.7,4.84-7.29,3,1-3.08,4.55-4.82,4.22-8.62-.1-1.2,1.33-1.18,2.26-1.45,2.22-.63,3.23-2.42,4.5-4.22,3.3-4.68,7-9.09,10.56-13.56.21-.26.95-.1,1.45-.13C305.39,158.67,306.72,156.35,308.05,157.35Z" transform="translate(-221 -97.28)"/><path class="cls-6" d="M308.05,157.35c-1.33-.23-2.66,4.06-4,0,4.25-4.32,8.77-8.41,12.61-13,1.52-1.83,1.63-.09,2.38.06C317.58,150.55,313.35,154.4,308.05,157.35Z" transform="translate(-221 -97.28)"/><path class="cls-23" d="M481,433.21c1.38-4.62,5.94-5.12,9.35-6.47,12.16-4.79,22.75-11.76,32.88-20A178.61,178.61,0,0,0,556,372a139.13,139.13,0,0,0,12.69-21.47,219,219,0,0,0,13-36.78A102.39,102.39,0,0,0,584.82,292c.42-9.13,0-18.29.13-27.43a51.83,51.83,0,0,0-1.78-14.22c-2.48-9.23-4.48-18.58-6.74-27.87-.29-1.19-.71-2.24.49-3.11,4,2.64,3.11,7.14,4.09,10.9,4.14,15.87,7.84,32,7.63,48.37A170.55,170.55,0,0,1,581,325.45a190.93,190.93,0,0,1-14.72,35.1c-8.92,16.69-21.58,30.41-35.37,43-11.77,10.77-24.66,20.11-39.84,25.69C487.69,430.52,484.87,433.26,481,433.21Z" transform="translate(-221 -97.28)"/><path class="cls-23" d="M565.93,191.32a6.45,6.45,0,0,0-2.37.5c-2.47,1.75-4.6,3.46-3.82-1.82.27-1.85-1.19-3.33-2.38-4.76q-10-12-19.84-24a5.49,5.49,0,0,1-.58-1.86c4.41-2.76,6.47,1.85,8.66,3.6,1.91,1.54,4.88,2.59,5.83,5.44.13.37,1.34.48,1.11,1.31-1.76,6.31,2.89,4.1,6.07,4.22-2.74,4-1.68,6.94,1.65,9.91C562.56,185.87,564.07,188.79,565.93,191.32Z" transform="translate(-221 -97.28)"/><path class="cls-23" d="M542.93,155.36l-.22.41.22-.41Z" transform="translate(-221 -97.28)"/><path class="cls-27" d="M381,416.23c-1.78,1.88-3.92,2.72-6.25,1.3-9.25-5.6-20.26-7.74-29-14.09-12.29-8.91-26-16.39-35.33-28.69a263.48,263.48,0,0,1-19.33-29.88c-6.43-11.47-9.38-24-13.19-36.24-1.79-5.76-3.25-11.86-2.79-18.06.5-6.75-.38-13.5-.46-20.21-.17-14.52,3.65-27.89,8.69-41,6.73-17.47,15.26-34.08,28.71-47.63,2.32-2.34,4.38-5,5-8.43q3.49-3.5,7-7c5.23-4.73,11.79-7.66,17-12.42,1-.87,2.05-1.63,3-2.57a2.06,2.06,0,0,0,2-1c17.17-8.35,34.51-16.23,53.72-18.71a150.84,150.84,0,0,1,114.64,31.62A130.74,130.74,0,0,1,542.54,194a19.83,19.83,0,0,0,3.4,4.29v1c.76.93,1,2.22,2,3,1.3,1.48,2.78,2.86,3,5a10.85,10.85,0,0,0,3,6c.75.94,1,2.23,2,3v1c3.75,8.51,6.25,17.39,8.71,26.36A113,113,0,0,1,569,274c-.07,13.53-.2,27.23-5.07,40.23v2c-1.74,6.38-4.7,12.31-6.87,18.53-3.75,10.73-9.65,20.23-16.12,29.45v1a265.55,265.55,0,0,1-21,23h-1c-12.05,11.7-26.2,20.07-41.69,26.32-1.84.74-3.76,1.31-5.29,2.66-.65,0-1.68-.15-1.91.2-3.18,4.61-6.11,1.87-9.08-.2.9-3.35,4.15-3.75,6.58-4.61a154.8,154.8,0,0,0,39.21-20.79,137.69,137.69,0,0,0,28.11-27.73,133.07,133.07,0,0,0,24-49.64c1-3.84,1.8-7.7,2.67-11.55.37-1.61.88-3.26-.65-4.62-1.55-1.67-1.36-3.58-.79-5.55a14.47,14.47,0,0,0,2.38-7c.53-17.22-1.11-34.17-6.68-50.58-5-14.71-11.41-28.67-20.91-41.14-5-6.51-10.76-12.16-16.42-18-6.64-6.85-13.7-13.08-22-17.83-9.93-5.69-19.87-11.25-30.95-14.73-10.89-3.42-21.92-4.88-33.21-6.06-27.66-2.87-53.25,2.73-77.62,15.78a247.18,247.18,0,0,0-22.57,13.73c-5.41,3.67-9.08,9.22-13.66,13.79a142.28,142.28,0,0,0-13.78,15.76A108.64,108.64,0,0,0,289.44,226c-3.16,9.1-6.65,18.12-8.15,27.74A155.88,155.88,0,0,0,279.91,290a130.38,130.38,0,0,0,5.42,27.84c5.8,18.95,14.59,36.18,27.71,51.35,13.28,15.36,28.56,27.77,46.82,36.57,5.12,2.47,10.47,4.28,15.78,6.25C377.78,412.77,380.75,412.9,381,416.23Z" transform="translate(-221 -97.28)"/><path class="cls-25" d="M545.94,198.33c-3.39-.41-4.19-3.61-5.75-5.73-10.4-14.1-22.45-26.45-37.09-36.18a150.07,150.07,0,0,0-59.57-23.23c-30.31-5-59-.51-86.37,13.09-3.55,1.76-7,3.91-11.13,4.07a2.57,2.57,0,0,1,1.65-2.28c18.23-8.36,36.68-16.65,56.83-18.37,18.65-1.6,37.35-.74,55.69,4.71a170.84,170.84,0,0,1,46.9,22.28c15.44,10.34,27.32,23.85,37.67,39A14.58,14.58,0,0,1,545.94,198.33Z" transform="translate(-221 -97.28)"/><path class="cls-25" d="M563.93,314.27c-.25-5.9,2.51-11.37,2.53-17.19,0-10.55,2-20.95.89-31.66-1.59-15.16-6.19-29.39-10.72-43.72a30.28,30.28,0,0,1-.7-4.38c3,.75,3.2,3.53,4,5.75a168.07,168.07,0,0,1,10.09,47.83c1,13.15-.65,26-3.18,38.74C566.54,311.35,566.65,313.86,563.93,314.27Z" transform="translate(-221 -97.28)"/><path class="cls-25" d="M540.94,364.25c.76-1.83,1.17-3.91,2.32-5.44,9-11.94,13.51-26,18.51-39.74.46-1.25.33-2.71,2.16-2.8.54,5.94-2.8,10.67-4.68,15.91-2.76,7.67-5.84,15.15-10.37,21.85C546.49,357.57,545.67,362.49,540.94,364.25Z" transform="translate(-221 -97.28)"/><path class="cls-25" d="M472,417.22c2.11-4.57,7.06-4.63,10.76-6.14,12.44-5.1,23-12.82,33.2-21.34a4.6,4.6,0,0,1,3-1.5,3.48,3.48,0,0,1-1.17,2.64C504.24,402.67,489.38,412.16,472,417.22Z" transform="translate(-221 -97.28)"/><path class="cls-25" d="M344,151.35c-1,3.71-4.63,4.84-7.14,7-3.86,3.29-8,6.32-12.85,8a6,6,0,0,1,4.11-6.24C334,158,338.54,153.86,344,151.35Z" transform="translate(-221 -97.28)"/><path class="cls-25" d="M520,388.24a4.06,4.06,0,0,1,1.51-3,219.45,219.45,0,0,0,17.28-19.05c.45-.54,1.46-.63,2.2-.93-1.49,6.22-7.15,9.33-10.75,13.95C527.46,382.7,524.62,386.67,520,388.24Z" transform="translate(-221 -97.28)"/><path class="cls-25" d="M553.94,213.32c-2.67-1.17-4.2-2.9-3-6A11.15,11.15,0,0,1,553.94,213.32Z" transform="translate(-221 -97.28)"/><path class="cls-25" d="M547.94,202.33c-2-.1-2-1.55-2-3A3,3,0,0,1,547.94,202.33Z" transform="translate(-221 -97.28)"/><path class="cls-25" d="M555.93,216.32c-2-.1-2-1.55-2-3A3,3,0,0,1,555.93,216.32Z" transform="translate(-221 -97.28)"/><path class="cls-24" d="M542.94,377.24c2.72-7.63,8.46-13.37,12.71-20,4-6.21,6.46-13,9.48-19.59,4.72-10.32,7-21.36,10-32.15,1.63-5.95,1.46-12.43,1.81-18.69A163.87,163.87,0,0,0,575.67,254a154,154,0,0,0-10-35.29,164.2,164.2,0,0,0-13.57-25.79,79.44,79.44,0,0,0-7.79-9.63c-1.56-1.78-3.13-3.46-3.38-5.93,6.1,3,9.23,8.69,12.92,13.89,9.51,13.41,15.63,28.43,19.85,44.17a150.64,150.64,0,0,1,5.57,34.67,175.53,175.53,0,0,1-2.53,37.42c-2.8,15-8.26,29.33-14.7,43.15-2.7,5.79-7.28,10.68-10.3,16.35A28.78,28.78,0,0,1,542.94,377.24Z" transform="translate(-221 -97.28)"/><path class="cls-24" d="M525,159.34c-7.22-2.46-12.47-8-18.31-12.44-6.88-5.23-14.44-8.56-22.31-11.58-5.68-2.18-10.72-5.88-16.93-6.86-1.46-.23-3.29-1-3.42-3.1a3.31,3.31,0,0,1,4.57-1.85c3.71,2.18,7.83,1.58,11.73,2.2.09,2.3-2.39,1.08-2.68,2.53.12.25.17.68.38.79,10.32,5.38,22.48,7.4,31.48,14.77,5.18,4.24,10.94,8.24,15.25,13.61C525.05,157.84,524.88,158.69,525,159.34Z" transform="translate(-221 -97.28)"/><path class="cls-24" d="M474,427.22c0-2.59,2.24-3,3.93-4,8-4.33,17.07-6.45,24.5-12,6.23-4.64,12.55-9.15,18.89-13.61a16.13,16.13,0,0,1,3.66-1.44c-.64,2.67-3.1,3.87-4.92,5.25-11.11,8.43-22.16,17-35.82,21.15C480.6,423.72,478,427,474,427.22Z" transform="translate(-221 -97.28)"/><path class="cls-24" d="M540.94,175.34c-6.3-4.11-12-8.77-15-16,1.43.12,3.35-.52,4,1.25,1.79,5.16,6,8.11,9.76,11.58C540.43,172.88,540.54,174.27,540.94,175.34Z" transform="translate(-221 -97.28)"/><path class="cls-24" d="M525,395.23c2.13-5,6.71-7.34,11-10C534,390.43,529.45,392.82,525,395.23Z" transform="translate(-221 -97.28)"/><path class="cls-24" d="M536.94,385.24c.59-2.26,1.49-4.28,4-5C541,383.05,539.85,384.83,536.94,385.24Z" transform="translate(-221 -97.28)"/><path class="cls-24" d="M540.94,379.24a1.83,1.83,0,0,1,2-2A1.83,1.83,0,0,1,540.94,379.24Z" transform="translate(-221 -97.28)"/><path class="cls-24" d="M301.06,177.34c-.06-1.85,0-3.55,1.51-5.05,7.81-8,15.27-16.36,24.95-22.3,2.32-1.42,4.81-3.21,4.52-6.64h4c.34,2.54-1.21,4.15-3,5.35-9.61,6.41-17.43,14.79-25.67,22.73C305.29,173.42,304.75,177.1,301.06,177.34Z" transform="translate(-221 -97.28)"/><path class="cls-15" d="M514.06,257.26l-.12-10.95c2.27,3.49.45,7.34,1,11A8.06,8.06,0,0,1,514.06,257.26Z" transform="translate(-221 -97.28)"/><path class="cls-20" d="M447.06,391.22c3-2.39,3-2.39,7.92-2a21.34,21.34,0,0,0,4-4h0c4.55,5.22,8.87.8,12.87-.7,11.16-4.16,19.92-12.27,29.21-19.31,4.75-3.6,7.65-9.54,11.95-13.86a70,70,0,0,0,14-20.91c4.09-9.06,9-18.07,8.28-28.58a3.57,3.57,0,0,1,.89-2.75c2.51-2.65,2.79-6.12,2.64-9.27-.43-8.75,1.12-17.43.23-26.21-1-10.18-4.25-19.69-7.56-29.21-3.08-8.83-8.44-16.23-14.76-23.05-2.7-2.91-2.8-8.06-7.77-9.06a2.37,2.37,0,0,1-2-1h0c-1.83-1.61-.14-4.4-2-6h0a2.53,2.53,0,0,0-4,0c-2.68-4.87-7.16-7.52-11.67-10.41-1.23-.78-.28-5-.33-7.58,5.32,4.2,11.46,7.72,15.79,12.77,5.73,6.7,12.34,12.55,17.12,20.31,5.77,9.37,11.31,18.7,14.61,29.16a122.45,122.45,0,0,1,.18,74.3c-3.61,11.8-8.22,23-15.55,33a136.75,136.75,0,0,1-43.05,38.41c-6.24,3.57-13.06,5.43-19.59,8.06-3,1.2-6.72.52-10.12.49C446.56,393.87,447.14,392.3,447.06,391.22Z" transform="translate(-221 -97.28)"/><path class="cls-28" d="M521,246.3c2.68-.9,3.53-.57,4.21,2.84,1.83,9.08,4.22,18.05,3.75,27.39-.65,12.72-1.83,25.2-6.44,37.44a120.77,120.77,0,0,1-21.28,36.42c-10.85,12.68-24.8,21.26-39.85,28.16-.75.35-1.67,1.21-2.21,1-4-1.45-4.45,1.22-4.55,4.93-2.51-2.51-4.76-3.72-7.51-2.25,0-2,0-3.94,0-5.91,3.15,1,6.08,1.23,7.91-2.27.31-.59.46-1.34,1.27-1.21,10.14,1.62,16.61-5.92,23.66-10.6,7.56-5,15-11,20.33-18.77,6.45-9.35,13.82-18.08,16.85-29.5,1.95-7.33,3.37-14.88,5.46-22,2.14-7.26-.22-13.61.49-20.3a19.63,19.63,0,0,1,1.06-3.77c.77-2.36,2.24-4.83-1.73-5.84-1.72-.43-1.4-2-1.41-3.33C520.93,254.62,521,250.46,521,246.3Z" transform="translate(-221 -97.28)"/><path class="cls-20" d="M487,177.34c-.17,1.24.56,3-.87,3.56-2,.83-4.16-1.1-4.83-2-1.32-1.73-2.71-1.43-4.22-1.65-.34-1.87-.67-3.75-1.09-6.09C480.37,172.08,484.86,172.38,487,177.34Z" transform="translate(-221 -97.28)"/><path class="cls-29" d="M453,409.23c2-.7,4.28-.51,6-2,4.86-2.54,10.36-3.17,15.39-5.4,11.78-5.21,22.29-12.3,32.49-20,4.39-3.33,7.76-7.7,11.86-11.31,1.83-1.62,3.47-3.78,6.43-2.37a1.71,1.71,0,0,1-.2,2.1l-1,1c-1.75,1.94-3,4.3-5,6l-1,1q-1.51,1.49-3,3h-1c-2.58,3.14-6.24,5.05-9,8h-1c-10.67,9.34-23.37,15-36.43,20-3.23,1.23-6.86,1.5-9.55,4h-2C454.91,412,453.19,411.16,453,409.23Z" transform="translate(-221 -97.28)"/><path class="cls-29" d="M544.94,341.26v1c-5.15,7.72-9.54,16-15.82,22.91-1.28,1.43-2,3.73-4.59,1.84-.59-3.41,1.88-5.52,3.51-7.91,6.42-9.44,13.3-18.52,17.55-29.32,4.09-10.42,6.64-21.19,8.9-32.06.54-2.59.93-5.22,1.56-7.8.42-1.74,1.34-2.68,3.22-1.61,1.44,4,.17,7.94-.47,11.74a147.73,147.73,0,0,1-12.42,39.18A8.16,8.16,0,0,1,544.94,341.26Z" transform="translate(-221 -97.28)"/><path class="cls-26" d="M544.94,341.26c4.66-12.56,9.94-24.94,12.18-38.26.82-4.87,1.22-9.81,1.81-14.72-1.84-2.5-1.76-5.12-.44-7.81A2.17,2.17,0,0,1,561,280c3.8,4.12,1,8.22-.05,12.32v6c-2,7.58-3.64,15.26-6.07,22.7-2.08,6.37-5.06,12.45-7.64,18.66A2.47,2.47,0,0,1,544.94,341.26Z" transform="translate(-221 -97.28)"/><path class="cls-26" d="M458,413.22c0-2.4,1.83-2.85,3.64-3.34,14.19-3.77,27-10.45,38.87-18.93,1.06-.75,2-1.78,3.47-1.71-.84,4.46-5.1,5.5-8.1,7.39A133.35,133.35,0,0,1,458,413.22Z" transform="translate(-221 -97.28)"/><path class="cls-26" d="M525,367.25c5.48-3.87,8.68-9.63,12.48-14.9,2.45-3.4,3.6-7.79,7.51-10.09A67,67,0,0,1,532,363.12c-2.19,2.46-2.86,6.62-7,7.13v-2c-.26-.23-.34-.45-.26-.67S524.86,367.25,525,367.25Z" transform="translate(-221 -97.28)"/><path class="cls-26" d="M505,389.24c1.57-4.27,5.35-6.06,9-8C512.59,385.75,508.83,387.56,505,389.24Z" transform="translate(-221 -97.28)"/><path class="cls-26" d="M519,377.24c.94-2.61,1.71-5.35,5-6C524,374.65,522.08,376.46,519,377.24Z" transform="translate(-221 -97.28)"/><path class="cls-26" d="M515,381.24a2.81,2.81,0,0,1,3-3A2.81,2.81,0,0,1,515,381.24Z" transform="translate(-221 -97.28)"/><path class="cls-5" d="M389,394.23v7c-1.11,1.28-1.83,3.33-4.19,2.1a1.68,1.68,0,0,1,.2-2.09c.55-3.78-.57-5.45-4.8-6.64-14.36-4-27-11.62-38.47-21.12-11.21-9.27-21.1-19.9-28.08-32.57-8-14.44-14.16-29.73-15.71-46.52-.43-4.62-.55-9.26-1-13.85-1.34-13.87,1.86-27.27,5.58-40.17a106.47,106.47,0,0,1,25.1-44.15c5.7-6,10.54-12.82,17.93-17.1,1.82-1.06,3.39-1.94,5.46-1.77.35,4.43.07,7.73-5.14,10.23A35.3,35.3,0,0,0,335,195.33c-7.07,5.36-12.12,12.4-17,19.74-7.68,11.68-11.69,24.78-15.29,38-1.36,5-1.18,10.47-1.75,15.73-2.12,19.73,2,38.58,9.15,56.69,3.84,9.76,9,19.18,16.47,26.93a48.44,48.44,0,0,1,6.11,7.19c4.1,6.33,10.42,10.07,16.11,14.6,10.38,8.28,22.34,13.54,34.39,18.7A11.42,11.42,0,0,0,389,394.23Z" transform="translate(-221 -97.28)"/><path class="cls-18" d="M397,149.35c-1.81,3.05-5.28,2.73-7.95,3.32-13.48,3-25.42,8.83-37,16.33-8.71,5.64-17.05,11.44-24.13,19-11.66,12.42-21.08,26.23-27.06,42.36-6.2,16.72-10.57,33.82-9.63,51.69.7,13.47,2.77,26.89,8,39.57,1,2.46,2.09,4.9,1.86,7.66-4,1.06-3.78-2.61-4.47-4.45a145.51,145.51,0,0,1-7.73-31.32c-2-14.43-1-28.55,2-42.92,5.09-24.45,17.13-45,32.35-64.16a4.88,4.88,0,0,1,1.24-1c6-3.6,10.48-9.06,16.11-13.19,13.48-9.88,27.45-18.53,44-22.11,2.93-.63,5.77-1.57,8.68-2.25C394.71,147.55,396.66,146.6,397,149.35Z" transform="translate(-221 -97.28)"/><path class="cls-30" d="M324.05,186.33c-1.6,4.24-4.49,7.77-7.23,11.16-13.11,16.25-20.23,34.95-25,55.06-3.85,16.38-3.15,32.43-.37,48.73,1.51,8.88,4.44,17.28,7.35,25.73.4,1.18.75,2.21,2.22,2.25v2c4.41,5.84,7,12.76,11.17,18.76,3.51,5,7,10.05,10.74,14.93,1,1.31,2.24,2.57,1.25,4.45a2.9,2.9,0,0,1-2.16.62,3.38,3.38,0,0,1-1.43-.58c-15.62-19.32-27.42-40.51-32-65.27-.63-3.4-1.23-6.87-3.17-9.89a5.7,5.7,0,0,1-.25-3.14,10.72,10.72,0,0,0,.44-5.42c-1.71-7.45.49-14.85,0-22.26-.27-4.53,2.22-8.28,3-12.49a124.87,124.87,0,0,1,17.48-45.14c3.81-5.94,8.67-11.25,12.52-17.25C319.75,186.94,321.37,184.92,324.05,186.33Z" transform="translate(-221 -97.28)"/><path class="cls-30" d="M397,149.35c-4.91-1.36-9.15,1.4-13.58,2.48a94.47,94.47,0,0,0-30.13,13.31c-9,6-17.62,12.09-25.24,19.68a4.18,4.18,0,0,1-3,1.51c-1.48-2.41.64-3.58,1.83-5,2.89-3.37,6.44-6.05,9.61-9.14a5.61,5.61,0,0,1,1.16-.78c3.06-1,4.46-3.94,6.71-5.91a6.75,6.75,0,0,1,1.41-.67c7.58-2.31,12.89-8.59,20.4-11.24,16.17-5.71,32.39-10.87,49.79-10.63,8.29.12,16.61-.63,24.84,1,1.61.32,3.89-.32,4.19,2.39-1.47,1.63-3.42,1-5.16,1-11.61.06-23.22,0-34.82,0a.61.61,0,0,1-1,0c-1.57.19-3.67-.67-4,2Z" transform="translate(-221 -97.28)"/><path class="cls-29" d="M321.05,369.25h1c10,12.17,22.94,20.48,36.42,28,7.06,4,14.37,7.64,22.55,9h2c1.47,1.43,3.88,2.24,3.33,5-1.26,2.14-2.83,1.37-4.71.81-15.77-4.64-29.74-12.86-43.48-21.56a7.34,7.34,0,0,1-1.24-.73,33.63,33.63,0,0,0-8.88-7.4,5.77,5.77,0,0,1-1.14-.69c-1.15-1.28-2.12-2.75-3.67-3.65a6.43,6.43,0,0,1-1-.95c-1.21-2.64-4.66-4.39-3.18-8.09A1.65,1.65,0,0,1,321.05,369.25Z" transform="translate(-221 -97.28)"/><path class="cls-18" d="M324.05,369.25c-4.51-6.68-9.15-13.28-13.49-20.06-3.66-5.7-7.45-11.36-9.5-17.93,2.05,0,2.8,1.5,3.51,3A125.37,125.37,0,0,0,325.7,366a96,96,0,0,0,20.15,17.17c1.6,1,3.09,2,3.18,4.11l-.56.41c-7-2.16-12.35-6.69-17.33-11.73-2-2-3.55-4.36-6.14-5.67A3,3,0,0,1,324.05,369.25Z" transform="translate(-221 -97.28)"/><path class="cls-16" d="M324.05,369.25h1c6.28,8.41,14.52,14.43,23.71,19.28a5.05,5.05,0,0,1,1.16.84,87.53,87.53,0,0,0,26.37,13.38c1.74.57,3.5,1,4.73,2.48v1c-3.85,2.45-7-.49-10.11-1.71-15.31-6.06-28.83-15.19-41.54-25.54a23.55,23.55,0,0,1-7.32-9.72Z" transform="translate(-221 -97.28)"/><path class="cls-30" d="M381,405.23c-10.89-2.14-20.34-7.61-29.86-12.92a3.45,3.45,0,0,1-2.13-3.07c2.19-1.41,3.91.35,5.44,1.18C363,395,371.72,399.3,381,402.23,382.17,403.23,380.69,404.23,381,405.23Z" transform="translate(-221 -97.28)"/><path class="cls-18" d="M381,402.23c-8.7-.35-15.8-5-23.16-8.8-2.9-1.51-5.57-3.45-8.83-4.19a1.35,1.35,0,0,1,0-2h0c8.1,2,14.73,7.15,22.34,10.22C374.69,398.79,379,398.29,381,402.23Z" transform="translate(-221 -97.28)"/><path class="cls-30" d="M386,411.22c.07-2.31-4-2.12-3-5v-2a2.36,2.36,0,0,1,2-1l4-2c.34,1.34.67,2.67,1,4a6.19,6.19,0,0,1,.95,3.95L387,411.23A.6.6,0,0,1,386,411.22Z" transform="translate(-221 -97.28)"/><path class="cls-18" d="M385,403.23a2.07,2.07,0,0,1-2,1c0-1.46,0-2.91,2-3Z" transform="translate(-221 -97.28)"/><path class="cls-16" d="M525,367.25v1c-2.67.26-4.49,1.92-6.24,3.73-4.57,4.73-9,9.59-14.39,13.44-12.39,8.83-25,17.17-39.95,21.21a22.56,22.56,0,0,1-5.39.6c0-1.65.35-2.6,2.35-3.06,19.29-4.44,34.52-15.81,49.59-28,12.36-10,20.33-23.21,28.18-36.23,7.58-12.57,10.39-27.39,14-41.72,3.22-12.91,2.12-26.11.24-38.45-2.42-15.92-6.7-32.07-15.61-46.2-4.49-7.12-9.15-14.14-13.74-21.2-.68-.66-1.32-1.35-2-2,.12-3.6-3.64-3.49-5.42-5a99.2,99.2,0,0,1-8.57-8c-.65-.69-1.34-1.33-2-2-1.17-.72-1-1.9-1-3,3.18-1.39,5,1.07,6.87,2.71a139.26,139.26,0,0,1,29.61,36.54A117.7,117.7,0,0,1,552,236.76c3.13,10.85,7.63,21.78,6.23,33.61-.4,3.33.58,6.6.68,9.92v8c-3.34,2.08-2.35,5.68-3,8.67-2.29,11.27-4.92,22.39-9.14,33.18-4.68,12-12.45,21.88-19.6,32.25C526.18,363.89,525.11,365.34,525,367.25Z" transform="translate(-221 -97.28)"/><path class="cls-29" d="M558.93,280.29c-2-1.69-2.17-4-2-6.37.79-9.9-1.65-19.25-4-28.79a136.7,136.7,0,0,0-14.55-36.51c-8.21-14-18.62-26.39-32-36a4.06,4.06,0,0,0-1.44-.31h-1c-1.86-2.82-4.59-4.54-7.54-6-9.94-6.89-20.35-12.88-32-16.21-8.4-2.4-16.71-5.2-25.4-6.49-1.44-.22-3.05-.38-3.41-2.3,1-2.85,3.42-2.38,5.41-2,16.54,3.34,32.95,7.14,47.47,16.36,2.26,1.43,4.81,2.16,7.18,3.31a5.32,5.32,0,0,1,1.32.68c5.82,4.55,10.71,10.3,17.57,13.5a4.78,4.78,0,0,1,3.45,3.34c1,3.55,3.59,5.54,6.69,7.07a6.3,6.3,0,0,1,2.49,2.7c3.43,6.32,8.72,11.3,12.41,17.46A170.82,170.82,0,0,1,560,257.54c.71,3.42.23,7,.27,10.47,0,2.35.06,4.67,1.48,6.7.24,1.93.75,3.9-.79,5.58Z" transform="translate(-221 -97.28)"/><path class="cls-16" d="M436,141.35c8.89,2.32,17.79,4.62,26.67,7a80.41,80.41,0,0,1,24,10.47,27,27,0,0,0,6.56,3.47c2.09.66,3.52,1.78,3.74,4.08l-.43.41a1.29,1.29,0,0,1-1.57-.41h-2c-.65-.68-1.34-1.32-2-2h-2c-.65-.68-1.34-1.32-2-2-3.41-1.5-5.79-5.08-10-5-1.65-1.85-4.29-2.23-6-4h-4a2.55,2.55,0,0,0-2-1h-2c-3.51-2.84-8.4-2.37-12-5h-2a2.59,2.59,0,0,1-2-1h-2c-2.7-2.15-6.23-1.52-9.05-1.59-11.9-.3-23.8-1.28-35.74.87a198.66,198.66,0,0,0-36.61,10.58c-6,2.31-9.84,8-16.19,9.44-.8.19-1.58.46-2.36.69-1.41-3.29,1.5-3.87,3.26-5.07,17.13-11.63,36.63-16.74,56.61-20.52.49-.09,1-.27,1.44-.4a14.33,14.33,0,0,1,5.87.06,61.23,61.23,0,0,0,17.83-.09C432.14,140,434.25,139.66,436,141.35Z" transform="translate(-221 -97.28)"/><path class="cls-16" d="M497,166.34c3.75.36,6.9,1.4,7,6-3,.18-5.49-.43-6-4-.55-.55-1.62-.85-1-2Z" transform="translate(-221 -97.28)"/><path class="cls-30" d="M451,147.35c4.22,1.15,8.95,1.05,12,5C459,150.67,453.87,151.69,451,147.35Z" transform="translate(-221 -97.28)"/><path class="cls-30" d="M471,153.35c2.37.79,5.17.91,6,4C474.61,156.56,471.81,156.43,471,153.35Z" transform="translate(-221 -97.28)"/><path class="cls-30" d="M497,166.34c.34.67.67,1.34,1,2-1.45,0-2.9,0-3-2Z" transform="translate(-221 -97.28)"/><path class="cls-30" d="M447,146.35a2.08,2.08,0,0,1,2,1C447.4,148.87,447.19,147.62,447,146.35Z" transform="translate(-221 -97.28)"/><path class="cls-30" d="M506,175.34a1.83,1.83,0,0,1,2,2A1.83,1.83,0,0,1,506,175.34Z" transform="translate(-221 -97.28)"/><path class="cls-30" d="M465,152.35c1.59-1.52,1.8-.27,2,1A2.07,2.07,0,0,1,465,152.35Z" transform="translate(-221 -97.28)"/><path class="cls-30" d="M487,162.34a1.84,1.84,0,0,1,2,2A1.82,1.82,0,0,1,487,162.34Z" transform="translate(-221 -97.28)"/><path class="cls-30" d="M522,190.33a1.83,1.83,0,0,1,2,2A1.83,1.83,0,0,1,522,190.33Z" transform="translate(-221 -97.28)"/><path class="cls-30" d="M491,164.34a1.83,1.83,0,0,1,2,2A1.83,1.83,0,0,1,491,164.34Z" transform="translate(-221 -97.28)"/><path class="cls-17" d="M404,147.35h1C404.67,147.93,404.34,147.93,404,147.35Z" transform="translate(-221 -97.28)"/><path class="cls-5" d="M470,163.34h-2c.15-.73.14-1.72,1.22-1.48C469.54,161.93,469.72,162.82,470,163.34Z" transform="translate(-221 -97.28)"/><path class="cls-21" d="M505,195.33c3.61,1,1.32,4,2,6C503.34,200.31,505.63,197.33,505,195.33Z" transform="translate(-221 -97.28)"/><path class="cls-21" d="M507,201.32a2.06,2.06,0,0,1,2,1c-.17.88.26,2.54-1,2.34C506.23,204.38,507.25,202.49,507,201.32Z" transform="translate(-221 -97.28)"/><path class="cls-21" d="M501,195.33c.11-1.07.53-1.85,1.75-1.93a1.86,1.86,0,0,1,2.24,1.93Z" transform="translate(-221 -97.28)"/><path class="cls-19" d="M459,385.24c.44,3.1-.9,4.43-4,4Q454.34,384.58,459,385.24Z" transform="translate(-221 -97.28)"/><path class="cls-22" d="M326.05,264.29c-1.26-2.54-2.45-5.07,1-6.94C326.66,259.66,328,262.21,326.05,264.29Z" transform="translate(-221 -97.28)"/><path class="cls-22" d="M327,285.29c.72.13,1.58.1,1.51,1.19a.42.42,0,0,1-.31.31c-1.09.07-1.07-.78-1.2-1.5Z" transform="translate(-221 -97.28)"/><path class="cls-14" d="M517,177.34a2.81,2.81,0,0,0-3-3c-5-5.46-11.34-9.31-17-14h-1c-8.71-5.48-17.63-10.65-27.46-13.79-9.14-2.91-18.31-6.55-27.93-6.81-9.9-.26-19.74-1.38-29.8-.47-12.38,1.12-24.42,3-36,7.33-16.45,6.16-32,14-44.72,26.48-1.51,1.48-3.28,2.71-4.53,4.46a27.36,27.36,0,0,0-7,7.26,13.65,13.65,0,0,1-2.6,2.55c-6.35,7.58-12.66,15-17.2,24.08s-7.62,18.32-11.08,27.62c-3.69,9.9-5.32,20.15-6,30.61-.11,1.71.66,3.25.72,4.91a33.66,33.66,0,0,1,0,5.59c-1.37,5.6-.43,11.32.5,16.68,2,11.51,4.35,23.07,9.8,33.63,1.66,3.21,1.79,7.11,4.46,9.85a7.11,7.11,0,0,1,.79,1.25c2.13,5.13,4.6,10.06,8.38,14.23A6.41,6.41,0,0,1,307,357a242.76,242.76,0,0,0,16,20.29h1a13.36,13.36,0,0,0,3,4h1c2.52,3.21,6.17,5.15,9,8h1c10.49,8.83,22.63,14.7,35.29,19.64,2.15.84,4.5,1.24,6.45,2.5,1.42.91,3.5,1.45,3.24,3.85a2.09,2.09,0,0,1-2,1c-1.92-2-4.54-2.66-7-3.52a138.15,138.15,0,0,1-39.65-21.4,141.77,141.77,0,0,1-55.49-99c-1.42-15.38-1.13-30.59,2.55-45.39a204.78,204.78,0,0,1,11.49-32.81c5.83-13.26,15-23.81,24.35-34.28a121.72,121.72,0,0,1,36-27.37c12.52-6.38,25.26-11.61,38.93-14.6a33.26,33.26,0,0,1,7.86-.94c10.46.27,20.45-4.3,31.45-1.06,7.34,2.16,15.9.8,23.49,3.16,11.32,3.51,22.63,6.81,33.18,13,7.86,4.59,16.27,8.76,22.77,14.78,8.19,7.58,16.51,15.24,23.43,24.19,12.69,16.41,20.91,34.9,25.77,54.88,2.45,10.08,4.37,20.28,3.39,30.88-.4,4.34.94,8.84-.48,13.26-.4,1.22-.65,2.22-2.1,2.32-.65-4,2-8,0-12v-6c-1-3-.82-6.18-.93-9.27-.43-11.87-3.81-23-7.8-34A164.28,164.28,0,0,0,542,208.42a110,110,0,0,0-16-22.09,3.46,3.46,0,0,0-2-2Q520.48,180.8,517,177.34Z" transform="translate(-221 -97.28)"/><path class="cls-26" d="M383,415.23c-4.2-4.4-10.09-5.46-15.38-7.56-9.26-3.68-17.59-9-26.21-13.85-1.67-.94-3.29-2.3-3.39-4.58,6.81,4,13.5,8.17,20.46,11.88,6.38,3.4,12.8,7.1,20.1,7.94,2.73.31,4.1,4.64,7.42,2.16h1C387.22,414.1,385.88,415.43,383,415.23Z" transform="translate(-221 -97.28)"/><path class="cls-16" d="M337,172.34c-1.73,3.94-5.93,5.55-8.36,8.84-1.25,1.69-3.54,2.64-3.63,5.15h-1c-3.42.79-5.27,3.37-6.57,6.25a27.86,27.86,0,0,1-5.56,8.17c-6,6-9.21,13.71-12.85,21-4.41,8.86-6.15,18.79-9.12,28.24-2.61,8.32-2.45,16.88-3.85,25.28-.62,3.71,1.34,7.17,1,10.84-.19,1.74.64,3.69-1,5.16-2.44,0-2-2-2.23-3.47-.26-1.71,0-3.52-1.13-5a4.55,4.55,0,0,1-.39-2.21,14.25,14.25,0,0,0,0-6.43,4.45,4.45,0,0,1,.35-2.22,7.24,7.24,0,0,0,1.07-3.78c1.42-19.83,7.73-38.1,16.51-55.86,4.36-8.82,11-15.75,16.22-23.83,3.5-5.43,9.3-9.35,14-14.06C332,172.78,334.15,170.73,337,172.34Z" transform="translate(-221 -97.28)"/><path class="cls-29" d="M283.07,282.29c2.48.33,1.84,2.27,2,3.84.18,1.74-.66,3.69,1,5.15v3c3.09,9.58,4.27,19.69,8,29.07a163.56,163.56,0,0,0,8.12,18.49c4.08,7.48,9.07,14.18,14,21,.85,1.17,1.74,2.48,1.28,4.12-2.35,2.06-3.23-.38-4.17-1.59a64.06,64.06,0,0,0-7.23-8.12v-1c-3.57-4.3-5.38-9.72-9-14v-1a136.8,136.8,0,0,1-9.27-22.35c-3.15-10.4-5.87-21-5.79-32C282,285.24,281.64,283.58,283.07,282.29Z" transform="translate(-221 -97.28)"/><path class="cls-16" d="M317.05,367.25c-1.86-6.62-7.52-10.68-11-16.28-8.77-14.32-15.1-29.5-18.14-46.05-.65-3.54-2.4-6.88-1.89-10.64,3.63,2.43,3.14,6.61,3.86,10A141.9,141.9,0,0,0,301,337.65a113.5,113.5,0,0,0,14.34,22.45,36.46,36.46,0,0,1,5.71,9.15h-2C316.94,370,316.28,369.35,317.05,367.25Z" transform="translate(-221 -97.28)"/><path class="cls-29" d="M337,172.34a16.15,16.15,0,0,0-9.47,6.69c-2.27,3.3-6.61,5-8.54,8.17-5.08,8.3-11.93,15.26-16.75,23.85a119.43,119.43,0,0,0-10.09,23.64c-3.19,10.49-7.47,20.89-7.2,32.25.05,1.84,1.36,4.54-1.92,5.35-2.23-4.75-1.78-10.06-.66-14.56,3.81-15.38,8.18-30.54,15.45-44.93,5-9.81,11.76-17.91,18.19-26.47a3.46,3.46,0,0,1,2-2c2.35-2.31,4.69-4.64,7-7a4.17,4.17,0,0,1,4-4c16.77-15.27,36.37-25.15,58.22-30.84a136.57,136.57,0,0,1,14.54-2.93c1.58-.23,3.73-1,4.21,1.78l-27.12,7c-11.84,3.07-22.18,9.3-32.57,15.42a2.86,2.86,0,0,0-1.28,2.55h-1c-2.13,1.88-4.44,3.56-6,6Z" transform="translate(-221 -97.28)"/><path class="cls-16" d="M338,172.34c-.1-4.1,2.75-5.24,6-6A7.93,7.93,0,0,1,338,172.34Z" transform="translate(-221 -97.28)"/><path class="cls-26" d="M317.05,367.25a1.83,1.83,0,0,0,2,2c.34,3.16,3.66,4.83,4,8-4.65-1-6.13-5.45-8.51-8.56-2.87-3.76-6.78-6.81-8.49-11.43,3.27.66,4.62,3.41,6.5,5.69C313.85,364.51,314.57,366.86,317.05,367.25Z" transform="translate(-221 -97.28)"/><path class="cls-26" d="M337,389.24c-3.87-1.68-7.63-3.49-9-8C331.69,383.18,335.47,385,337,389.24Z" transform="translate(-221 -97.28)"/><path class="cls-26" d="M327,381.24c-2.58-.14-3.09-1.84-3-4C325.65,378.12,327,379.22,327,381.24Z" transform="translate(-221 -97.28)"/><path class="cls-30" d="M349,387.24v2c-2.26.42-3.78-1.12-5.34-2.24-5.38-3.83-11-7.41-15.61-12.2a9.36,9.36,0,0,1-3-5.55c3,.31,4.47,2.76,6,4.72C335.94,380,342.37,383.74,349,387.24Z" transform="translate(-221 -97.28)"/><path class="cls-26" d="M406,141.35c-4.1-2.5-8.2-.3-11.92.67-9.91,2.6-20,4.69-29.35,9.24-10.44,5.09-20.67,10.47-29.42,18.27-1.84,1.64-3.71,3.32-6.28,3.81.31-2.83,2.55-4.22,4.49-5.67,17.71-13.31,37.11-23.33,59-27.42A141.18,141.18,0,0,1,430.91,138c12.49,1.07,24.55,3,36.33,7.2,7.18,2.54,14.52,4.8,20.59,9.55,2.62,2,7.25,1.12,8.13,5.57-8.09-2.21-14.46-7.94-22.31-10.75a220.49,220.49,0,0,0-34-9.18c-1.25-.24-2.7-.35-3.67.94h-6a66.9,66.9,0,0,0-18,0Z" transform="translate(-221 -97.28)"/><path class="cls-26" d="M526,186.33c5.54,2.63,7.91,8.13,11.25,12.67,8.07,11,13.33,23.51,17.89,36.17,3.14,8.74,5.68,18,5.75,27.45,0,3.88,2.09,7.78.09,11.67-2.78-.48-2-2.71-2-4.36.37-20.46-7-38.64-15.83-56.59-4.44-9-10.48-16.76-16.32-24.74A9.22,9.22,0,0,1,526,186.33Z" transform="translate(-221 -97.28)"/><path class="cls-26" d="M497,160.35c6.48,3.67,13.41,6.79,17,14a6.1,6.1,0,0,1-4.63-2.52C505.86,167.22,499.46,165.87,497,160.35Z" transform="translate(-221 -97.28)"/><path class="cls-26" d="M517,177.34a10.54,10.54,0,0,1,7,7A10.54,10.54,0,0,1,517,177.34Z" transform="translate(-221 -97.28)"/><path class="cls-29" d="M412,141.35a18.94,18.94,0,0,1,18,0A33.31,33.31,0,0,1,412,141.35Z" transform="translate(-221 -97.28)"/><path class="cls-26" d="M316.05,186.33c-2.25,6-7.34,10-10.74,15.21-11.29,17.23-17.27,36.6-22,56.37-1.09,4.55-.21,9.58-.23,14.38v2a1.39,1.39,0,0,1-2,0c-1.36-6.06-.28-12.13.65-18,1.89-12.13,6.27-23.67,10.68-35,4.77-12.27,12.1-23.28,20.66-33.38A3.83,3.83,0,0,1,316.05,186.33Z" transform="translate(-221 -97.28)"/><path class="cls-26" d="M283.07,282.29c.17,16.41,3.05,32.21,10,47.21,1.73,3.73,2.67,7.83,4,11.76-2.36-.2-2.7-2.29-3.36-3.86-5.32-12.62-10-25.49-12-39.08-.88-5.92-2-12-.63-18a1.39,1.39,0,0,1,2,0Z" transform="translate(-221 -97.28)"/><path class="cls-26" d="M297.06,342.26c4.93,3.42,6.87,8.76,9,14C300.75,353.07,299.42,347.33,297.06,342.26Z" transform="translate(-221 -97.28)"/><path class="cls-26" d="M325,177.34a10.52,10.52,0,0,1-7,7A10.54,10.54,0,0,1,325,177.34Z" transform="translate(-221 -97.28)"/><path class="cls-29" d="M283.07,280.29h-2v-6h2A4.54,4.54,0,0,1,283.07,280.29Z" transform="translate(-221 -97.28)"/></svg>