<svg id="Layer_1" data-name="Layer 1" xmlns="http://www.w3.org/2000/svg" viewBox="0 0 199.82 200.38"><defs><style>.cls-1{fill:#2e3148;}.cls-2{fill:#1b1e36;}.cls-3{fill:#6e728e;}.cls-4{fill:#6e728f;}.cls-5{fill:#6d718d;}.cls-6{fill:#b4b6c6;}.cls-7{fill:#b5b7c6;}.cls-8{fill:#b6b8c7;}.cls-9{fill:#6d718e;}.cls-10{fill:#b3b5c5;}.cls-11{fill:#1c1f36;}.cls-12{fill:#b4b6c5;}.cls-13{fill:#2f334a;}.cls-14{fill:#1d2139;}.cls-15{fill:#6c708c;}.cls-16{fill:#6b6f8b;}.cls-17{fill:#6a6e8a;}</style></defs><title>game</title><path class="cls-1" d="M219.81,298.87c.05,55.3-44.61,100.23-99.73,100.33-55,.1-100-44.93-100.09-100.07s44.8-100.21,99.84-100.31S219.76,243.63,219.81,298.87Z" transform="translate(-19.99 -198.82)"/><path class="cls-2" d="M145.79,256.54c11.48,7.84,19.56,18,22.53,31.92a36.51,36.51,0,0,1,.43,6.9c-1.5,1.76-3.49,1.43-5.43,1.3a11.9,11.9,0,0,0-10.52.09c-7,.31-14,.63-20.92-.18-3.15-1.2-4.07-4.24-5.57-6.8-.59-1.93.21-3.6,1.14-5.15,5.09-8.49,9.87-17.17,15.16-25.53C143.35,257.94,143.79,256.21,145.79,256.54Z" transform="translate(-19.99 -198.82)"/><path class="cls-3" d="M86.7,227.75l66.24,0c.68,2.73-.18,5.67,1.19,8.3a2,2,0,0,1-.65,1.19c-7.52,5.23-15.63,9.47-23.5,14.13-8.58,4.87-17.09,9.86-25.43,15.16a6.09,6.09,0,0,1-1.06-5c6.1-5.31,13.64-8.29,20.32-12.65,7-4.46,14.33-8.25,21.69-12.91-17,0-33.67,0-50.29,0-2.47,0-5,.36-7.33-1C86.12,232.8,86.05,230.33,86.7,227.75Z" transform="translate(-19.99 -198.82)"/><path class="cls-4" d="M152.59,369.61q-29.48,0-58.93-.1c-2,0-4-.14-6-.21a6.89,6.89,0,0,1-.73-7.21,7.12,7.12,0,0,1,4.29-1c17.61-.07,35.22,0,53.06,0-7-3.85-13.65-7.94-20.44-11.86-6.52-4.58-14-7.72-20.3-12.6a6,6,0,0,1,.92-5c4.41,1.33,7.51,4.85,11.58,6.86,4.86,2.41,9.43,5.44,14.16,8.15,6.25,3.92,12.79,7.36,19.05,11.25,1.67,1,3.49,1.86,4.59,3.61C153.55,364.18,153.52,367,152.59,369.61Z" transform="translate(-19.99 -198.82)"/><path class="cls-4" d="M41.76,292.44c8.65-13.1,15.84-27.07,23.87-40.54,2.29-3.83,4.47-7.72,6.7-11.58,1.41-2.43,2.91-4.83,2.63-7.83,2.63,1.5,4.23,4,6.32,6.11.51,3-1.64,5-2.92,7.18-8.45,14.7-16.79,29.45-25.76,44.63,8.27-4.82,15.94-9.36,23.72-13.71,6.25-3.41,12-7.74,18.6-10.51,1.82.4,2.31,1.68,2.22,3.35-5.81,5.52-13.44,8.18-20,12.6-1.21.82-2.61,1.39-3.86,2.21-8,4.2-15.41,9.54-23.66,13.35A58,58,0,0,0,41.76,292.44Z" transform="translate(-19.99 -198.82)"/><path class="cls-4" d="M75.67,362.47c-8.2-12.13-14.72-25.24-22.21-37.79-3.74-6.27-7.15-12.73-10.71-19.1,2.19-2,4.25-4.17,7.07-5.35,8.38,3.54,15.72,8.93,23.71,13.18,6.08,3.71,12.29,7.2,18.4,10.85,1.83,1.09,3.86,2,4.66,4.26.2,1.32.11,2.52-1.26,3.23-6.71-2.68-12.46-7.08-18.78-10.46-7.53-4.44-15-9-23.49-13.56,6.46,12.1,13.3,23,19.55,34.22,2.42,4.35,5,8.59,7.36,13,.78,1.44,1.88,2.8,1.25,4.63C79.76,361.26,78.37,363.11,75.67,362.47Z" transform="translate(-19.99 -198.82)"/><path class="cls-4" d="M197.76,305.48q-15,26.19-29.93,52.36c-1.24,2.16-2.66,4.22-3.22,6.7-3.21-1.83-6.65-3.35-8.87-6.54-1.26-11.46-.25-22.95-.3-34.42,0-6.46-.73-13,.53-19.4a2.55,2.55,0,0,1,3.14-1.27,1.65,1.65,0,0,1,1.15,1.18c-1,14.74,1.31,29.43.9,44.17-.07,2.47.07,5-.83,7.33,3.07-7.38,7.55-14,11.41-21,5.14-9.28,10.74-18.3,15.9-27.58.88-1.58,1.79-3.2,3.59-4A8,8,0,0,1,197.76,305.48Z" transform="translate(-19.99 -198.82)"/><path class="cls-3" d="M162.7,295.65l6.05-.29,22.05.16c1.1,2.7,1.91,5.38-.72,7.74-6.53,1.54-13.15.53-19.72.69-2.54-.12-5.12.28-7.6-.57C160.11,300.83,162.29,298.23,162.7,295.65Z" transform="translate(-19.99 -198.82)"/><path class="cls-5" d="M145.79,256.54q-9.15,15.24-18.29,30.51a8.27,8.27,0,0,0-.57,2.34c-2.57.64-4.31-.36-5.36-2.7,7.13-7.79,11.28-17.51,16.88-26.29,1.25-1.95,2.32-4,3.5-6,4.08-5.7,6.46-12.52,11.55-17.56l.32-.29c1.85-.45,3.43-.35,4.06,1.85-2.86.35-3.35,2.93-4.47,4.85C150.81,247.63,148.32,252.1,145.79,256.54Z" transform="translate(-19.99 -198.82)"/><path class="cls-6" d="M75.67,362.47l5.22-3.11a1.78,1.78,0,0,1,1.24-.34,13,13,0,0,1,3.87,1c.71.65,1.32,1.32.82,2.38,1.28,2.16,1.06,4.51.86,6.86-2.72,2.78-5.74,4.62-9.6,2.31C74.4,369.41,74.63,366,75.67,362.47Z" transform="translate(-19.99 -198.82)"/><path class="cls-7" d="M190.92,302.31c-.51-2.25-1.08-4.51-.12-6.79,2.19-2.63,4.9-4,8.27-2.72a5.87,5.87,0,0,1,3.91,5.25c.38,4-1.95,6-5.22,7.43-2.29.16-4.1-1.15-6.07-2C191.34,303.18,190.72,303,190.92,302.31Z" transform="translate(-19.99 -198.82)"/><path class="cls-7" d="M80.87,238.62c-3.14-.91-4.84-3.22-5.91-6.13,1.21-7.26,5.69-9.07,11.74-4.74,1.49,2.08,1.1,4.46,1.08,6.79A3.79,3.79,0,0,1,86,238a13.91,13.91,0,0,1-3.87,1A1.73,1.73,0,0,1,80.87,238.62Z" transform="translate(-19.99 -198.82)"/><path class="cls-7" d="M157.88,238.37l-4.06-1.85c-2.65-2.67-2.39-5.65-.88-8.75,2.5-2.39,5.35-3.21,8.51-1.47a5.83,5.83,0,0,1,3.12,6.64C163.84,236.4,161.4,238.14,157.88,238.37Z" transform="translate(-19.99 -198.82)"/><path class="cls-8" d="M49.82,300.51c-1.72,2.58-3.81,4.64-7.07,5.07-3.47-.93-5.78-3-5.89-6.73-.1-3.29,1.69-5.47,4.9-6.41,4-.49,6.5,1.58,8.11,5l.45.53a2.51,2.51,0,0,1,0,2Z" transform="translate(-19.99 -198.82)"/><path class="cls-7" d="M156.73,359.39c3.7.07,6.23,1.94,7.88,5.15.44,3.3-.53,6-3.67,7.43-3.3,1.46-6.15.49-8.35-2.36-1.42-3-.84-5.71,1.07-8.26l.27-.58a4,4,0,0,1,2.16-1.36Z" transform="translate(-19.99 -198.82)"/><path class="cls-8" d="M121.73,286.62l5.2,2.77c2,1.55,3,3.8,4,6,1.46,1.92,1.31,4.11,1.07,6.31a13,13,0,0,1-4.46,7.25,15.55,15.55,0,0,1-3.91,2.39,11.06,11.06,0,0,1-9.58,0,15.62,15.62,0,0,1-3.89-2.36c-2.55-2.31-4.46-5-4.58-8.58-.07-1.28,0-2.57,0-3.86a11.13,11.13,0,0,1,4.47-8,18.44,18.44,0,0,1,6.38-3.05C118.29,285.28,120.22,284.92,121.73,286.62Z" transform="translate(-19.99 -198.82)"/><path class="cls-9" d="M130.79,302.49c0-2.36.07-4.72.11-7.08l22.95.19c.21,2.65,2.87,5.41-.37,7.91-6.36,1-12.76.46-19.14.4A4.47,4.47,0,0,1,130.79,302.49Z" transform="translate(-19.99 -198.82)"/><path class="cls-10" d="M154.77,302.52c-2-2.08-2.08-4.42-.92-6.92,3-2.71,5.91-2.48,8.85,0,1.21,2.48.6,4.71-.93,6.82-.32.91-.86,1.45-1.91,1.11l-3.2.1a1,1,0,0,1-1,.13A1.86,1.86,0,0,1,154.77,302.52Z" transform="translate(-19.99 -198.82)"/><path class="cls-2" d="M121.73,286.62h-5.89c-2.44,1-3.86-.58-4.83-2.32-2.64-4.76-5.88-9.22-7.63-14.46a3,3,0,0,1,1.55-3.19c.88-1.31,1.2-2.89,2.86-3.8,7.35-4,14.61-8.22,21.9-12.36,5.19-1.18,9.43.68,13.2,4.07-5.17,10.44-11.71,20.08-17.47,30.17A3.61,3.61,0,0,1,121.73,286.62Z" transform="translate(-19.99 -198.82)"/><path class="cls-1" d="M85.67,237.53l2.11-3h61l.33,1.07-25.46,14.75c-9.13.28-18,1.71-26.4,5.55a2.18,2.18,0,0,1-2.16-.85C91.4,249.51,87.79,243.92,85.67,237.53Z" transform="translate(-19.99 -198.82)"/><path class="cls-11" d="M96.73,255.65c8.31-5.16,17.19-7.45,26.93-5.29l-19.94,11.35a7.12,7.12,0,0,1-5.15-.72C97,259.55,95.56,258,96.73,255.65Z" transform="translate(-19.99 -198.82)"/><path class="cls-1" d="M142.89,254.55c-4.47-1.12-8.49-3.7-13.2-4.07q11.16-6.85,22.34-13.69c.36-.21,1,0,1.47,0A122.89,122.89,0,0,1,142.89,254.55Z" transform="translate(-19.99 -198.82)"/><path class="cls-12" d="M98.9,260.38a8.22,8.22,0,0,1,4.82,1.33c1.25,1.44.89,3.27,1.21,4.93-.38,1-.75,1.93-1.13,2.89a2.92,2.92,0,0,1-2.3,1.94c-1.92.21-3.76.22-4.71-1.93L95,266.45c-1.54-1.4-.78-2.78.06-4.15C96.06,261.15,97.08,260,98.9,260.38Z" transform="translate(-19.99 -198.82)"/><path class="cls-2" d="M113.8,310.53a19,19,0,0,0,10-.1c2,.46,2.78,2.19,3.72,3.72,5,8,9.55,16.19,14.37,24.27,1,1.67,2.26,3.36,1,5.48-4,2.53-8,5.06-13.13,3.59-7.27-4.15-14.5-8.38-21.85-12.41-1.65-.91-2.1-2.39-2.94-3.73a3.13,3.13,0,0,1-1.78-3C106.19,322.07,108.81,315.59,113.8,310.53Z" transform="translate(-19.99 -198.82)"/><path class="cls-1" d="M86.82,362.44l-1.2-1.95c1.72-6.21,5.63-11.3,8.72-16.8a2.89,2.89,0,0,1,2.83-1.61c8.53,3.34,17.3,5.57,26.54,5.51L148,361.67l-.25.77Z" transform="translate(-19.99 -198.82)"/><path class="cls-2" d="M123.71,347.59c-9.84,2.42-18.65-.4-27.06-5.31-1-2.39.41-3.87,2-5.31,1.61-.74,3.2-1.62,5.07-.8C110.67,339.44,117.11,343.65,123.71,347.59Z" transform="translate(-19.99 -198.82)"/><path class="cls-1" d="M129.75,347.49c4.72-.31,8.71-3,13.2-4,.33-.09.78-.2.93,0,4.25,5.42,8.71,10.73,9.78,17.89h0A267.11,267.11,0,0,1,129.75,347.49Z" transform="translate(-19.99 -198.82)"/><path class="cls-12" d="M103.69,336.17a8.85,8.85,0,0,1-4.85,1.36c-1.83.51-2.79-.75-3.83-1.85-.84-1.36-1.58-2.73,0-4.12a4,4,0,0,0,.84-3.06c1.44-1.94,3.43-2.3,5.67-2a3.16,3.16,0,0,1,2.33,2c.38.95.76,1.91,1.15,2.87C104.61,333,105,334.79,103.69,336.17Z" transform="translate(-19.99 -198.82)"/><path class="cls-2" d="M96.79,269.54c1.48,1.1,3.2,1.06,4.91,1.11,4.82,4.38,6.86,10.45,9.69,16a2.2,2.2,0,0,1-.73,2.69,11.13,11.13,0,0,0-4,7.05,3.91,3.91,0,0,1-4,2.46c-10,.06-20.11.46-30.16-.21a4.39,4.39,0,0,1-1.38-.53c-3.53-5.33-1.54-10,1.64-14.61Z" transform="translate(-19.99 -198.82)"/><path class="cls-1" d="M80.87,238.62a5,5,0,0,1,.87-.19,2.51,2.51,0,0,1,3.45,1c3.35,5.75,7.55,11.08,9.13,17.75-5.22,5.2-11.69,9.22-15.2,16.05-.75,1.46-2,2.64-2.33,4.32Q63.88,285.13,51,292.74l-.44-.73Z" transform="translate(-19.99 -198.82)"/><path class="cls-2" d="M76.79,277.51c-1.58-3.1,1.29-4.72,2.52-6.66,3.64-5.69,8.2-10.57,14.59-13.36,3.14.73,2.95,2.77,2,5.11a5.6,5.6,0,0,0-1,3.85C89.4,271,83,274,76.79,277.51Z" transform="translate(-19.99 -198.82)"/><path class="cls-1" d="M72.81,283.53c-1.22,4.52-2.52,9-2,13.81-1.3,1.64-3.18,1.77-5,1.61-5.34-.48-10.91,1.5-16-1.5h0C56.78,291.61,65,287.91,72.81,283.53Z" transform="translate(-19.99 -198.82)"/><path class="cls-2" d="M101.62,327.23a13.55,13.55,0,0,0-5.81,1.27c-7.11-5.61-15.52-9.09-23-14.17-3.29-4.5-5.19-9.16-1.67-14.46,4.7-1.7,9.57-.64,14.36-.81,5.16-.19,10.32-.06,15.49,0,2,0,4-.08,5.51,1.69a12.79,12.79,0,0,0,4.36,7.72,2.89,2.89,0,0,1,.44,2.83C108.31,316.72,106.36,322.82,101.62,327.23Z" transform="translate(-19.99 -198.82)"/><path class="cls-1" d="M81.75,359.55a6.63,6.63,0,0,1-.86-.19l-28-49.27c-.71-1.25-1.86-2.32-1.58-5L77,320.35a41.8,41.8,0,0,0,12.53,16.16c1.63,1.33,3.64,2.27,4.68,4.26-1.25,6.63-5.75,11.67-8.66,17.48A2.64,2.64,0,0,1,81.75,359.55Z" transform="translate(-19.99 -198.82)"/><path class="cls-2" d="M93.8,340.47c-8.22-3.7-13-10.71-17.48-18-.53-.87-.14-1.55.63-2.08,6.11,3.57,12.79,6.23,18,11.21a5.73,5.73,0,0,0,1,3.83C96.74,337.72,97.19,339.92,93.8,340.47Z" transform="translate(-19.99 -198.82)"/><path class="cls-1" d="M70.81,300.51a35.19,35.19,0,0,0,2,13.83c-7.7-4.57-15.77-8.53-23-13.83h0A31.28,31.28,0,0,1,70.81,300.51Z" transform="translate(-19.99 -198.82)"/><path class="cls-1" d="M190.92,302.31c.26.4.52.8.77,1.2-8.29,12.62-15.25,26-22.91,39a118.53,118.53,0,0,1-9.14,14c0-1.36,0-2.73,0-4.09-.24-14.27-.52-28.53-.71-42.79,0-1.77-.58-3.68.8-5.26,2.37,2.88,1.13,6.31,1.37,9.5s-.11,6.21.16,9.8c3.4-5.11,4.91-10.46,6.09-15.92.42-2,.71-3.9,2.42-5.23Z" transform="translate(-19.99 -198.82)"/><path class="cls-13" d="M155.78,303.53a1.35,1.35,0,0,1,.88.15q0,27.85.07,55.71h0c-.16,0-.4.17-.46.11-5.56-5.15-9.62-11.13-10.49-18.89,8.32-5.22,9.2-13.17,8.74-22.05C154.27,313.6,153,308.33,155.78,303.53Z" transform="translate(-19.99 -198.82)"/><path class="cls-14" d="M169.77,302.55c-1.64,8.56-3.22,17.15-10,25.51V304.4a3.26,3.26,0,0,1,.13-.82l1.91-1.11Z" transform="translate(-19.99 -198.82)"/><path class="cls-15" d="M93.8,340.47A7.16,7.16,0,0,0,96,335.39l2.87,2.14-2.19,4.75c-4.32,5.68-6.49,12.66-11,18.21-1.33-.14-2.78.19-3.87-.94,1.67-.14,2.53-1.21,3.26-2.61C87.89,351.42,90.86,346,93.8,340.47Z" transform="translate(-19.99 -198.82)"/><path class="cls-15" d="M95.91,262.6a6.49,6.49,0,0,0-2-5.11c-3-5.63-6.1-11.25-9.09-16.91a3.8,3.8,0,0,0-3.07-2.15c1.12-1.11,2.57-.79,3.93-.9C90.34,243,92.39,250,96.73,255.65c.72,1.58,1.45,3.16,2.17,4.73Z" transform="translate(-19.99 -198.82)"/><path class="cls-16" d="M70.81,300.51h-21c0-1,0-2,.05-3.07l21-.11q16,.06,32.11.14a5.17,5.17,0,0,0,3.69-1.06l-.12,4.3Z" transform="translate(-19.99 -198.82)"/><path class="cls-5" d="M145.82,341.45c3.41,6.12,6.28,12.56,10.92,17.93-.67,1.21-2,1.4-3.08,2A142.45,142.45,0,0,0,143,343.46c-5.71-11.4-12.65-22.09-19.15-33l2.91-2c6,7.56,10.16,16.32,15.13,24.55C143.44,335.63,145.75,338.05,145.82,341.45Z" transform="translate(-19.99 -198.82)"/><path class="cls-2" d="M145.82,341.45c-6.7-10.81-13.63-21.49-19.11-33a18.16,18.16,0,0,0,4.08-5.95l24,0,1,1c0,7.49-.5,15,.16,22.45.58,6.48-2.44,10.29-7.23,13.52Z" transform="translate(-19.99 -198.82)"/><path class="cls-17" d="M101.62,327.23c2.53-4.77,5-9.55,7.62-14.28.78-1.44,1.86-2.73,1.66-4.51l2.9,2.09-10,18Z" transform="translate(-19.99 -198.82)"/><path class="cls-16" d="M110.66,289.37c-.13-5.23-4.28-8.61-6-13.1a54.49,54.49,0,0,0-2.92-5.62l2.1-1.12c2.61,4.51,5.25,9,7.83,13.54,1,1.72,1.79,3.56,4.21,3.54Z" transform="translate(-19.99 -198.82)"/></svg>