<svg id="Layer_1" data-name="Layer 1" xmlns="http://www.w3.org/2000/svg" viewBox="0 0 99.16 98.22"><defs><style>.cls-1{fill:#fff;}.cls-2{fill:#6300ff;}</style></defs><title>nomic2</title><path class="cls-1" d="M73.87,27A22.53,22.53,0,0,0,51.34,49.53v0a22.54,22.54,0,0,1-45.07,0,45.07,45.07,0,0,1,90.13,0A22.53,22.53,0,0,0,73.9,27Z" transform="translate(-1.77 -0.72)"/><path d="M28.8,76.59a27.05,27.05,0,0,1-27-27,49.57,49.57,0,0,1,99.13,0h-9a18,18,0,1,0-36.06,0A27,27,0,0,1,28.8,76.59ZM51.34,9A40.61,40.61,0,0,0,10.77,49.56a18,18,0,0,0,36.07,0,27.05,27.05,0,0,1,27-27,26.77,26.77,0,0,1,9,1.54A40.48,40.48,0,0,0,51.34,9Z" transform="translate(-1.77 -0.72)"/><path class="cls-2" d="M51.34,94.44a45.05,45.05,0,0,1-45.07-45h0a22.54,22.54,0,0,0,45.07,0,22.53,22.53,0,1,1,45.06,0A45.05,45.05,0,0,1,51.34,94.44Z" transform="translate(-1.77 -0.72)"/><path d="M51.34,98.94A49.62,49.62,0,0,1,1.77,49.38h9a18,18,0,0,0,36.07,0,27,27,0,1,1,54.06,0A49.61,49.61,0,0,1,51.34,98.94ZM19.81,74.87A40.55,40.55,0,0,0,91.9,49.38a18,18,0,1,0-36.06,0,27.07,27.07,0,0,1-27,27A26.71,26.71,0,0,1,19.81,74.87Z" transform="translate(-1.77 -0.72)"/></svg>