<svg id="Layer_1" data-name="Layer 1" xmlns="http://www.w3.org/2000/svg" viewBox="0 0 265 249"><defs><style>.cls-1{fill:#0a2722;}.cls-2{fill:#fdfdfd;}.cls-3{fill:#f7f8f8;}.cls-4{fill:#f8f8f8;}.cls-5{fill:#f8f9f9;}.cls-6{fill:#f9fafa;}.cls-7{fill:#d2d6d6;}.cls-8{fill:#d6dada;}.cls-9{fill:#d3d8d8;}.cls-10{fill:#cbd1d0;}.cls-11{fill:#cbd0d0;}.cls-12{fill:#cad0cf;}.cls-13{fill:#d3d7d7;}.cls-14{fill:#c4cbca;}.cls-15{fill:#c7cdcd;}.cls-16{fill:#c9cfcf;}</style></defs><title>regen-white</title><path class="cls-1" d="M288,173.38q130.46,0,260.91-.1c3.42,0,4.1.67,4.09,4.09q-.18,120.4,0,240.82c0,3.42-.67,4.09-4.09,4.09q-130.45-.18-260.91-.1Z" transform="translate(-288 -173.28)"/><path class="cls-2" d="M460,325c16.05,8.62,32.17,17.14,48.13,25.94,3.92,2.16,1,6.31,1.64,9.47.47,2.28-1.71,2.14-3.12,2.92-4.93,2.73-8.1,1.13-11.89-2.68-11.7-11.74-23.9-23-35.9-34.4A1.42,1.42,0,0,1,460,325Z" transform="translate(-288 -173.28)"/><path class="cls-2" d="M406.94,346.21q-3.26,18.5-6.53,37c-.76,4.23-2.09,8.39-2.37,12.64-.37,5.74-5.41,4.13-8.27,5.82s-3.33-1.53-4.74-2.88c-3.4-3.25-3.29-6.16-1.07-10.48,7.62-14.89,14.56-30.12,21.76-45.22C408.4,343.24,407.46,344.81,406.94,346.21Z" transform="translate(-288 -173.28)"/><path class="cls-2" d="M404.76,251.42C397.12,235.64,389.3,219.94,382,204c-1.91-4.17,2.9-6.41,5-9.21,1.24-1.68,10.55,2.18,10.87,4.36,2.41,16.45,5.77,32.73,9,49a21.12,21.12,0,0,1,.21,3C406.69,252.82,406.59,252.84,404.76,251.42Z" transform="translate(-288 -173.28)"/><path class="cls-2" d="M463.8,265.05c11.42-11.08,22.75-22.25,34.31-33.19,3.41-3.23,6.51,1.08,9.85,1.31,2.59.18,1.6,2.28,1.88,3.74,1.1,5.54-1.49,8.22-6.39,10.72-13.18,6.71-26,14.19-38.93,21.32a29.35,29.35,0,0,1-3.58,1.43C459.87,267.52,462.73,266.76,463.8,265.05Z" transform="translate(-288 -173.28)"/><path class="cls-2" d="M371,299.18c-5.82,2-12,1.71-18,2.71-10.9,1.82-21.94,2.86-32.9,4.41-4.86.68-4.67-4.14-7.08-6.1-1.92-1.56-.27-3.13.49-4.78,2.43-5.26,6.22-5.62,11.5-4.75,12.06,2,24.26,3.17,36.39,4.72,4.22.54,8.42,1.2,12.63,1.81C374.32,299.91,371.67,298.06,371,299.18Z" transform="translate(-288 -173.28)"/><path class="cls-3" d="M381.44,311.06c-5.95,3.43-12,6.7-17.81,10.35-2.71,1.69-3.43-1-5-1.64s-2-2.07-1-3.66c.84-1.35,0-3.64,2.88-3.85,6.92-.49,13.82-1.4,20.72-2.13Z" transform="translate(-288 -173.28)"/><path class="cls-4" d="M395,335.29c-2.09,5-4.25,9.92-6.25,14.94-1.16,2.89-3.57,1.62-5.52,1.93-2.45.4-2.72-1.65-3-3.06-.29-1.61-1.71-3.27.85-5,4.2-2.88,7.88-6.54,11.78-9.87C394,333.69,395.09,333.35,395,335.29Z" transform="translate(-288 -173.28)"/><path class="cls-5" d="M420,252.31c-1.3-5.24-2.86-10.43-3.8-15.73-.58-3.28,2.54-5.1,4.86-5.12,1.9,0,5.6.94,4.85,4.65-1.17,5.76-2.64,11.46-4,17.19C420.78,253.93,420.5,252.87,420,252.31Z" transform="translate(-288 -173.28)"/><path class="cls-5" d="M387.79,266.42c-4.47-2.74-8.8-5.76-13.47-8.12-3.31-1.68-.86-3.91-1.24-5.83-.48-2.42,1.52-1.94,2.83-2.28,1.88-.49,3.69-1.59,5.16.95,2.54,4.41,5.31,8.68,8,13C389.59,265.44,389.7,266.49,387.79,266.42Z" transform="translate(-288 -173.28)"/><path class="cls-6" d="M421.93,342.26c1.41,5.88,2.73,11.79,4.28,17.64.69,2.63-1.69,2.74-2.77,3.86-1.25,1.31-2.84,1.7-4.21,0-1.05-1.27-3.77-1.23-3.14-3.82,1.27-5.25,2.59-10.49,3.89-15.73C420.83,343.78,420,341.65,421.93,342.26Z" transform="translate(-288 -173.28)"/><path class="cls-3" d="M464.93,297.28c5.69-1.31,11.41-2.48,17.05-4,2.83-.75,3.67,1.2,5,2.76,1.65,1.88.5,3.34-.51,4.84-1.18,1.75-2.48,2.74-4.94,2-4.47-1.43-9.09-2.42-13.65-3.59C467.35,298,464.61,299.92,464.93,297.28Z" transform="translate(-288 -173.28)"/><path class="cls-4" d="M442.75,256c1.3-4.54,2.64-9.07,3.86-13.62.51-1.93,1.2-3.24,3.59-3,2.11.18,4.11-.3,5.05,2.62.62,1.93,1.48,3.19-.41,5-3.09,3-5.8,6.28-8.67,9.44-1.07.61-1.53,2.49-3.14,1.79C442.21,257.86,442.47,256.8,442.75,256Z" transform="translate(-288 -173.28)"/><path class="cls-3" d="M438.05,343.2c2.21,3.44,4.36,6.93,6.66,10.32,1.33,2,1.69,3.51-.06,5.62s-3.12,2.32-5.53,1.63c-2.57-.72-3.16-2-3.19-4.54,0-4.3-.66-8.6-1-12.89-.52-1.07-1-2.63.28-2.94C437,340,436.85,342.46,438.05,343.2Z" transform="translate(-288 -173.28)"/><path class="cls-3" d="M377,333.35c-.91,1.16-1.87,2.3-2.74,3.49-1.09,1.48-1.82,3.1-4.26,1.53-1.66-1.07-4.4-.67-4-3.87.26-2-.72-4.18,2.34-5.23,5.27-1.82,10.37-4.13,15.54-6.23,1.6,2-.37,2.93-1.34,4.06C380.76,329.22,378.39,330.84,377,333.35Z" transform="translate(-288 -173.28)"/><path class="cls-7" d="M463.8,265.05q-1.43,2.67-2.86,5.33c-1.66,2.05-4.12,2.74-6.55,3.67C457.34,270.81,459.7,267.05,463.8,265.05Z" transform="translate(-288 -173.28)"/><path class="cls-8" d="M377,333.35c.08-2.68,2.42-3.76,3.87-5.46,1.26-1.48,3.1-2.56,3-4.85l3.54-1.84A50.35,50.35,0,0,1,377,333.35Z" transform="translate(-288 -173.28)"/><path class="cls-9" d="M404.76,251.42c.77,0,1.6.53,2.29-.25,1.48,2.71,1.39,5.72,1.79,8.67A19.35,19.35,0,0,1,404.76,251.42Z" transform="translate(-288 -173.28)"/><path class="cls-10" d="M371,299.18l3.06-2H383A21.56,21.56,0,0,1,371,299.18Z" transform="translate(-288 -173.28)"/><path class="cls-11" d="M406.94,346.21c-.13-1.15.15-2.47-1.22-3.13.16-2.49,1.44-4.47,3.08-6.95A19.2,19.2,0,0,1,406.94,346.21Z" transform="translate(-288 -173.28)"/><path class="cls-12" d="M442.75,256c.72,3.57,2.3.12,3.42.41-1,2.32-2.8,4-5,5.94C440.66,259.71,441.83,257.89,442.75,256Z" transform="translate(-288 -173.28)"/><path class="cls-13" d="M438.05,343.2c-1,1.27-2.32-4.88-3.15.14a9.94,9.94,0,0,1-.69-6.8C435.91,338.73,437.41,340.7,438.05,343.2Z" transform="translate(-288 -173.28)"/><path class="cls-11" d="M460,325l-1.14,1.25-5.15-3.59C456.91,321.77,458.32,323.72,460,325Z" transform="translate(-288 -173.28)"/><path class="cls-14" d="M387.79,266.42a2.22,2.22,0,0,0,1.26-2.26c1.56,1,2.11,2.74,3.27,4.93C390.14,268.54,388.73,267.93,387.79,266.42Z" transform="translate(-288 -173.28)"/><path class="cls-8" d="M395,335.29a2.42,2.42,0,0,0-2.11-1.08c.88-1.31,1.8-2.58,3.75-3A4.52,4.52,0,0,1,395,335.29Z" transform="translate(-288 -173.28)"/><path class="cls-15" d="M420,252.31l1.93,1v3.78C419.31,255.84,420,253.93,420,252.31Z" transform="translate(-288 -173.28)"/><path class="cls-16" d="M464.93,297.28l3,2c-2.33.42-4.34-.6-6.58-1.33C462.52,296.83,463.78,297.36,464.93,297.28Z" transform="translate(-288 -173.28)"/><path class="cls-15" d="M421.93,342.26l-1.95,2c-.13-1.91-.3-3.82,1.37-5.37C422.43,339.88,421.89,341.12,421.93,342.26Z" transform="translate(-288 -173.28)"/></svg>